<svg width="61" height="60" viewBox="0 0 61 60" fill="none" xmlns="http://www.w3.org/2000/svg">
<circle cx="30.3572" cy="30" r="30" fill="#D7BB90" fill-opacity="0.4"/>
<path d="M27.4715 26.1269C28.5515 25.1002 28.6684 23.4491 27.7407 22.2835L24.7493 18.5154C24.2463 17.8792 23.4889 17.4887 22.6781 17.4398C21.8718 17.394 21.0729 17.6973 20.496 18.2698L18.194 20.5718C16.2663 22.4995 15.8387 25.3741 16.9927 28.6688C19.7459 36.5158 28.2214 43.2694 32.8507 44.4734C33.9336 44.753 35.1423 45 36.3495 45C37.9443 45 39.5466 44.5754 40.8678 43.2498L43.1698 40.9479C43.7453 40.3724 44.0486 39.5764 44.0027 38.7657C43.9569 37.955 43.5633 37.1975 42.9272 36.6945L39.1591 33.7031C37.9933 32.7784 36.3408 32.8924 35.3157 33.9723L33.5922 35.7861C33.4487 35.937 33.1676 36.0968 32.308 35.9459C30.0889 35.5554 26.1831 31.9397 25.4832 29.0726C25.3885 28.6791 25.3397 28.1524 25.6534 27.8491L27.4672 26.1256L27.4715 26.1269ZM23.6455 29.5207C24.5435 33.1941 29.1031 37.3041 31.9822 37.807C32.4704 37.8899 33.9513 38.1517 34.9662 37.088L36.6898 35.2742C37.0345 34.9103 37.5907 34.8733 37.9813 35.184L41.7494 38.1754C41.9654 38.35 42.0941 38.5955 42.1089 38.8722C42.1237 39.1488 42.0261 39.4107 41.8293 39.6075L39.5273 41.9094C38.224 43.2128 36.3688 43.4288 33.3241 42.6373C29.1966 41.5662 21.2917 35.196 18.7769 28.0413C18.2546 26.553 17.6599 23.7805 19.5269 21.9092L21.8289 19.6072C22.0109 19.4252 22.2491 19.3276 22.5065 19.3276H22.5627C22.8394 19.3424 23.085 19.4711 23.2595 19.6871L26.2509 23.4552C26.5616 23.8487 26.5231 24.402 26.1607 24.7468L24.3469 26.4703C23.585 27.1893 23.3349 28.2737 23.6382 29.515L23.6455 29.5207Z" fill="black"/>
<path d="M28.7512 18.882C28.479 19.3288 28.6151 19.9117 29.0619 20.1854C31.2441 21.5258 31.929 24.3927 30.5887 26.578C30.3164 27.0248 30.4555 27.6077 30.8993 27.8814C31.0547 27.9761 31.2248 28.022 31.395 28.022C31.713 28.022 32.0237 27.8622 32.2012 27.5707C34.0875 24.4994 33.1259 20.4619 30.0501 18.5758C29.6033 18.3036 29.0204 18.4426 28.7468 18.8865L28.7512 18.882Z" fill="black"/>
<path d="M34.327 29.9778C34.4823 30.0725 34.6524 30.1184 34.8226 30.1184C35.1406 30.1184 35.4513 29.9586 35.6289 29.6671C37.1053 27.2616 37.5565 24.43 36.9012 21.6842C36.2458 18.9428 34.5607 16.6171 32.1553 15.1393C31.7085 14.867 31.1256 15.0061 30.8519 15.4499C30.5797 15.8967 30.7158 16.4796 31.1626 16.7533C33.1361 17.965 34.5179 19.8734 35.0563 22.1238C35.5949 24.374 35.2235 26.7027 34.0104 28.6763C33.7382 29.1231 33.8743 29.706 34.3211 29.9796L34.327 29.9778Z" fill="black"/>
</svg>
