<svg width="269" height="270" viewBox="0 0 269 270" fill="none" xmlns="http://www.w3.org/2000/svg">
<path d="M0.0119556 33.6235L33.6474 0L67.2709 33.6355L33.6355 67.259L0.0119556 33.6235ZM67.259 33.6235L100.894 0L134.518 33.6355L100.882 67.259L67.259 33.6235ZM134.518 33.6235L168.153 0.0119556L201.777 33.6474L168.141 67.259L134.518 33.6235ZM235.388 0L201.765 33.6235L235.4 67.259L269 33.6235L235.388 0ZM0.0239112 100.882L33.6594 67.259L67.2829 100.894L33.6474 134.518L0.0239112 100.882ZM67.259 100.882L100.894 67.259L134.518 100.894L100.882 134.518L67.259 100.882ZM134.53 100.871L168.153 67.2473L201.789 100.883L168.153 134.506L134.53 100.871ZM235.388 67.2473L201.753 100.871L235.388 134.506L269 100.883L235.388 67.2473ZM0.0239112 168.142L33.6594 134.518L67.2829 168.154L33.6474 201.777L0.0239112 168.142ZM67.259 168.13L100.894 134.507L134.518 168.142L100.882 201.766L67.259 168.13ZM134.53 168.13L168.165 134.507L201.789 168.142L168.153 201.766L134.53 168.13ZM235.388 134.506L201.765 168.13L235.388 201.754L269 168.13L235.388 134.506ZM33.6355 269.013L0 235.377L33.6355 201.754L67.259 235.389L33.6355 269.013ZM100.894 269.013L67.259 235.389L100.882 201.766L134.518 235.401L100.894 269.013ZM168.13 269.013L134.506 235.389L168.13 201.766L201.765 235.389L168.13 269.013ZM201.765 235.389L235.4 269.024L269 235.389L235.388 201.754L201.765 235.389Z" fill="white"/>
</svg>
