<svg width="61" height="60" viewBox="0 0 61 60" fill="none" xmlns="http://www.w3.org/2000/svg">
<circle cx="30.3572" cy="30" r="30" fill="#D7BB90" fill-opacity="0.4"/>
<path d="M37.9127 29.7983H24.7345L23.0998 15.7728C23.0433 15.2928 22.6101 14.9507 22.13 15.0058C21.6499 15.0624 21.3079 15.4955 21.363 15.9756L23.0364 30.3319C22.9922 30.4368 22.9674 30.5527 22.9674 30.6741C22.9674 30.7886 22.9894 30.8975 23.0295 30.9982L21.3644 44.015C21.3037 44.4937 21.6417 44.9311 22.1204 44.9931C22.1576 44.9986 22.1949 45 22.2321 45C22.6653 45 23.0419 44.6786 23.0984 44.2371L23.5247 40.9029H36.176L36.7112 44.2633C36.7802 44.6937 37.1513 45 37.5734 45C37.6189 45 37.6658 44.9958 37.7113 44.9889C38.1887 44.9131 38.5128 44.4647 38.437 43.9888L36.456 31.5473H37.9128C38.3956 31.5473 38.7874 31.1555 38.7874 30.6727C38.786 30.1898 38.3955 29.7983 37.9127 29.7983ZM35.8973 39.1554H23.7482L24.7221 31.546H34.6863L35.8973 39.1554Z" fill="black"/>
</svg>
