<svg width="61" height="60" viewBox="0 0 61 60" fill="none" xmlns="http://www.w3.org/2000/svg">
<circle cx="30.3572" cy="30" r="30" fill="#D7BB90" fill-opacity="0.4"/>
<path d="M44.7322 43.75H35.3572V43.3542C35.3572 41.5047 33.8526 40 32.0031 40H30.9822V35H35.3572C35.7024 35 35.9822 34.7201 35.9822 34.375C35.9822 33.7841 35.9822 16.4727 35.9822 15.625C35.9822 15.2798 35.7024 15 35.3572 15H25.3572C25.0121 15 24.7322 15.2798 24.7322 15.625C24.7322 17.1817 24.7322 33.5394 24.7322 34.375C24.7322 34.7201 25.0121 35 25.3572 35H29.7322V40H28.7114C26.8619 40 25.3572 41.5047 25.3572 43.3542V43.75H15.9822C15.6371 43.75 15.3572 44.0299 15.3572 44.375C15.3572 44.7201 15.6371 45 15.9822 45C19.0674 45 41.6466 45 44.7322 45C45.0774 45 45.3572 44.7201 45.3572 44.375C45.3572 44.0299 45.0774 43.75 44.7322 43.75ZM25.9822 21.875H34.7322V28.125H25.9822V21.875ZM34.7322 16.25V20.625H25.9822V16.25H34.7322ZM25.9822 29.375H34.7322V33.75H25.9822V29.375ZM26.6072 43.75V43.3542C26.6072 42.1939 27.5511 41.25 28.7114 41.25H32.0031C33.1632 41.25 34.1072 42.1939 34.1072 43.3542V43.75H26.6072Z" fill="black"/>
</svg>
