<svg width="61" height="60" viewBox="0 0 61 60" fill="none" xmlns="http://www.w3.org/2000/svg">
<circle cx="30.3572" cy="30" r="30" fill="#D7BB90" fill-opacity="0.4"/>
<path d="M44.5982 16.5254C45.0189 16.5254 45.3609 16.1846 45.3609 15.7627C45.3609 15.342 45.0189 15 44.5982 15H35.5652C34.3115 14.9988 33.1067 15.4874 32.2093 16.3609L15.5933 32.4501C15.4455 32.5896 15.3609 32.7838 15.3573 32.9864C15.3537 33.1902 15.4312 33.3868 15.5718 33.5322C15.7136 33.6788 15.9079 33.7622 16.1105 33.7646C16.3142 33.767 16.5097 33.6871 16.6551 33.5453L19.3424 30.9414V36.3553H16.1235C15.7028 36.3553 15.3608 36.6974 15.3608 37.118C15.3608 37.5399 15.7028 37.8807 16.1235 37.8807H16.5359L16.537 43.2196C16.5382 44.2028 17.3343 44.9988 18.3163 45H41.5473C43.6519 44.9976 45.3584 43.2911 45.3608 41.1865V24.9149C45.3584 23.3716 44.1071 22.1203 42.5639 22.1191H38.5359V16.5252L44.5982 16.5254ZM20.8678 29.4638L27.3101 23.2298V29.2371H24.0866C23.6648 29.2371 23.3239 29.5791 23.3239 29.9998C23.3239 30.4204 23.6648 30.7625 24.0866 30.7625H24.493V36.3552H20.8678V29.4638ZM43.8356 24.915V41.1867C43.8344 42.4499 42.8107 43.4736 41.5475 43.4748H18.3164C18.1758 43.4748 18.0625 43.3604 18.0625 43.2197V37.8809H24.4991V38.8903C24.4991 39.3109 24.8399 39.653 25.2618 39.653C25.6825 39.653 26.0245 39.3109 26.0245 38.8903V30.7627H32.4622V31.7721H32.461C32.461 32.1927 32.8031 32.5347 33.2237 32.5347C33.6456 32.5347 33.9864 32.1927 33.9864 31.7721V23.6445H42.5643C43.2662 23.6445 43.8347 24.2129 43.8359 24.9148L43.8356 24.915ZM37.0107 22.1193H32.0483C31.6264 22.1193 31.2856 22.4601 31.2856 22.882C31.2856 23.3026 31.6264 23.6447 32.0483 23.6447H32.4606V29.2374H28.8354V21.7523L33.2697 17.4574C33.8858 16.858 34.7105 16.5243 35.5697 16.5255H37.0152L37.0107 22.1193Z" fill="#212121"/>
</svg>
