<svg width="61" height="60" viewBox="0 0 61 60" fill="none" xmlns="http://www.w3.org/2000/svg">
<circle cx="30.3572" cy="30" r="30" fill="#D7BB90" fill-opacity="0.4"/>
<path fill-rule="evenodd" clip-rule="evenodd" d="M48.7584 26.8106H35.672H24.4436V26.0288H31.4395C31.7804 26.0288 32.0568 25.7523 32.0568 25.4115V15.6173C32.0568 15.2763 31.7804 15 31.4395 15H16.2132C15.8723 15 15.5959 15.2763 15.5959 15.6173V25.4114C15.5959 25.7523 15.8723 26.0288 16.2132 26.0288H23.2091V26.8106H11.9807C11.6398 26.8106 11.3634 27.087 11.3634 27.4279V40.201C11.3594 40.2295 11.3572 40.2585 11.3572 40.288C11.3572 40.3176 11.3594 40.3465 11.3634 40.3749V44.3827C11.3634 44.7236 11.6398 45 11.9807 45C12.3216 45 12.598 44.7236 12.598 44.3827V40.9054H35.0547V44.3827C35.0547 44.7236 35.3311 45 35.672 45H48.7584C49.0994 45 49.3757 44.7236 49.3757 44.3827V35.9054V27.4279C49.3757 27.0871 49.0994 26.8106 48.7584 26.8106ZM16.8305 16.2346H30.8223V24.7942H16.8305V16.2346ZM48.1412 35.288H36.2893V28.0452H48.1412V35.288ZM12.598 39.6707V28.0452H35.0547V39.6707H12.598V39.6707ZM48.1412 43.7654H36.2893V36.5226H48.1412V43.7654Z" fill="black"/>
<path fill-rule="evenodd" clip-rule="evenodd" d="M30.1638 28.8271H17.4888C17.148 28.8271 16.8716 29.1035 16.8716 29.4444C16.8716 29.7853 17.1479 30.0617 17.4888 30.0617H30.1638C30.5046 30.0617 30.781 29.7853 30.781 29.4444C30.781 29.1035 30.5046 28.8271 30.1638 28.8271Z" fill="black"/>
<path fill-rule="evenodd" clip-rule="evenodd" d="M42.2152 32.2921C42.5607 32.2921 42.8407 32.012 42.8407 31.6666C42.8407 31.3212 42.5607 31.0411 42.2152 31.0411C41.8697 31.0411 41.5897 31.3212 41.5897 31.6666C41.5897 32.012 41.8698 32.2921 42.2152 32.2921Z" fill="black"/>
<path fill-rule="evenodd" clip-rule="evenodd" d="M42.2152 40.7694C42.5607 40.7694 42.8407 40.4894 42.8407 40.1441C42.8407 39.7986 42.5607 39.5186 42.2152 39.5186C41.8697 39.5186 41.5897 39.7986 41.5897 40.1441C41.5897 40.4894 41.8698 40.7694 42.2152 40.7694Z" fill="black"/>
</svg>
