<svg width="25" height="15" viewBox="0 0 25 15" fill="none" xmlns="http://www.w3.org/2000/svg">
<path d="M1 6.54883C0.447715 6.54883 0 6.99654 0 7.54883C0 8.10111 0.447715 8.54883 1 8.54883V6.54883ZM23.7196 8.25593C24.1101 7.86541 24.1101 7.23225 23.7196 6.84172L17.3556 0.47776C16.9651 0.0872359 16.3319 0.0872359 15.9414 0.47776C15.5509 0.868285 15.5509 1.50145 15.9414 1.89197L21.5983 7.54883L15.9414 13.2057C15.5509 13.5962 15.5509 14.2294 15.9414 14.6199C16.3319 15.0104 16.9651 15.0104 17.3556 14.6199L23.7196 8.25593ZM1 8.54883H23.0125V6.54883H1V8.54883Z" fill="black"/>
</svg>
