<svg width="125" height="20" viewBox="0 0 125 20" fill="none" xmlns="http://www.w3.org/2000/svg">
<path d="M9.56898 0.572672C9.92118 -0.190891 11.0064 -0.190891 11.3586 0.572672L13.708 5.66617C13.8515 5.97737 14.1465 6.19164 14.4868 6.23199L20.057 6.89243C20.892 6.99144 21.2274 8.02353 20.61 8.59445L16.4918 12.4028C16.2402 12.6355 16.1276 12.9822 16.1943 13.3184L17.2875 18.82C17.4514 19.6448 16.5734 20.2827 15.8397 19.8719L10.9451 17.1322C10.6461 16.9648 10.2815 16.9648 9.98247 17.1322L5.08788 19.8719C4.35413 20.2827 3.47618 19.6448 3.64006 18.82L4.73323 13.3184C4.80002 12.9822 4.68737 12.6355 4.43576 12.4028L0.317562 8.59445C-0.299794 8.02353 0.0355554 6.99144 0.870581 6.89243L6.4408 6.23199C6.78112 6.19164 7.07604 5.97737 7.21958 5.66617L9.56898 0.572672Z" fill="#FFC945"/>
<path d="M35.569 0.572672C35.9212 -0.190891 37.0064 -0.190891 37.3586 0.572672L39.708 5.66617C39.8515 5.97737 40.1465 6.19164 40.4868 6.23199L46.057 6.89243C46.892 6.99144 47.2274 8.02353 46.61 8.59445L42.4918 12.4028C42.2402 12.6355 42.1276 12.9822 42.1943 13.3184L43.2875 18.82C43.4514 19.6448 42.5734 20.2827 41.8397 19.8719L36.9451 17.1322C36.6461 16.9648 36.2815 16.9648 35.9825 17.1322L31.0879 19.8719C30.3541 20.2827 29.4762 19.6448 29.6401 18.82L30.7332 13.3184C30.8 12.9822 30.6874 12.6355 30.4358 12.4028L26.3176 8.59445C25.7002 8.02353 26.0356 6.99144 26.8706 6.89243L32.4408 6.23199C32.7811 6.19164 33.076 5.97737 33.2196 5.66617L35.569 0.572672Z" fill="#FFC945"/>
<path d="M61.569 0.572672C61.9212 -0.190891 63.0064 -0.190891 63.3586 0.572672L65.708 5.66617C65.8515 5.97737 66.1465 6.19164 66.4868 6.23199L72.057 6.89243C72.892 6.99144 73.2274 8.02353 72.61 8.59445L68.4918 12.4028C68.2402 12.6355 68.1276 12.9822 68.1943 13.3184L69.2875 18.82C69.4514 19.6448 68.5734 20.2827 67.8397 19.8719L62.9451 17.1322C62.6461 16.9648 62.2815 16.9648 61.9825 17.1322L57.0879 19.8719C56.3541 20.2827 55.4762 19.6448 55.6401 18.82L56.7332 13.3184C56.8 12.9822 56.6874 12.6355 56.4358 12.4028L52.3176 8.59445C51.7002 8.02353 52.0356 6.99144 52.8706 6.89243L58.4408 6.23199C58.7811 6.19164 59.076 5.97737 59.2196 5.66617L61.569 0.572672Z" fill="#FFC945"/>
<path d="M87.569 0.572672C87.9212 -0.190891 89.0064 -0.190891 89.3586 0.572672L91.708 5.66617C91.8515 5.97737 92.1465 6.19164 92.4868 6.23199L98.057 6.89243C98.892 6.99144 99.2274 8.02353 98.61 8.59445L94.4918 12.4028C94.2402 12.6355 94.1276 12.9822 94.1943 13.3184L95.2875 18.82C95.4514 19.6448 94.5734 20.2827 93.8397 19.8719L88.9451 17.1322C88.6461 16.9648 88.2815 16.9648 87.9825 17.1322L83.0879 19.8719C82.3541 20.2827 81.4762 19.6448 81.6401 18.82L82.7332 13.3184C82.8 12.9822 82.6874 12.6355 82.4358 12.4028L78.3176 8.59445C77.7002 8.02353 78.0356 6.99144 78.8706 6.89243L84.4408 6.23199C84.7811 6.19164 85.076 5.97737 85.2196 5.66617L87.569 0.572672Z" fill="#FFC945"/>
<path d="M114.023 0.782095C114.196 0.405969 114.731 0.405968 114.905 0.782095L117.254 5.8756C117.47 6.3447 117.915 6.66769 118.428 6.72851L123.998 7.38895C124.409 7.43772 124.575 7.94613 124.271 8.22736L120.152 12.0358C119.773 12.3865 119.603 12.9091 119.704 13.4158L120.797 18.9175C120.878 19.3237 120.445 19.638 120.084 19.4356L115.189 16.6959C114.739 16.4435 114.189 16.4435 113.738 16.6959L108.844 19.4356C108.482 19.638 108.05 19.3237 108.13 18.9175L109.224 13.4158C109.324 12.9091 109.155 12.3865 108.775 12.0358L104.657 8.22736C104.353 7.94613 104.518 7.43772 104.929 7.38895L110.5 6.72851C111.013 6.66769 111.457 6.3447 111.674 5.8756L114.023 0.782095L113.569 0.572672L114.023 0.782095Z" stroke="#FFC945"/>
</svg>
