<svg width="40" height="33" viewBox="0 0 40 33" fill="none" xmlns="http://www.w3.org/2000/svg">
<path d="M19.9731 0.0246333C19.7632 0.0291333 19.5675 0.0986483 19.3793 0.227758L0.379304 15.2278C-0.0578415 15.5788 -0.119861 16.2267 0.207429 16.6496C0.530009 17.0665 1.21616 17.1333 1.6293 16.8059L20.0043 2.30588L38.3793 16.8059C38.7925 17.1333 39.4597 17.064 39.7856 16.6496C40.109 16.2384 40.0742 15.5552 39.6293 15.2278L20.6293 0.227758C20.4068 0.0811433 20.1829 0.0202583 19.9731 0.0246333ZM7.50431 13.4778L5.50431 15.0559V31.0246C5.50433 31.2899 5.6097 31.5442 5.79723 31.7317C5.98476 31.9193 6.2391 32.0246 6.50431 32.0246H15.5043C15.7695 32.0246 16.0239 31.9193 16.2114 31.7317C16.3989 31.5442 16.5043 31.2899 16.5043 31.0246V22.0246H23.5043V31.0246C23.5043 31.2899 23.6097 31.5442 23.7972 31.7317C23.9848 31.9193 24.2391 32.0246 24.5043 32.0246H33.5043C33.7695 32.0246 34.0239 31.9193 34.2114 31.7317C34.3989 31.5442 34.5043 31.2899 34.5043 31.0246V15.0559L32.5043 13.4778V30.0246H25.5043V21.0246C25.5043 20.7594 25.3989 20.5051 25.2114 20.3176C25.0239 20.13 24.7695 20.0247 24.5043 20.0246H15.5043C15.2391 20.0247 14.9848 20.13 14.7972 20.3176C14.6097 20.5051 14.5043 20.7594 14.5043 21.0246V30.0246H7.50431V13.4778Z" fill="#212121"/>
</svg>
