<svg width="40" height="34" viewBox="0 0 40 34" fill="none" xmlns="http://www.w3.org/2000/svg">
<path d="M8.53017 23.1815C9.24448 23.1815 9.89181 22.8913 10.359 22.4241C10.8262 21.9569 11.1164 21.308 11.1164 20.5953C11.1164 19.881 10.8278 19.2336 10.359 18.7664C9.89185 18.2993 9.24289 18.0091 8.53017 18.0091C7.81586 18.0091 7.16853 18.2992 6.70133 18.7664C6.23418 19.2336 5.94396 19.8826 5.94396 20.5953C5.94396 21.3112 6.23415 21.9569 6.70133 22.4241C7.16849 22.8913 7.81746 23.1815 8.53017 23.1815ZM3.12509 23.1815H4.89331C4.37354 22.4512 4.06741 21.5583 4.06741 20.5937C4.06741 19.3612 4.56648 18.2467 5.37325 17.4399C6.18005 16.6331 7.29613 16.1341 8.52866 16.1341C9.7612 16.1341 10.8757 16.6331 11.6825 17.4399C12.2342 17.99 12.6408 18.6836 12.8433 19.4585C13.363 19.189 13.953 19.0359 14.5764 19.0359H34.8053C36.2339 19.0359 37.5334 19.6195 38.4741 20.5618C39.4164 21.5025 40 22.802 40 24.2306V32.9428C40 33.4609 39.5807 33.8803 39.0625 33.8803C38.5443 33.8803 38.1249 33.461 38.1249 32.9428V29.4254H1.87509V32.9428C1.87509 33.4609 1.45576 33.8803 0.937543 33.8803C0.419321 33.8803 0 33.461 0 32.9428V18.2292C0 17.711 0.419321 17.2916 0.937543 17.2916C1.45576 17.2916 1.87509 17.711 1.87509 18.2292V23.4445C2.25775 23.2755 2.6803 23.1814 3.12195 23.1814L3.12509 23.1815ZM9.54899 25.0566H3.12346C2.77906 25.0566 2.46653 25.1969 2.24334 25.4201L2.24015 25.4233C2.02012 25.6433 1.8814 25.9495 1.87822 26.2875V26.3194C1.8814 26.6574 2.02012 26.9619 2.24015 27.1836L2.24334 27.1868C2.46816 27.4116 2.77908 27.5503 3.12346 27.5503H9.54735C9.89175 27.5503 10.2043 27.41 10.4275 27.1868L10.4307 27.1836C10.6555 26.9587 10.7942 26.6478 10.7942 26.3035C10.7942 25.9591 10.6539 25.6465 10.4307 25.4233L10.4275 25.4201C10.2026 25.1953 9.89173 25.0566 9.54735 25.0566L9.54899 25.0566ZM28.7492 11.5357C29.1909 11.802 29.3376 12.3744 29.0713 12.816C28.8066 13.2593 28.2326 13.4044 27.791 13.1381L20.0021 8.48855L12.2133 13.1381C11.7717 13.4028 11.1976 13.2577 10.933 12.816C10.6667 12.3744 10.8134 11.8004 11.2551 11.5357L19.5125 6.60736C19.7995 6.43037 20.1742 6.41443 20.4835 6.59938L28.7524 11.5359L28.7492 11.5357ZM39.5419 11.5357C39.9851 11.802 40.1302 12.3744 39.8639 12.816C39.5977 13.2593 39.0253 13.4044 38.582 13.1381L19.9989 2.04547L1.41583 13.1381C0.972589 13.4028 0.400161 13.2577 0.133907 12.816C-0.130772 12.3744 0.0143229 11.8004 0.455983 11.5357L19.5064 0.164275C19.7934 -0.0127064 20.1681 -0.028654 20.4775 0.156303L39.5406 11.5342L39.5419 11.5357ZM12.6691 27.5501H38.1243V24.2305C38.1243 23.3201 37.7496 22.4894 37.1485 21.8867C36.5458 21.2839 35.7167 20.9109 34.8046 20.9109H14.5758C14.0528 20.9109 13.5761 21.1261 13.2285 21.4721C12.8825 21.8181 12.6672 22.2948 12.6672 22.8194V27.5518L12.6691 27.5501Z" fill="black"/>
</svg>
