<svg width="41" height="40" viewBox="0 0 41 40" fill="none" xmlns="http://www.w3.org/2000/svg">
<path d="M2.54271 39.9839H37.7946C39.1055 39.9823 40.1669 38.9209 40.1685 37.6117V25.4486C40.1653 24.1377 39.1039 23.0779 37.7946 23.0747H35.818V21.2522H36.8C37.3608 21.2522 37.8169 20.7978 37.8169 20.2353C37.8169 19.6744 37.3608 19.2184 36.8 19.2184H35.818V18.737C35.818 16.6094 34.0924 14.8838 31.9648 14.8838C29.8372 14.8838 28.1116 16.6094 28.1116 18.737V18.9769C28.1116 19.5378 28.5661 19.9938 29.1286 19.9938C29.6894 19.9938 30.1455 19.5378 30.1455 18.9769V18.737C30.1455 17.7327 30.9606 16.9176 31.9648 16.9176C32.969 16.9176 33.7842 17.7327 33.7842 18.737V23.0763H23.8103V21.0568C23.8055 19.7491 22.7457 18.6909 21.438 18.6893H6.81968C5.51038 18.6909 4.44901 19.7523 4.44742 21.0616V23.0795H2.5423C1.233 23.0811 0.17163 24.1425 0.168457 25.4518V37.6149C0.173224 38.9241 1.23304 39.9823 2.5423 39.9839H2.54271ZM22.7935 25.1085H26.0476V37.9501H15.1524V25.1085H22.7935ZM37.7946 37.9501H28.0863V32.5479H38.133V37.6117H38.1346C38.1346 37.7007 38.0981 37.788 38.0345 37.8516C37.971 37.9152 37.8852 37.9501 37.7946 37.9501ZM38.1331 25.447V30.5124L28.0864 30.514V25.1085H37.7946C37.9821 25.1101 38.1331 25.261 38.1347 25.4485L38.1331 25.447ZM6.48183 21.0567C6.48183 20.8708 6.63278 20.7183 6.82027 20.7183H21.4386C21.6245 20.7199 21.777 20.8708 21.777 21.0567V23.0747H6.48186L6.48183 21.0567ZM2.20266 25.4486C2.20425 25.2611 2.3552 25.1101 2.54269 25.1086H13.1186V37.9501H2.54269C2.3552 37.9501 2.20266 37.7992 2.20266 37.6117V25.4486Z" fill="#212121"/>
<path d="M17.4482 33.5453C18.0107 33.5453 18.4651 33.0893 18.4651 32.5284V30.5311C18.4651 29.9686 18.0107 29.5142 17.4482 29.5142C16.8873 29.5142 16.4313 29.9686 16.4313 30.5311V32.5284C16.4313 33.0893 16.8873 33.5453 17.4482 33.5453Z" fill="#212121"/>
<path d="M10.8131 33.5453C11.3739 33.5453 11.83 33.0893 11.83 32.5284V30.5311C11.83 29.9686 11.3739 29.5142 10.8131 29.5142C10.2522 29.5142 9.79614 29.9686 9.79614 30.5311V32.5284C9.79614 33.0893 10.2522 33.5453 10.8131 33.5453Z" fill="#212121"/>
<path d="M10.6031 0.104778C10.0407 0.104778 9.58623 0.559217 9.58623 1.12169V6.10131L6.22883 10.8475C5.946 11.2479 5.79506 11.7277 5.79664 12.2187V12.9703C5.79823 14.2796 6.85964 15.3409 8.1689 15.3425H20.092C21.4029 15.3425 22.4643 14.2811 22.4658 12.9703V12.2187C22.4658 11.7277 22.3133 11.2495 22.0305 10.849L18.6763 6.10127V1.12165C18.6763 0.559176 18.2218 0.104738 17.6593 0.104738C17.0985 0.104738 16.6424 0.559176 16.6424 1.12165V5.40692H11.6262V1.12165C11.6262 0.849944 11.5182 0.590944 11.3259 0.400293C11.1336 0.209622 10.8732 0.103188 10.6031 0.104778ZM20.429 12.2203V12.9719V12.9703C20.429 13.0608 20.3924 13.1466 20.3289 13.2102C20.2653 13.2738 20.1795 13.3087 20.0905 13.3087H8.1658C7.97989 13.3087 7.82735 13.1578 7.82735 12.9703V12.2187C7.82735 12.1488 7.8496 12.0805 7.88932 12.0233L11.1291 7.44064H17.1273L20.3671 12.0233V12.0248C20.4068 12.0805 20.4291 12.1488 20.4291 12.2187L20.429 12.2203Z" fill="#212121"/>
</svg>
