<svg width="40" height="41" viewBox="0 0 40 41" fill="none" xmlns="http://www.w3.org/2000/svg">
<path d="M3.15807 35.814C2.57659 35.814 2.10544 35.3425 2.10544 34.7614V9.94032C2.10544 9.35919 2.57659 8.8877 3.15807 8.8877C3.73954 8.8877 4.21069 9.35919 4.21069 9.94032V34.7614C4.21069 35.3425 3.73954 35.814 3.15807 35.814Z" fill="black"/>
<path d="M32.6316 18.2702C32.0505 18.2702 31.579 17.7987 31.579 17.2176V9.94032C31.579 9.35919 32.0505 8.8877 32.6316 8.8877C33.2127 8.8877 33.6842 9.35919 33.6842 9.94032V17.2176C33.6842 17.7987 33.2127 18.2702 32.6316 18.2702Z" fill="black"/>
<path d="M34.7362 12.2561C34.5512 12.2561 34.3641 12.2074 34.1948 12.1053L17.8948 2.30545L1.59523 12.1053C1.0977 12.4048 0.450768 12.2444 0.150608 11.7455C-0.148872 11.2473 0.0121732 10.6011 0.510396 10.3016L17.3524 0.175524C17.6862 -0.0259559 18.1035 -0.0259559 18.4373 0.175524L35.2789 10.3016C35.7772 10.6011 35.9389 11.2473 35.6387 11.7455C35.4414 12.0745 35.0932 12.2561 34.7362 12.2561Z" fill="black"/>
<path d="M29.8239 35.814H1.05281C0.471332 35.814 0.000183105 35.3425 0.000183105 34.7614C0.000183105 34.1802 0.471332 33.7087 1.05281 33.7087H29.8239C30.4051 33.7087 30.8766 34.1802 30.8766 34.7614C30.8766 35.3425 30.4051 35.814 29.8239 35.814Z" fill="black"/>
<path d="M17.8949 28.7965C17.3134 28.7965 16.8422 28.325 16.8422 27.7438V12.3053C16.8422 11.7242 17.3134 11.2527 17.8949 11.2527C18.4763 11.2527 18.9475 11.7242 18.9475 12.3053V27.7438C18.9475 28.325 18.4763 28.7965 17.8949 28.7965Z" fill="black"/>
<path d="M26.4776 28.7965H10.1756C9.5941 28.7965 9.12296 28.325 9.12296 27.7438V12.3053C9.12296 11.7242 9.5941 11.2527 10.1756 11.2527H25.6141C26.1952 11.2527 26.6667 11.7242 26.6667 12.3053V20.0246C26.6667 20.6057 26.1952 21.0772 25.6141 21.0772H11.2282V26.6912H26.4776C27.0587 26.6912 27.5302 27.1627 27.5302 27.7438C27.5302 28.325 27.0587 28.7965 26.4776 28.7965ZM11.2282 18.972H24.5615V13.3579H11.2282V18.972Z" fill="black"/>
<path d="M35.4386 40.0245H29.8246C29.2435 40.0245 28.772 39.553 28.772 38.9718V32.6109C26.592 31.2745 25.2632 28.928 25.2632 26.3403C25.2632 23.5292 26.8312 21.0025 29.3559 19.7463C29.6821 19.5839 30.0692 19.6017 30.379 19.7936C30.6888 19.9855 30.8772 20.324 30.8772 20.6886V24.9368C30.8772 25.9045 31.664 26.6912 32.6316 26.6912C33.5993 26.6912 34.386 25.9045 34.386 24.9368V20.6886C34.386 20.324 34.5744 19.9855 34.8842 19.7936C35.1946 19.6017 35.5818 19.5839 35.9074 19.7463C38.432 21.0025 40 23.5292 40 26.3403C40 28.928 38.6712 31.2745 36.4912 32.6109V38.9718C36.4912 39.553 36.0197 40.0245 35.4386 40.0245ZM30.8772 37.9192H34.386V31.992C34.386 31.5925 34.6121 31.2279 34.9699 31.0497C36.7736 30.152 37.8947 28.3469 37.8947 26.3403C37.8947 24.9827 37.3814 23.7177 36.4912 22.763V24.9368C36.4912 27.0647 34.7595 28.7965 32.6316 28.7965C30.5037 28.7965 28.772 27.0647 28.772 24.9368V22.763C27.8818 23.7177 27.3685 24.9827 27.3685 26.3403C27.3685 28.3469 28.4896 30.152 30.2933 31.0497C30.6511 31.2279 30.8772 31.5925 30.8772 31.992V37.9192Z" fill="black"/>
</svg>
