<svg width="189" height="258" viewBox="0 0 189 258" fill="none" xmlns="http://www.w3.org/2000/svg">
<path d="M172.647 1.61774L145.773 0H145.641C145.223 0.0220114 135.791 0.517225 128.528 6.31691C124.808 8.94709 122.376 13.1511 120.605 16.9586C118.459 21.5697 113.363 41.1808 111.305 49.2475H102.677C102.875 47.7398 102.941 46.1772 102.963 45.3408C102.985 45.2747 103.007 45.1977 103.018 45.1207C103.107 44.7355 102.952 44.3063 102.644 43.9321C102.567 43.8221 102.49 43.745 102.38 43.668C102.303 43.613 102.292 43.5249 102.204 43.4809C102.204 43.4809 102.193 43.4809 102.193 43.4699C101.951 43.3598 96.3275 40.6306 93.0919 40.3114C90.0436 40.0033 60.4396 39.5631 59.1859 39.5521C59.0759 39.5521 58.9548 39.5631 58.8448 39.5851C58.5916 39.6401 52.7039 41.0708 48.709 44.5923C45.7596 47.1895 44.6262 49.0825 45.0333 50.7111C45.1764 51.2834 45.5836 51.9987 46.574 52.4939C47.0913 53.4183 47.9497 54.4418 49.4572 55.1902C49.8644 55.3882 50.2936 55.5093 50.7338 55.6414C49.7764 57.8094 48.1587 62.7065 50.1506 68.0771C52.1535 73.4587 59.0867 87.2699 61.6617 92.3652C54.0903 92.4202 47.0031 92.8384 40.0368 93.8069C25.6974 95.8098 19.4904 101.059 19.3033 111.36C19.1382 120.34 20.2828 127.471 36.174 130.619C39.2995 131.235 45.3082 131.708 52.8797 132.082L53.0448 136.572L50.8658 137.563C50.4586 137.75 50.1725 138.113 50.0844 138.542C50.0624 138.663 49.5122 141.602 52.4615 144.364C54.9596 146.708 65.1283 151.748 66.2836 152.321C66.4377 152.398 66.6138 152.442 66.7899 152.464L88.5359 154.092L88.4038 161.4L87.5124 161.389C87.1273 161.389 86.7971 161.521 86.533 161.785C86.2689 162.038 86.1258 162.39 86.1148 162.753L85.8176 195.273C85.0473 195.945 83.8037 197.32 83.3745 199.444L79.2917 200.094C79.0936 199.807 78.8075 199.587 78.4333 199.532L36.6136 193.326C36.5696 193.315 36.5256 193.315 36.4925 193.315C34.9408 193.238 32.2227 193.722 31.8375 196.044C31.5514 197.772 31.7495 205.53 31.8045 207.621L7.87961 211.407C7.2193 211.506 6.73509 212.067 6.72407 212.728L6.41592 225.152C6.40491 225.461 6.51496 225.747 6.69104 225.989C2.86123 226.902 0 230.336 0 234.43C0 239.228 3.90672 243.134 8.70484 243.134C13.5029 243.134 17.4097 239.228 17.4097 234.43C17.4097 231.656 16.0781 229.202 14.0422 227.606L82.7782 218.957V219.727C82.7782 220.475 83.3835 221.092 84.1318 221.103L92.2535 221.257L100.023 237.94C95.6759 238.92 92.4186 242.783 92.4186 247.416C92.4186 252.786 96.7876 257.144 102.147 257.144C107.517 257.144 111.875 252.775 111.875 247.416C111.875 244.312 110.379 241.572 108.112 239.789C108.519 239.558 108.849 239.206 108.86 238.7L109.168 227.189C109.179 226.979 109.124 226.759 109.036 226.572L105.107 218.186L172.635 226.066C170.236 227.618 168.64 230.303 168.64 233.374C168.64 238.172 172.547 242.078 177.345 242.078C182.143 242.078 186.05 238.172 186.05 233.374C186.05 231.029 185.114 228.917 183.606 227.354L184.619 227.475C185.015 227.519 185.4 227.398 185.697 227.134C185.995 226.87 186.16 226.495 186.149 226.099L185.995 213.223C185.995 212.97 185.918 212.728 185.785 212.508L185.026 211.298C184.806 210.945 184.443 210.714 184.036 210.659L136.835 204.474C136.912 202.406 137.055 197.696 136.78 196.441C136.296 194.262 132.95 194.174 131.541 194.229C131.497 194.229 131.453 194.24 131.409 194.24L103.303 198.344C102.554 197.013 101.597 196 100.991 195.461L100.551 162.908C100.54 162.159 99.935 161.565 99.1977 161.554L98.7355 161.543V154.489C103.336 153.487 121.131 149.559 125.378 147.501C125.588 147.401 125.687 147.192 125.808 147.016C128.251 147.203 131.431 147.379 134.568 147.379C138.243 147.379 141.853 147.126 144.109 146.356C145.474 145.883 146.519 144.914 147.113 143.561C148.401 140.633 147.477 136.286 146.53 133.271L160.815 133.403H160.826C160.925 133.403 161.035 133.392 161.134 133.37C161.409 133.304 163.874 132.677 164.556 130.641C165.029 129.21 165.547 118.624 165.69 115.399C165.701 115.168 165.789 109.676 158.723 107.09C152.748 104.9 134.512 101.18 132.256 100.718C131.156 98.2532 130.077 95.832 129.076 93.554L149.05 95.2047H149.105C149.215 95.2047 150.172 95.2488 151.713 95.2488C154.497 95.2488 159.152 95.1167 164.05 94.4344C172.667 93.2238 175.77 88.3708 176.849 84.508C177.806 81.0965 180.755 68.98 181.416 66.2396C184.2 66.1296 186.863 65.4692 187.424 62.476C187.766 60.6382 187.215 59.5486 186.687 58.9544C185.686 57.8319 184.233 57.7989 183.837 57.8099C183.694 57.8099 183.474 57.7989 183.309 57.7989L188.646 22.0109C188.646 21.9779 188.657 21.9449 188.657 21.9009C188.668 21.7138 189.768 3.1595 172.623 1.6407L172.647 1.61774ZM177.357 239.503C173.968 239.503 171.217 236.752 171.217 233.363C171.217 229.973 173.968 227.222 177.357 227.222C180.747 227.222 183.498 229.973 183.498 233.363C183.498 236.752 180.747 239.503 177.357 239.503ZM123.102 18.127C124.643 14.7925 126.547 11.392 129.298 9.12495C129.342 9.09194 129.397 9.11395 129.43 9.08093C129.672 8.86083 129.947 8.69575 130.2 8.49767C131.62 7.51822 133.238 6.81389 135.142 6.59381C141.8 5.81246 169.532 8.18954 169.763 8.21155C169.994 8.24456 175.431 9.06994 175.431 17.3567C175.431 24.0697 172.228 41.8868 170.335 51.8036C169.323 50.6481 167.452 49.3385 163.909 48.7334C163.854 48.7224 163.799 48.7224 163.744 48.7113L127.305 46.8955C126.909 46.8955 119.799 46.9726 113.593 51.4516C115.287 44.7496 120.933 22.8168 123.101 18.1401L123.102 18.127ZM128.253 58.2733C127.229 58.6474 126.272 59.1317 125.347 59.5829C122.893 60.8044 120.483 61.8829 116.708 61.5528C117.886 60.9585 119.042 60.1001 120.274 59.1316C123.19 56.8536 126.503 54.2783 132.005 54.0583C141.272 53.6841 166.142 55.2248 169.622 55.4449C169.446 56.3253 169.314 56.9966 169.215 57.5359C153.301 57.3378 130.995 57.2498 128.243 58.2622L128.253 58.2733ZM70.5631 92.4553L57.423 64.9649C57.0048 63.6223 56.3555 60.1006 58.0833 58.648C60.5594 56.568 62.7163 56.3919 65.0715 56.3919C67.0854 56.3919 98.2732 57.0302 108.134 57.2393C108.112 57.2723 108.123 57.3054 108.101 57.3384C108.068 57.3934 108.024 57.4484 108.002 57.5145C107.947 57.6795 107.495 59.1542 108.464 60.7718C108.541 60.9039 108.673 61.0139 108.772 61.135C107.462 71.0394 108.574 82.4407 118.952 90.7051C119.084 90.8152 119.249 90.8152 119.403 90.8592C120.547 93.3574 121.747 95.9985 122.979 98.7059C118.412 97.4514 106.483 94.5349 90.9103 93.4784C83.5699 92.9832 76.8569 92.6091 70.54 92.433L70.5631 92.4553ZM111.414 63.1387C112.36 63.5679 113.439 63.9201 114.748 64.1512C114.957 64.1842 115.166 64.2172 115.375 64.2502C110.533 71.3813 115.728 82.8155 115.959 83.3218C116.047 83.5089 116.135 83.718 116.223 83.9051C112.184 78.5677 110.599 71.7557 111.414 63.1387ZM50.3575 52.486C51.6891 51.9798 53.274 51.1104 55.2988 49.9218C57.6538 48.5352 60.3282 46.9724 61.8687 46.8516C63.1342 46.7525 68.7028 46.7525 75.1628 46.7635C90.2508 46.7745 97.0407 46.7415 100.177 46.4554C100.133 47.2477 100.067 48.1832 99.9461 49.0746C99.8361 49.8339 98.2183 50.01 97.8551 50.01C97.613 50.01 73.5451 49.5588 68.8907 49.5588C63.9714 49.5588 62.1227 50.2081 58.7549 51.8148C55.3984 53.4105 52.6913 53.7187 50.7212 52.7392C50.5781 52.6622 50.5011 52.5741 50.369 52.4971L50.3575 52.486ZM53.6261 55.9966C55.519 55.9306 57.6101 55.3914 59.9101 54.3019C63.0026 52.8272 64.4772 52.31 68.8682 52.31C73.5012 52.31 97.5368 52.7612 97.8101 52.7612C98.7125 52.7612 99.9891 52.5301 101.013 51.8918C101.112 51.9138 101.178 52.0128 101.288 52.0128H110.598C110.488 52.442 110.411 52.7502 110.411 52.7722C110.268 53.3444 110.125 53.9387 109.993 54.533C102.927 54.3899 67.2939 53.6526 65.0824 53.6526C62.3861 53.6526 59.4917 53.8727 56.3113 56.5468C52.7568 59.5401 54.7486 65.659 54.8366 65.912C54.8587 65.967 54.8807 66.022 54.9027 66.0661L67.4925 92.3902C66.5791 92.3792 65.6547 92.3572 64.7633 92.3462C63.0355 88.9457 54.8698 72.8232 52.7459 67.1008C50.721 61.6533 53.2961 56.6129 53.6373 55.9748L53.6261 55.9966ZM22.0641 111.407C22.0972 109.657 22.3062 107.918 22.9005 106.268C25.1235 108.942 31.3963 110.923 42.0273 112.287C64.1255 115.149 124.323 115.479 124.929 115.479H124.94C125.699 115.479 126.315 114.862 126.315 114.114C126.315 113.355 125.71 112.739 124.951 112.727C124.345 112.727 64.3228 112.386 42.3903 109.558C27.8748 107.676 25.2885 105.046 24.8372 104.276C24.7381 104.1 24.7271 103.99 24.7381 103.935C24.9472 103.615 24.9802 103.241 24.8922 102.889C27.3793 100.028 31.9794 97.7058 40.4312 96.5282C55.3211 94.4372 70.7282 94.8664 90.7563 96.231C110.334 97.5627 124.079 101.888 124.223 101.932C124.311 101.954 124.399 101.954 124.476 101.965C129.274 112.54 134.193 123.567 137.121 130.467C127.601 130.5 50.8527 130.709 36.7212 127.914C21.8204 124.964 21.9415 118.681 22.0736 111.406L22.0641 111.407ZM138.122 133.219C138.166 133.219 138.199 133.175 138.243 133.164C139.024 135.068 139.564 136.476 139.707 137.071C139.993 138.204 139.96 139.062 139.641 139.448C139.3 139.844 138.562 139.8 138.562 139.811C138.518 139.811 138.474 139.8 138.441 139.8L129.34 139.679V133.23C134.259 133.219 137.484 133.208 138.122 133.208L138.122 133.219ZM54.3643 142.353C53.2528 141.308 52.9226 140.317 52.8236 139.701L55.3547 138.545C55.5418 138.457 55.6849 138.347 55.8169 138.204H120.395L121.088 133.241H125.479H126.59V139.657L122.684 139.602H122.585C120.802 139.701 120.021 140.537 119.668 141.219C118.722 143.079 120.185 145.5 120.494 145.963C120.56 146.062 120.659 146.128 120.747 146.216C113.462 148.45 99.0889 151.564 97.2622 151.96L67.2722 149.726C64.0698 148.142 56.1792 144.048 54.3634 142.342L54.3643 142.353ZM34.379 196.442C34.4451 196.046 35.5786 195.815 36.3379 195.837L72.3146 201.185L34.3799 207.194C34.2699 203.331 34.1928 197.598 34.3909 196.442L34.379 196.442ZM8.72628 240.561C5.33681 240.561 2.58545 237.809 2.58545 234.42C2.58545 231.03 5.3367 228.279 8.72628 228.279C12.1159 228.279 14.8671 231.03 14.8671 234.42C14.8671 237.809 12.1159 240.561 8.72628 240.561ZM109.345 247.417C109.345 251.367 106.132 254.592 102.17 254.592C98.2195 254.592 94.9948 251.379 94.9948 247.417C94.9948 243.466 98.2082 240.241 102.17 240.241C106.121 240.241 109.345 243.455 109.345 247.417ZM131.719 196.751C132.742 196.718 133.931 196.883 134.316 197.103C134.437 198.016 134.404 201.131 134.305 204.102L106.396 200.449L131.73 196.751H131.719ZM101.608 201.582C101.696 202.198 102.18 202.671 102.796 202.748L183.066 213.269L183.275 213.599L183.407 224.527L103.774 215.239L98.9206 204.883C98.6015 204.201 97.7761 203.904 97.0938 204.223C96.4005 204.542 96.1143 205.368 96.4335 206.05L106.448 227.421L106.184 237.271H102.794L92.9999 216.241L93.286 207.778C93.3081 207.018 92.7138 206.38 91.9544 206.358C91.1951 206.325 90.5568 206.93 90.5348 207.69L90.2266 216.483C90.2156 216.703 90.2596 216.912 90.3587 217.11L90.986 218.464L85.5604 218.365V207.591C85.5604 206.831 84.9442 206.215 84.1848 206.215C83.4255 206.215 82.8092 206.831 82.8092 207.591V216.164L11.6165 225.122L9.21742 224.219L9.47053 213.919L84.8554 201.978C85.5047 201.879 85.9888 201.34 86.0109 200.68C86.1209 198.292 87.8817 197.125 87.9368 197.081C88.3329 196.828 88.575 196.399 88.5861 195.926L88.8722 164.121L97.8193 164.231L98.2595 196.07C98.2705 196.499 98.4686 196.895 98.8097 197.159C98.8317 197.181 101.242 198.997 101.605 201.55L101.608 201.582ZM91.1749 161.424L91.3069 154.282L95.9842 154.634V161.479L91.1751 161.413L91.1749 161.424ZM157.798 109.646C160.12 110.493 161.363 111.692 162.068 112.771L152.625 113.035C151.866 113.057 151.272 113.684 151.294 114.444C151.316 115.192 151.921 115.786 152.669 115.786H152.713L162.959 115.5C162.673 121.85 162.233 128.849 161.98 129.73C161.859 130.093 161.187 130.456 160.681 130.61L145.582 130.467C145.483 130.225 145.395 130.005 145.351 129.906C145.241 129.664 139.386 116.612 133.675 103.78C139.056 104.903 152.956 107.863 157.82 109.646L157.798 109.646ZM122.923 79.4471C120.964 74.627 121.745 71.9306 121.767 71.8427C123.825 64.2932 130.274 65.1297 130.527 65.1627C130.582 65.1737 130.648 65.1737 130.703 65.1737C131.969 65.2067 154.056 65.7239 167.438 66.01C166.084 71.5787 162.662 83.9592 159.767 87.6459C156.466 91.8279 149.962 92.3671 149.203 92.4221L127.82 90.6502C125.388 85.1698 123.517 80.8777 122.923 79.4361L122.923 79.4471ZM174.217 83.739C172.962 88.2069 169.419 90.8813 163.685 91.6845C161.968 91.9267 160.274 92.0917 158.678 92.2018C159.856 91.4424 160.989 90.54 161.924 89.3515C165.71 84.5424 169.584 68.9152 170.266 66.076C173.755 66.142 176.352 66.197 177.21 66.197C177.672 66.197 178.146 66.208 178.608 66.2191C177.727 69.8398 175.086 80.6466 174.217 83.7501L174.217 83.739ZM183.945 60.5293C184.121 60.5183 184.496 60.5734 184.661 60.7605C184.815 60.9365 184.848 61.3767 184.738 61.938C184.463 63.4127 182.658 63.5447 178.905 63.4677C178.344 63.4567 177.772 63.4457 177.199 63.4457C173.304 63.4457 132.982 62.4883 130.847 62.4332C127.666 61.993 121.25 63.2366 119.126 71.0502C119.005 71.4134 118.026 74.7259 120.37 80.4926C122.571 85.9071 141.984 129.201 142.809 131.029C142.897 131.238 143.007 131.513 143.117 131.788C143.117 131.81 143.095 131.81 143.095 131.832C143.095 132.206 143.238 132.548 143.491 132.801C144.482 135.607 145.648 140.053 144.603 142.419C144.306 143.08 143.865 143.498 143.216 143.729C138.385 145.391 125.619 144.246 122.494 143.938C122.207 143.333 122.02 142.694 122.097 142.507C122.097 142.507 122.229 142.397 122.681 142.375L138.341 142.573C138.781 142.606 140.52 142.639 141.697 141.286C142.666 140.163 142.897 138.534 142.369 136.421C141.136 131.502 119.368 84.2031 118.444 82.1887C118.389 82.0677 113.15 70.5235 118.356 64.9109C118.477 64.7789 118.576 64.6248 118.631 64.4597C122.02 64.3277 124.397 63.1501 126.554 62.0716C127.457 61.6204 128.304 61.2022 129.185 60.8721C131.826 59.9036 164.105 60.1678 183.834 60.5529H183.933L183.945 60.5293ZM185.937 21.6368L180.556 57.7233C178.278 57.6793 175.384 57.6353 172.016 57.5913C173.337 50.9002 178.179 25.9194 178.179 17.3464C178.179 6.55059 170.178 5.48312 170.057 5.47214C169.111 5.3951 150.655 3.81039 140.233 3.70032C143.084 2.974 145.296 2.79792 145.692 2.77591L172.445 4.38264C186.586 5.6372 186.014 20.5051 185.948 21.6605L185.937 21.6368Z" fill="#D7BB90"/>
</svg>
