<svg width="143" height="264" viewBox="0 0 143 264" fill="none" xmlns="http://www.w3.org/2000/svg">
<path d="M6.21107 26.5775C7.32736 26.0623 8.18605 26.2913 8.70126 26.5775C10.9911 27.8083 9.58858 30.4416 8.35779 32.7315C7.55635 34.2198 6.64041 35.9372 6.41144 37.397C6.32556 37.9694 6.2397 38.5419 6.15382 39.1144C5.69586 42.3201 5.35239 44.8676 3.69225 45.7835C3.32016 45.9839 2.94806 46.0697 2.51871 46.0697C2.08937 46.0697 1.71727 45.9839 1.31656 45.7835C-1.57436 44.4668 -0.429443 38.0553 0.515106 34.3916C1.03032 32.0731 3.72087 27.6652 6.21107 26.5489V26.5775ZM2.4901 42.8353C2.83357 41.9194 3.1198 39.973 3.29153 38.7136C3.3774 38.1126 3.46327 37.5115 3.54913 36.939C3.864 34.9927 4.89442 33.0749 5.81035 31.3576C6.06796 30.871 6.41144 30.2413 6.64043 29.726C5.43826 30.8423 3.7495 33.3612 3.34879 35.0785C2.54733 38.1984 2.20387 41.5473 2.4901 42.8353ZM-39.1562 127.588C-39.6715 128.046 -40.4729 129.105 -41.3316 130.192C-43.9363 133.599 -45.9685 136.032 -48.0866 136.203C-48.1439 136.203 -48.2297 136.203 -48.287 136.203C-49.0025 136.203 -49.6609 135.946 -50.2047 135.402C-53.2673 132.425 -48.2583 126.414 -43.5356 121.491C-42.9917 120.919 -42.4193 120.26 -41.8468 119.631C-39.6429 117.14 -37.7251 114.936 -35.5784 115.08C-34.9201 115.108 -34.0041 115.394 -33.2313 116.482C-30.9415 119.716 -37.1813 125.785 -39.1562 127.559V127.588ZM-35.7501 117.999C-36.4943 117.999 -38.5552 120.318 -39.6428 121.577C-40.2439 122.235 -40.8164 122.922 -41.4175 123.523C-49.0884 131.509 -48.2011 133.284 -48.2583 133.312C-47.2852 133.255 -44.6805 129.878 -43.5928 128.446C-42.6196 127.187 -41.7896 126.071 -41.074 125.441C-37.811 122.493 -35.4066 119.058 -35.607 118.171C-35.6356 118.114 -35.7215 117.999 -35.7215 117.999H-35.7501ZM17.7461 69.5978C20.4367 72.5459 15.2273 78.7857 13.5958 80.6176C13.1951 81.0756 12.5367 82.1632 11.907 83.2223C9.90343 86.6284 8.30055 89.0614 6.26833 89.4621C6.09659 89.4907 5.92485 89.5193 5.75311 89.5193C5.15202 89.5193 4.55095 89.319 4.03574 88.9182C0.658234 86.3136 4.66544 80.1882 8.52953 75.1792C8.9875 74.6068 9.41684 73.9485 9.8748 73.3187C11.5636 70.9144 13.1378 68.6246 15.1987 68.5101C15.8284 68.4815 16.8302 68.6246 17.7461 69.655V69.5978ZM15.5994 71.5441C15.4563 71.401 15.399 71.3724 15.399 71.3724C14.7121 71.401 13.1092 73.7195 12.2505 74.9503C11.7639 75.6372 11.306 76.3242 10.8194 76.9252C4.46507 85.1973 5.81035 86.6284 5.72449 86.6284C6.6118 86.4853 8.55815 83.165 9.38821 81.7625C10.161 80.4745 10.7907 79.3582 11.4204 78.6999C14.0538 75.7803 15.9142 72.3169 15.5994 71.5441ZM-83.4359 89.4335C-83.4359 89.4335 -83.579 89.4621 -83.6363 89.4907C-84.3805 89.6052 -85.096 89.1472 -85.2964 88.4316C-85.4681 87.8306 -89.1032 73.4332 -77.9975 58.6638C-75.7363 55.6584 -74.7059 53.3113 -73.79 51.2791C-72.1012 47.5009 -70.7846 44.4955 -63.772 40.1448C-58.3336 36.7673 -53.5822 35.7655 -49.6036 37.0821C-46.2547 38.1984 -44.3943 40.7459 -43.5928 42.177C-41.4461 41.948 -36.8664 41.8335 -34.5766 44.4382C-33.2027 46.0125 -32.9165 48.1306 -33.7465 50.8211C-34.2617 52.4813 -35.149 54.1414 -36.2367 55.7443C-29.4531 62.6996 -24.301 74.0343 -20.5227 82.4208C-19.4351 84.7965 -18.4905 86.9433 -17.6032 88.7179C-14.9985 85.8556 -11.9072 83.6802 -8.81596 82.6498C-12.1362 75.351 -16.2293 64.2167 -6.58337 59.4653C-2.40443 57.4044 0.944458 56.5171 3.57777 56.2022C-5.35258 50.678 -15.4851 43.5509 -18.4905 39.4292C-20.1793 37.1108 -25.4459 29.0105 -22.6981 22.1123C-21.0379 17.9906 -16.8876 15.3001 -10.333 14.0979C-3.74969 12.8958 0.286133 14.4128 2.34698 15.6436C2.57596 14.928 2.63321 14.3842 2.69046 13.7831C2.80495 12.5523 2.94806 11.1784 4.37921 8.71682C6.32556 5.42519 12.8802 -1.98815 32.1434 0.502045C37.6677 1.21762 43.2491 2.90637 48.2581 5.36794C48.7733 5.62555 49.1168 6.19801 49.0596 6.77046C49.0023 7.34292 48.6302 7.85813 48.0578 8.02987C36.4369 11.7222 26.8196 16.1874 24.7015 18.2769C25.9323 17.9906 28.4224 16.7599 30.3116 15.7867C34.2329 13.7831 39.0988 11.3215 43.3923 11.1211C47.7143 10.9208 53.124 11.0925 56.9023 11.2643C57.2171 11.2643 57.532 11.4074 57.7896 11.6077C63.7145 16.7312 67.4641 22.9424 68.6663 29.5829L68.7808 30.413C68.838 30.871 68.6949 31.3289 68.3801 31.6438C68.0652 31.9586 67.6072 32.1304 67.1493 32.0731L64.4587 31.701C62.2548 31.3862 59.1635 30.9568 55.8718 30.5561C57.2171 30.8423 58.4479 31.2717 59.5356 31.8441C62.4265 33.3612 65.4033 34.8209 68.3801 36.1662C68.8953 36.3952 69.2387 36.939 69.2387 37.5115C69.1529 41.719 68.5232 45.7263 67.779 49.4472C70.9847 42.3774 78.5984 38.685 90.6201 38.5705C111.085 38.3702 114.091 38.5705 114.205 38.5705C114.835 38.6278 115.35 39.0571 115.493 39.6582C115.636 40.2593 115.408 40.889 114.864 41.2325C114.721 41.3183 99.4932 51.1074 95.5146 54.0269C92.5092 56.2595 90.6487 58.1772 89.79 59.2649C91.0208 58.5779 92.7668 57.3472 94.2838 56.3167C98.52 53.4258 103.815 49.7907 107.737 49.1038C114.205 47.9588 127.658 45.6118 137.819 65.5619C138.048 65.9913 138.02 66.5351 137.762 66.9645C137.504 67.3938 137.046 67.6514 136.56 67.68C124.796 68.0807 111.4 69.4547 108.28 71.1148C110.141 71.5728 115.179 71.3151 118.642 71.1434C126.742 70.7141 135.129 70.2847 137.676 73.7195C142.513 80.2169 142.113 89.2045 141.798 96.3888C141.626 100.339 141.454 104.46 142.542 105.405C142.571 105.434 142.599 105.491 142.628 105.52C142.742 105.634 142.828 105.749 142.886 105.892C142.914 105.949 142.943 106.035 142.943 106.092C142.971 106.235 143 106.378 143 106.55C143 106.607 143 106.636 143 106.693C143 106.693 143 106.722 143 106.75C142.971 106.922 142.886 107.094 142.8 107.266C142.8 107.266 142.8 107.323 142.771 107.351C142.657 107.495 142.513 107.609 142.342 107.695C142.313 107.695 142.284 107.752 142.256 107.781C138.363 109.698 118.671 119.115 113.747 117.856C107.765 116.282 103.1 103.716 101.783 97.8772C101.525 96.7895 101.296 95.7019 101.067 94.6428C100.38 91.4371 99.35 86.657 98.4055 85.7411C97.4037 88.5461 100.667 103.258 103.443 108.01C106.42 113.133 106.22 116.339 106.162 116.682C106.076 117.427 105.447 117.999 104.731 117.999C104.674 117.999 104.645 117.999 104.588 117.999C103.615 117.913 81.747 115.795 68.0079 106.006C67.8362 107.58 67.8076 108.697 67.8076 108.725C67.8076 108.725 67.8076 108.754 67.8076 108.783C67.8076 108.926 67.7504 109.069 67.7217 109.212C67.7217 109.269 67.7217 109.326 67.6645 109.355C67.5786 109.498 67.4927 109.641 67.3496 109.756C67.6359 109.784 67.9221 109.842 68.2656 109.956C74.9347 112.16 90.5628 119.831 96.3446 129.506C96.6309 129.992 96.6022 130.593 96.2874 131.08C95.9725 131.538 95.4001 131.767 94.8276 131.681C89.5896 130.736 84.4661 130.307 82.1477 130.536C82.9777 130.937 84.1799 131.423 85.2103 131.824C90.3625 133.856 98.1479 136.947 100.838 144.046C104.731 154.379 104.245 168.49 104.216 169.062C104.216 169.692 103.758 170.236 103.128 170.408C102.499 170.579 101.869 170.293 101.525 169.749C100.295 167.717 98.978 165.599 97.6613 163.567C99.8939 167.946 101.296 172.812 99.4645 177.249C95.3428 187.181 88.9027 196.14 88.6451 196.512C88.6451 196.54 88.5878 196.569 88.5592 196.598C88.4733 196.684 88.3875 196.769 88.273 196.855C88.2157 196.884 88.1585 196.941 88.1012 196.97C87.9868 197.027 87.8436 197.056 87.7291 197.084C87.7005 197.084 87.6433 197.113 87.6147 197.113C87.586 197.113 87.5288 197.113 87.5002 197.113C87.4143 197.113 87.357 197.113 87.2712 197.113C87.2139 197.113 87.1853 197.084 87.1281 197.056C87.0422 197.056 86.9563 196.998 86.8418 196.941C86.756 196.884 86.6701 196.855 86.6129 196.798C86.5556 196.769 86.527 196.741 86.4697 196.712C86.1835 196.426 79.3713 189.471 80.8883 182.2C81.6325 178.651 82.6915 176.504 83.6074 175.245C80.2013 173.528 73.9043 169.606 74.3336 164.254C74.5054 162.307 74.4481 159.674 74.0474 156.898C72.5876 156.239 70.355 154.923 67.092 152.976C62.6268 150.314 53.4389 144.933 51.378 144.933C52.2081 146.765 58.1044 151.373 61.7109 154.207C68.0652 159.216 71.7003 162.136 72.0438 164.311C73.0456 170.35 71.7003 178.794 60.3943 185.664C60.6232 185.921 60.795 186.265 60.795 186.637C60.795 188.784 59.4783 190.615 57.3889 192.161L47.4853 248.033C47.4853 248.176 47.4281 248.348 47.3995 248.491C47.3995 248.491 47.3708 248.606 47.3422 248.663C45.1669 257.049 29.8536 263.346 10.6763 263.346C-8.5011 263.346 -24.4155 256.792 -26.1042 248.176C-26.1042 248.176 -26.1042 248.176 -26.1042 248.148L-37.2099 191.76C-39.0131 190.301 -40.0722 188.669 -40.1867 186.866C-40.1867 186.809 -40.2153 186.78 -40.2153 186.723L-41.532 169.721C-41.532 169.721 -41.532 169.692 -41.532 169.663C-41.532 169.663 -41.532 169.635 -41.532 169.606C-41.532 168.433 -41.1026 167.288 -40.3012 166.229C-40.4443 166.315 -40.5874 166.4 -40.7591 166.429C-41.2457 166.515 -41.7323 166.372 -42.0472 166C-57.2173 150.4 -59.1064 138.035 -60.4517 119.516C-61.6252 103.487 -53.6395 93.9272 -37.3816 91.895C-30.5694 91.0363 -26.7625 95.6446 -24.53 98.3924C-24.2151 98.7645 -23.843 99.2225 -23.5281 99.566C-23.4423 99.3656 -23.3564 99.108 -23.2705 98.7645C-22.5263 96.074 -21.1524 93.4693 -19.4637 91.1222C-20.5227 89.09 -21.6963 86.5139 -23.0415 83.5658C-26.6767 75.4941 -31.6284 64.646 -37.8969 58.0341C-42.9631 64.0735 -50.3192 68.7677 -50.7485 69.0253C-51.2065 69.3115 -51.779 69.3115 -52.2369 69.0253C-52.6949 68.7677 -52.9811 68.2525 -52.9525 67.7087C-52.8666 65.333 -53.0384 62.8141 -53.3818 61.612C-53.6681 62.2703 -53.6394 63.4152 -53.5536 65.1898C-53.4105 68.4815 -53.1529 73.4619 -56.1869 79.5585C-58.076 83.3654 -60.3086 87.5443 -62.3122 91.2653C-64.831 95.9309 -67.9223 101.684 -68.1799 102.972C-68.1799 103.115 -68.1799 103.23 -68.2085 103.344C-68.2085 103.401 -68.2371 103.459 -68.2657 103.545C-68.2657 103.63 -68.2944 103.716 -68.323 103.802C-68.3516 103.917 -68.4089 104.003 -68.4947 104.088C-68.5234 104.146 -68.552 104.203 -68.5806 104.231C-68.5806 104.231 -68.6092 104.231 -68.6379 104.26C-68.7237 104.346 -68.8382 104.432 -68.9527 104.489C-69.01 104.518 -69.0386 104.575 -69.0958 104.575C-69.2389 104.632 -69.382 104.661 -69.5252 104.661C-69.5538 104.661 -69.611 104.661 -69.6397 104.661C-69.7255 104.661 -69.84 104.661 -69.9831 104.661C-72.0726 104.661 -80.8885 104.46 -84.0084 100.911C-84.9529 99.8522 -85.325 98.5642 -85.1533 97.1903C-84.8384 94.7859 -84.2087 92.0668 -83.2928 89.2903L-83.4359 89.4335ZM9.13062 59.5511C9.13062 59.5511 4.57956 57.1754 -5.29535 62.0699C-12.7945 65.7623 -9.33118 74.7785 -5.15224 83.6516C-4.6084 84.7965 -4.12181 85.7983 -3.77834 86.657C-2.37581 90.0345 4.8658 95.5301 11.077 99.1652C11.1342 99.1939 11.2201 99.1939 11.306 99.2511C11.4204 99.3084 11.5063 99.3942 11.6208 99.4801C15.1987 101.541 18.3472 102.943 19.6638 102.858C21.2095 102.772 21.4385 102.543 21.8392 98.6214C21.9823 97.1903 22.1827 95.4443 22.612 93.412C23.7855 87.7733 26.8196 81.0756 29.7964 79.6158C30.9127 79.072 31.8 79.2723 32.3438 79.5299C34.7767 80.6748 33.7463 83.7947 32.3438 88.0882C31.3134 91.2081 30.0253 95.0722 29.7391 98.9076C29.6532 100.31 29.9681 101.398 30.7409 102.199C33.2025 104.775 39.6713 104.604 43.9933 104.489C44.8234 104.489 45.6248 104.46 46.3118 104.46C50.3476 104.46 57.9327 105.72 62.6268 106.579C54.8414 97.362 31.6855 70.3706 22.7837 64.7891C20.1218 64.4743 18.2899 64.1308 17.2309 63.7301C15.628 63.1004 12.7085 61.5834 9.2451 59.5797H9.21648L9.13062 59.5511ZM10.0179 101.827C7.72809 100.711 3.52052 101.255 -1.23088 103.287C-5.38121 105.062 -8.30074 107.208 -9.30255 108.296C-7.8714 108.611 -4.83737 108.811 -2.28993 108.983C6.21107 109.527 17.832 110.3 22.2685 115.652C23.7283 117.398 24.4152 119.344 24.7015 121.319C31.2561 121.548 37.038 128.561 39.5281 132.082C42.5336 127.989 47.8574 125.183 51.6929 124.439C51.5211 123.495 51.4353 122.493 51.4353 121.462C51.4353 116.625 51.8646 113.648 54.0113 112.733C55.9577 111.931 58.3907 113.105 63.0562 117.398C62.8272 114.793 62.8845 111.788 64.6018 110.385C64.7736 110.242 64.9739 110.099 65.2315 109.985C62.2548 109.412 51.1491 107.323 46.2545 107.323C45.5962 107.323 44.8234 107.323 44.0219 107.351C38.9271 107.466 31.9431 107.638 28.6228 104.146C27.2775 102.714 26.6478 100.883 26.8196 98.65C27.1058 94.4425 28.4797 90.378 29.5674 87.115C30.1398 85.4262 30.8554 83.1937 30.9127 82.2205C29.596 83.0219 26.7337 87.8592 25.4457 93.9559C25.045 95.8164 24.8732 97.4479 24.7301 98.879C24.358 102.428 24.0145 105.491 19.807 105.691C19.7497 105.691 19.6925 105.691 19.6638 105.691C17.7461 105.691 14.111 104.117 10.1324 101.799C10.1324 101.799 10.1038 101.799 10.0752 101.799L10.0179 101.827ZM15.7139 145.592C22.9555 143.359 29.4529 140.497 29.9967 139.094C29.6532 138.35 25.9609 137.749 23.9573 137.434C22.7551 137.234 21.5243 137.033 20.3508 136.776C18.7479 139.123 16.9447 140.897 15.4563 141.069C14.7121 141.155 13.7961 140.84 12.5367 140.096C13.882 141.499 14.9697 143.388 15.6853 145.592H15.7139ZM24.4439 134.6C28.1076 135.201 31.2561 135.688 32.4583 137.549C32.9163 138.264 33.0307 139.123 32.7731 140.01C31.8286 143.33 21.8678 146.765 16.4295 148.425C16.6298 149.542 16.7443 150.715 16.7443 151.889C16.7443 156.239 15.4277 159.789 13.0519 161.678C11.7353 162.737 10.2469 164.626 8.84438 166.801L10.5904 169.148C14.2827 164.769 24.0432 158.501 29.3384 156.984C31.4565 156.382 32.9735 156.411 34.0039 157.155C35.0057 157.871 35.0916 158.758 35.0916 159.245C34.9771 161.449 31.9145 163.309 26.0754 166.715C22.7837 168.633 19.0341 170.78 16.8588 172.755C16.6584 172.926 16.4008 173.241 16.4008 173.957C16.3436 178.966 26.5333 190.158 32.0576 195.653C34.8626 185.606 37.2097 152.776 38.1543 135.201C36.0648 131.853 30.3974 124.611 24.9305 124.239C24.7873 127.073 23.9573 129.706 23.2417 131.538C22.8982 132.425 22.4689 133.312 21.9823 134.171C22.8124 134.314 23.6424 134.457 24.4725 134.6H24.4439ZM2.28973 178.88C2.28973 178.88 2.23248 178.966 2.20386 178.995C2.14661 179.109 2.06075 179.224 1.94626 179.309C1.88901 179.367 1.83176 179.424 1.7459 179.453C1.68864 179.481 1.66002 179.538 1.60278 179.567C1.54553 179.567 1.4883 179.567 1.43105 179.596C1.37381 179.596 1.31656 179.653 1.25931 179.682C1.17345 179.682 1.05894 179.71 0.973068 179.71C0.744095 179.71 0.515106 179.624 0.314743 179.51C0.257507 179.51 0.228882 179.453 0.171631 179.424C0.114395 179.395 0.0571442 179.367 0.0285187 179.338C-1.83197 177.678 -6.69788 177.048 -11.85 176.39C-16.2579 175.817 -21.2383 175.159 -25.6462 173.728C-29.5103 172.469 -31.8574 170.837 -33.0309 168.547C-33.6034 167.46 -33.8324 166.257 -33.861 164.969C-36.9809 166.515 -38.7269 168.146 -38.7555 169.635C-38.6983 175.13 -18.4333 181.199 10.6476 181.199C12.5367 181.199 14.34 181.141 16.1718 181.084C14.5403 178.393 13.4813 175.875 13.5099 173.871C13.5099 172.526 14.0251 171.381 14.9124 170.551C17.2881 168.375 21.0091 166.229 24.6156 164.139C27.1344 162.679 30.7409 160.59 31.8858 159.388C31.4565 159.388 30.6264 159.502 29.2239 159.989C22.8696 162.279 13.0519 169.492 12.0215 172.125C11.8212 172.612 11.3918 172.955 10.848 173.012C10.3328 173.07 9.81757 172.869 9.50272 172.44L7.2415 169.377C4.52232 173.986 2.34697 178.737 2.31836 178.823L2.28973 178.88ZM67.8935 96.2457C70.8416 91.3798 72.1869 81.9342 70.2119 80.1882C68.9811 79.1292 63.1134 77.5836 58.8486 76.4387C51.2349 74.435 48.7161 73.6622 48.0292 72.2597C47.8574 71.8876 47.8288 71.172 48.0005 70.7999C48.5157 69.655 49.8324 68.7677 51.607 68.3384C54.5838 67.6514 57.7896 68.4529 60.1653 70.4851C62.6268 72.5459 68.8094 72.8608 72.1297 72.8322C73.5894 61.4116 70.2978 57.3758 66.4909 55.1146C66.3764 55.5725 66.262 56.0878 66.1475 56.5171C65.2888 59.9805 64.4873 63.2721 64.7736 64.5315C64.7736 64.5601 64.7736 64.5888 64.7736 64.6174C64.7736 64.7605 64.7736 64.875 64.7736 64.9895C64.7736 65.0753 64.7736 65.1326 64.7736 65.1898C64.7449 65.333 64.6591 65.4474 64.5732 65.5906C64.5732 65.6478 64.5446 65.6764 64.516 65.7337C64.4301 65.8195 64.3156 65.8768 64.2297 65.934C64.1725 65.9913 64.1152 66.0485 64.0294 66.0771C63.829 66.163 63.6286 66.2203 63.4283 66.2203C63.2279 66.2203 42.0183 66.2203 28.3652 65.2471C28.308 65.2471 28.2793 65.2185 28.2221 65.1898C39.2133 74.4923 58.5624 97.1616 65.2315 105.062C65.575 102.457 66.3192 98.9649 68.0079 96.1885L67.8935 96.2457ZM59.879 73.7195C59.278 73.4046 58.7341 73.0611 58.2762 72.6604C56.6447 71.2865 54.8987 70.9717 53.6965 70.9717C53.0668 70.9717 52.5802 71.0575 52.3226 71.1148C52.065 71.172 51.8074 71.2293 51.607 71.3151C53.4389 72.0021 56.8736 72.918 59.5642 73.6336C59.6787 73.6336 59.7645 73.6908 59.879 73.7195ZM24.4725 45.5259C24.5297 44.0661 24.5584 42.4346 24.5584 41.0893C23.8714 44.8389 23.4421 51.8516 24.3008 58.1772C24.5011 59.7801 24.6156 61.2399 24.6729 62.6138C25.3884 63.0717 26.1612 63.6728 26.9913 64.3312C25.8464 62.1558 24.5011 58.6638 24.3866 53.7121C24.3294 50.7353 24.3866 47.9875 24.4725 45.5259ZM-9.81776 16.9888C-15.3134 17.9906 -18.7195 20.0801 -20.0075 23.2286C-21.7821 27.608 -19.1775 33.6188 -16.172 37.7691C-12.9949 42.1198 0.915833 51.4795 10.4473 57.0323C10.5045 57.0609 10.5618 57.0896 10.5618 57.0896C13.8248 58.9787 16.5439 60.4098 18.1755 61.0395C18.662 61.2113 19.6352 61.4975 21.6961 61.7551C21.6388 60.7533 21.5243 59.6656 21.3812 58.5207C20.3508 50.7066 20.9805 39.0285 23.1845 36.5097C23.7569 35.8513 24.3866 35.7369 24.7874 35.7369C25.3884 35.7369 25.9323 35.9658 26.333 36.3952C27.5065 37.626 27.5065 40.0875 27.3348 45.5831C27.2489 47.9875 27.1917 50.7353 27.2489 53.5976C27.3348 57.5761 28.308 60.5243 29.2525 62.4134C39.2133 63.0717 52.8092 63.2435 59.3925 63.3007C52.2367 57.0896 34.0039 41.3183 28.079 35.9945C20.8088 29.4684 2.43285 19.3073 2.26111 19.1928C2.14662 19.1356 2.06075 19.0497 1.97488 18.9638C1.94626 18.9638 1.91763 18.9352 1.88902 18.9066C1.7459 18.7635 -1.43124 15.4146 -9.81776 16.9316V16.9888ZM58.133 34.4202C54.8414 32.6742 48.9737 32.7028 44.3082 32.7315C38.784 32.7601 35.8644 32.7028 34.5191 31.1286C34.0039 30.5561 33.8036 29.8405 33.9181 29.0391C34.4333 25.6043 41.0738 25.5471 64.8308 28.8387L65.5464 28.9246C64.287 23.5149 61.0812 18.42 56.2439 14.1266C52.5516 13.9548 47.5426 13.8117 43.5067 14.0121C39.8144 14.1838 35.2633 16.5023 31.5996 18.3627C27.5351 20.4236 24.8446 21.7975 22.9555 20.9674C22.4403 20.7384 21.7819 20.2805 21.4957 19.2501C20.2649 15.0139 35.2347 9.28928 43.5926 6.42699C39.8144 4.90997 35.7785 3.85093 31.7713 3.33571C14.2541 1.0745 8.52953 7.34292 6.89803 10.148C5.78174 12.0371 5.69586 12.9244 5.58136 14.0407C5.4955 14.928 5.38101 15.9012 4.83717 17.3037C9.04474 19.6794 23.5279 27.98 30.054 33.8191C36.1793 39.3147 55.4139 55.9733 62.0258 61.6692C62.2834 60.0377 62.77 58.0627 63.3424 55.7157C64.5446 50.7925 66.033 44.7245 66.2906 38.3415C63.5428 37.0821 60.8236 35.7369 58.1617 34.3343L58.133 34.4202ZM49.861 29.8978C46.3404 29.5257 42.9915 29.2681 40.5013 29.2681C39.1561 29.2681 38.097 29.3539 37.3528 29.5257C38.784 29.8692 41.8752 29.8692 44.2509 29.8405C46.0828 29.8405 47.9719 29.8405 49.8324 29.8978H49.861ZM135.329 75.4655C133.698 73.2901 124.739 73.7481 118.785 74.063C110.713 74.4923 105.389 74.7499 104.932 71.5728C104.874 71.1148 104.932 70.3992 105.504 69.7123C108.28 66.392 125.941 65.2757 134.156 64.9322C125.168 49.0465 114.234 50.9642 108.252 52.0233C104.932 52.5958 99.9225 56.0305 95.9153 58.7783C90.9063 62.1844 88.6451 63.7587 87.1281 62.2417C86.6129 61.7265 86.3552 61.0109 86.4125 60.2381C86.6129 57.4617 91.1066 53.7407 93.7686 51.7657C96.545 49.7048 104.416 44.5813 109.254 41.4328C105.876 41.4328 100.151 41.4328 90.5914 41.5187C72.788 41.6904 70.0974 49.9052 69.3532 53.5689C71.872 55.458 74.0188 58.2345 74.9061 62.8141C91.4215 69.884 111.858 82.6212 138.878 102.743C138.764 100.94 138.821 98.8218 138.936 96.3316C139.222 89.5766 139.594 81.1901 135.358 75.4941L135.329 75.4655ZM103.042 114.936C102.813 113.734 102.241 111.874 100.838 109.498C98.3482 105.233 94.0834 89.4621 95.6291 84.7965C95.9153 83.9379 96.4019 83.3368 97.0888 83.0505C97.9189 82.6784 98.749 82.7071 99.5218 83.1078C101.64 84.1955 102.499 87.8019 103.844 94.0704C104.073 95.1294 104.302 96.1885 104.531 97.2761C106.277 104.918 110.856 114.164 114.406 115.108C117.068 115.795 129.547 110.643 138.764 106.264C111.944 86.1991 91.6505 73.3474 75.2782 66.1058C75.4213 68.4815 75.2782 71.2007 74.7916 74.4064C74.6771 75.0934 74.1333 75.6086 73.4463 75.6372C72.8166 75.6658 69.4677 75.8376 65.8899 75.351C68.9525 76.2669 71.0706 77.097 72.101 77.9557C76.0224 81.3904 73.3318 92.811 70.355 97.6768C69.4391 99.1939 68.838 101.054 68.4373 102.772C79.314 111.215 97.3751 114.164 103.014 114.879L103.042 114.936ZM90.6487 157.814C88.1871 154.121 86.8132 152.089 87.7291 150.458C88.044 149.856 88.6451 149.513 89.3034 149.513H89.3893C90.1907 149.513 92.4233 149.942 101.211 163.853C101.039 158.873 100.352 151.144 98.062 145.076C95.8294 139.18 88.7596 136.375 84.094 134.543C80.602 133.169 78.2836 132.253 78.3122 130.25C78.3122 129.62 78.6271 129.019 79.1423 128.59C81.0028 127.073 87.2139 127.616 91.8222 128.303C85.4107 120.661 72.7307 114.536 67.2924 112.761C66.8917 112.618 66.5768 112.618 66.4337 112.704C65.5178 113.448 65.9757 117.627 66.1475 119.001C66.2333 119.659 66.262 120.174 66.262 120.632C68.4659 123.352 77.6539 135.201 84.8382 150.858C90.7918 163.853 90.3338 180.855 89.5038 189.814C91.7077 186.293 94.5414 181.37 96.6595 176.19C99.0352 170.436 93.9689 162.851 90.6201 157.842L90.6487 157.814ZM86.3552 192.132C86.756 188.612 87.2139 182.601 86.985 175.789C86.8705 175.903 86.7846 176.018 86.6415 176.075C86.6415 176.075 84.7237 177.22 83.5788 182.773C82.8633 186.236 84.7237 189.814 86.3552 192.132ZM86.527 173.442C86.6701 173.499 86.756 173.613 86.8991 173.728C86.4984 166.515 85.2389 158.644 82.2049 152.032C74.3336 134.915 64.0866 122.522 63.6 121.892C56.9881 115.452 55.4711 115.309 55.1563 115.394C54.9559 115.509 54.3548 116.282 54.3548 121.434C54.3548 129.735 60.9095 134.744 67.8648 140.039L68.6377 140.64C75.8793 146.164 77.7397 156.926 77.11 164.454C76.7666 168.547 83.8078 172.325 86.5556 173.442H86.527ZM69.0384 164.769C68.6949 163.452 63.3138 159.245 59.7645 156.44C51.149 149.656 46.7411 146.021 48.6302 143.273C50.6625 140.325 56.5015 143.359 68.4087 150.458C70.126 151.488 71.7862 152.461 73.1315 153.205C72.0724 149.313 70.1547 145.449 66.8344 142.93L66.0616 142.329C60.4229 138.035 54.6697 133.599 52.4085 127.216C48.802 127.817 43.1633 130.965 40.9879 135.173C40.8734 137.491 40.2151 149.084 39.1847 161.821C39.7571 161.277 40.4727 160.991 41.2455 161.077C43.3636 161.22 45.3959 163.653 48.0292 167.059C48.8878 168.175 49.6893 169.206 50.2045 169.663C52.1795 171.438 58.4479 177.478 56.1581 180.712C55.3852 181.8 54.4407 182.086 53.811 182.114C53.7537 182.114 53.6965 182.114 53.6392 182.114C51.5498 182.114 49.6893 179.996 47.5426 177.563C46.9701 176.934 46.4263 176.275 45.8538 175.703C42.9915 172.726 40.0147 169.349 38.784 166.486C37.8394 177.134 36.6659 187.868 35.2633 194.222C36.8376 193.392 38.784 192.533 41.3028 191.446C44.9379 189.871 49.9183 187.725 56.1008 184.547C65.8612 179.538 70.2978 172.669 68.9811 164.712L69.0384 164.769ZM53.811 179.109C53.9827 178.222 51.607 174.787 48.3154 171.839C47.5998 171.209 46.7698 170.093 45.7966 168.833C44.6803 167.402 42.0756 164.025 41.2169 163.939C41.2169 163.939 40.1865 165.656 47.9719 173.757C48.5444 174.358 49.1454 175.045 49.7465 175.703C50.8628 176.962 52.9237 179.281 53.6679 179.281C53.6679 179.281 53.7251 179.252 53.811 179.109ZM57.4747 187.181C51.2063 190.415 46.1687 192.562 42.4763 194.165C41.1597 194.737 39.9861 195.224 38.9557 195.71C50.6625 193.421 57.0168 189.957 57.6465 187.095C57.5892 187.123 57.532 187.152 57.4747 187.209V187.181ZM-23.7571 245.858C-23.614 246.087 -23.5281 246.316 -23.5281 246.602C-23.5281 254.101 -7.92865 260.427 10.5331 260.427C27.7927 260.427 42.5622 254.874 44.394 248.033L44.4513 247.747C44.5372 247.375 44.5944 247.003 44.5944 246.631C44.5944 246.402 44.6517 246.173 44.7661 246.001L53.9541 194.136C47.5998 197.256 38.2974 198.916 32.8876 199.66C32.859 199.66 32.8304 199.66 32.8018 199.66C31.9717 199.775 31.2275 199.861 30.5978 199.947C26.5047 200.433 22.2113 200.748 17.7747 200.92C15.399 201.006 12.9375 201.063 10.4759 201.063C-6.72649 201.063 -24.673 198.573 -33.9182 193.878L-23.6712 245.858H-23.7571ZM10.4186 198.172C12.8516 198.172 15.2559 198.115 17.603 198.029C21.6961 197.886 25.6747 197.571 29.4815 197.142C26.6192 194.251 21.6961 189.07 18.061 183.946C15.628 184.032 13.1664 184.089 10.6476 184.089C-9.41704 184.089 -30.4263 180.912 -38.3548 174.93L-37.4675 186.522C-37.4675 186.522 -37.4675 186.551 -37.4675 186.58C-37.4675 186.58 -37.4675 186.608 -37.4675 186.637C-37.4675 192.104 -17.8036 198.201 10.4186 198.201V198.172ZM-33.6034 161.649C-33.1454 159.188 -32.2295 156.354 -31.1132 152.948C-29.5962 148.339 -27.4781 145.019 -25.7607 142.357C-23.4709 138.779 -22.326 136.833 -23.156 134.457C-26.0756 136.833 -33.8324 151.917 -39.8146 165.542C-38.4693 164.139 -36.4084 162.851 -33.632 161.649H-33.6034ZM-26.9056 100.253C-29.0237 97.6768 -31.9147 94.1276 -37.1526 94.8146C-51.8362 96.6464 -58.7343 104.918 -57.7039 119.373C-56.3586 138.178 -54.2691 148.855 -41.5892 162.479C-36.0363 150 -27.0488 131.337 -22.8126 131.309C-22.3832 131.309 -21.2956 131.452 -20.6945 132.797C-18.8054 136.947 -20.8948 140.182 -23.2992 143.931C-25.0165 146.593 -26.9629 149.627 -28.3654 153.921C-29.4817 157.356 -30.4263 160.218 -30.7984 162.565C-30.7984 162.765 -30.7984 162.937 -30.8842 163.109C-31.0846 164.74 -31.0273 166.114 -30.4549 167.202C-29.6534 168.748 -27.8502 169.95 -24.7589 170.952C-20.6086 172.297 -15.7427 172.926 -11.4779 173.499C-7.84279 173.986 -4.49391 174.415 -1.88922 175.216C-8.50111 158.501 -21.2669 111.817 -23.7285 102.8C-24.8734 102.629 -25.7894 101.598 -26.9056 100.253ZM-21.1811 101.14C-19.6354 106.779 -5.6102 158.415 1.03032 174.816C2.17523 172.526 3.92123 169.234 5.8676 166.143C7.6136 163.366 9.5027 160.819 11.2487 159.416C12.8802 158.128 13.8534 155.323 13.8534 151.917C13.8534 147.567 12.1933 143.388 9.76031 141.499C8.27193 140.354 6.1252 138.98 3.864 137.52C-2.57616 133.398 -6.8696 130.507 -7.44206 127.788C-7.6138 127.015 -7.44206 126.271 -7.04134 125.613C-6.66925 125.069 -6.09679 124.697 -5.43846 124.611C-3.00551 124.21 0.915833 127.302 7.09839 132.339C9.90343 134.629 14.1396 138.064 15.1414 138.207C15.7425 138.035 17.145 136.604 18.5762 134.314C18.5762 134.314 18.5762 134.314 18.5762 134.286C19.5207 132.769 20.4367 130.908 21.1236 128.79C22.1827 125.498 22.841 120.861 20.0646 117.513C16.4008 113.105 5.03754 112.36 -2.46167 111.874C-9.44566 111.416 -12.6514 111.215 -12.5656 108.725C-12.5083 106.722 -9.50291 104.518 -7.01271 103.001C-4.17905 101.312 0.515106 99.1652 4.89442 98.5642C-0.400818 94.929 -5.23808 90.6929 -6.44025 87.7733C-6.72649 87.0864 -7.12721 86.2563 -7.55655 85.3404C-12.5083 86.8288 -18.605 92.5533 -20.6086 99.6232C-20.7517 100.167 -20.9521 100.682 -21.1811 101.169V101.14ZM7.64221 136.49C6.92665 135.917 6.1252 135.287 5.26651 134.572C2.28973 132.139 -2.4903 128.246 -4.46527 127.559C-3.52072 129.334 2.23248 132.998 5.43825 135.058C6.18245 135.545 6.92665 136.003 7.64221 136.49ZM-53.296 58.3776C-52.8666 58.3776 -52.5232 58.4921 -52.2942 58.6066C-50.7485 59.3794 -50.2333 62.1844 -50.1188 65.0753C-46.1975 62.2703 -38.2976 56.0305 -36.4371 49.9624C-35.9219 48.3309 -36.0077 47.1002 -36.6661 46.356C-38.0972 44.7245 -42.0472 44.8962 -43.7359 45.1252C-46.5982 47.2433 -50.8344 52.0519 -54.9847 59.0645C-54.9847 59.0645 -54.9561 59.0359 -54.9275 59.0073C-54.2978 58.5207 -53.7253 58.349 -53.2387 58.349L-53.296 58.3776ZM-64.9741 89.9773C-62.9991 86.2849 -60.7379 82.106 -58.8774 78.3564C-56.1869 72.9467 -56.3873 68.596 -56.559 65.4188C-56.6162 64.0163 -56.6735 62.6996 -56.4445 61.5834C-61.0528 69.9699 -65.3462 81.1042 -67.3498 94.4138C-66.6629 93.1258 -65.8901 91.666 -64.9741 89.9773ZM-70.4125 67.3366C-68.4947 65.934 -67.3212 65.5047 -66.348 65.9054C-65.3176 66.3061 -65.0314 67.1076 -64.9455 67.5369C-64.5734 69.5119 -66.7487 71.6014 -72.1299 76.5531L-73.5324 77.8698C-78.341 82.335 -81.4895 91.3226 -82.3768 97.7627C-82.4627 98.3066 -82.3196 98.7359 -81.9475 99.1652C-80.2874 101.054 -74.8777 101.799 -71.0994 101.913C-68.781 70.7427 -54.0115 49.7907 -46.1975 43.4078C-46.8272 42.3488 -48.1439 40.66 -50.4623 39.8872C-53.5822 38.8281 -57.5322 39.7727 -62.1977 42.6636C-68.4661 46.5563 -69.5538 49.0465 -71.0994 52.5099C-72.0726 54.7139 -73.1603 57.1754 -75.6505 60.4671C-81.5182 68.2525 -82.8921 76.0093 -83.0066 81.2759C-79.6291 75.6086 -73.3893 69.5692 -70.4125 67.3938V67.3366ZM-82.1193 86.0273C-81.7472 85.1686 -81.3751 84.31 -80.9743 83.4799C-81.4895 84.3958 -81.8903 85.2545 -82.1193 86.0273Z" fill="#D7BB90"/>
</svg>
