<svg xmlns="http://www.w3.org/2000/svg" version="1.1" viewBox="-5.0 -10.0 110.0 135.0">
 <path d="m93 67.5v-6.8008c0.60156-0.35156 1-0.98047 1-1.6992 0-1.1016-0.89844-2-2-2h-1v-22.5c0-3.5781-2.9219-6.5-6.5-6.5s-6.5 2.9219-6.5 6.5v1.3516c-1.1797 0.55859-2 1.7617-2 3.1484 0 0.28125 0.21875 0.5 0.5 0.5h6c0.28125 0 0.5-0.21875 0.5-0.5 0-1.3906-0.82031-2.5781-2-3.1484v-1.3516c0-1.9297 1.5703-3.5 3.5-3.5s3.5 1.5703 3.5 3.5v22.5h-47.5c-1.1016 0-2 0.89844-2 2 0 0.92969 0.64062 1.7109 1.5 1.9297v6.5703c0 5.3711 4.0508 9.8008 9.25 10.422v1.0781h-21.391v-5.2695c2.3984-1.4883 4-4.1406 4-7.1602v-4.7617c0.58984-0.35156 1-0.98047 1-1.7188 0-1.0898-0.87109-1.9688-1.9492-2l1.5781-17.52c0-0.03125 0.019531-0.050781 0.019531-0.078124 0-0.011719-0.011718-0.019532-0.011718-0.03125l0.058594-0.64844c0.089843-1.2383-0.35156-2.4805-1.1992-3.3906-0.84375-0.90234-2.0469-1.4219-3.2852-1.4219h-14.27c-1.2383 0-2.4492 0.51953-3.2891 1.4297-0.83984 0.91016-1.2812 2.1484-1.1914 3.3984l0.058594 0.64062c0 0.011719-0.011718 0.019531-0.011718 0.03125 0 0.03125 0.011718 0.050781 0.019531 0.078125l1.5781 17.52c-1.0938 0.023438-1.9648 0.90234-1.9648 1.9922 0 0.73828 0.41016 1.3789 1 1.7188v4.7617c0 3.0195 1.6016 5.6719 4 7.1602v5.2695h-7.5c-0.28125 0-0.5 0.21875-0.5 0.5v2c0 0.28125 0.21875 0.5 0.5 0.5h87c0.28125 0 0.5-0.21875 0.5-0.5v-2c0-0.28125-0.21875-0.5-0.5-0.5h-10.25v-1.0391c5.4414-0.39063 9.75-4.9219 9.75-10.461zm-11.051-29h-4.8984c0.17188-0.85938 0.78906-1.5508 1.6016-1.8516 0.019531-0.011719 0.039062-0.011719 0.058594-0.019532 0.25-0.078125 0.51953-0.14062 0.80078-0.14062s0.55078 0.050781 0.80078 0.14062c0.019531 0.011719 0.039062 0.011719 0.058594 0.019532 0.78906 0.30078 1.4102 0.99219 1.5781 1.8516zm2.5508-8.5c-2.4805 0-4.5 2.0195-4.5 4.5v1.0508c-0.16016-0.019531-0.32812-0.050781-0.5-0.050781s-0.33984 0.03125-0.5 0.050781v-1.0508c0-3.0312 2.4688-5.5 5.5-5.5s5.5 2.4688 5.5 5.5v22.5h-1v-22.5c0-2.4805-2.0195-4.5-4.5-4.5zm-23.91 28h31.41c0.55078 0 1 0.44922 1 1 0 0.42188-0.26953 0.80078-0.67969 0.94141-0.10156 0.039063-0.19922 0.058594-0.32031 0.058594h-31.41zm-11.59 0h10.59v10h-10.59zm0 11h10.59v2h-10.59zm-9.5-10c0-0.55078 0.44922-1 1-1h7.5v2h-7.5c-0.55078 0-1-0.44922-1-1zm-29.199-19.25c-0.070312-0.98047 0.26172-1.9219 0.92969-2.6289 0.66797-0.72266 1.5781-1.1211 2.5703-1.1211h14.27c0.98047 0 1.8906 0.39844 2.5586 1.1094 0.67188 0.71094 1 1.6484 0.92969 2.6289l-0.019532 0.26172h-21.211zm0.12109 1.25h21.031l-1.5391 17.09h-17.953zm-0.42188 19.09c0-0.55078 0.44922-1 1-1h19.859c0.55078 0 1 0.44922 1 1 0 0.55078-0.44922 1-1 1h-19.859c-0.55078 0-1-0.44922-1-1zm1 6.4805v-4.4805h19.859v4.4805c0 4.1016-3.3281 7.4297-7.4297 7.4297h-5c-4.1016 0-7.4297-3.3281-7.4297-7.4297zm15.859 7.6914v4.7383h-11.859v-4.7383c1.0508 0.46875 2.2109 0.73828 3.4297 0.73828h5c1.2188 0 2.3789-0.26953 3.4297-0.73828zm66.141 5.7383v1h-86v-1zm-42.75-1v-1h3v1zm4 0v-1h24v1zm25 0v-1h3v1zm3.25-2h-32c-5.2383 0-9.5-4.2617-9.5-9.5v-6.5h7v10.5c0 0.28125 0.21875 0.5 0.5 0.5h11.59c0.28125 0 0.5-0.21875 0.5-0.5v-10.5h31.41v6.5c0 5.2383-4.2617 9.5-9.5 9.5z"/>
 <path d="m77.09 41.219c-0.32812 0.47266-1.0898 1.6406-1.0898 2.2812 0 0.82812 0.67188 1.5 1.5 1.5s1.5-0.67188 1.5-1.5c0-0.64062-0.76172-1.8086-1.0898-2.2812-0.19141-0.26953-0.62891-0.26953-0.82031 0zm0.41016 2.7812c-0.28125 0-0.5-0.21875-0.5-0.5 0-0.14844 0.21094-0.58984 0.5-1.0703 0.28906 0.48047 0.5 0.92187 0.5 1.0703 0 0.28125-0.21875 0.5-0.5 0.5z"/>
 <path d="m80.5 49c0.82812 0 1.5-0.67188 1.5-1.5 0-0.64062-0.76172-1.8086-1.0898-2.2812-0.19141-0.26953-0.64062-0.26953-0.82031 0-0.32812 0.47266-1.0898 1.6406-1.0898 2.2812 0 0.82812 0.67188 1.5 1.5 1.5zm0-2.5703c0.28906 0.48047 0.5 0.92187 0.5 1.0703 0 0.28125-0.21875 0.5-0.5 0.5s-0.5-0.21875-0.5-0.5c0-0.14844 0.21094-0.58984 0.5-1.0703z"/>
 <path d="m89.789 68.93c-0.26953-0.058594-0.53906 0.10156-0.60156 0.37109-0.87891 3.6484-3.5781 5.5703-8.0117 5.7109-0.28125 0.011719-0.48828 0.23828-0.48047 0.51953 0.011719 0.26953 0.23047 0.48047 0.5 0.48047h0.019532c6.1484-0.19141 8.2617-3.6289 8.9492-6.4688 0.054688-0.27344-0.11328-0.54297-0.375-0.61328z"/>
 <path d="m12.5 22h22.5v30.5c0 1.3789 1.1211 2.5 2.5 2.5 0.82031 0 1.5391-0.39844 2-1.0195 0.46094 0.60938 1.1797 1.0195 2 1.0195s1.5391-0.39844 2-1.0195c0.46094 0.60938 1.1797 1.0195 2 1.0195s1.5391-0.39844 2-1.0195c0.46094 0.60938 1.1797 1.0195 2 1.0195s1.5391-0.39844 2-1.0195c0.46094 0.60938 1.1797 1.0195 2 1.0195s1.5391-0.39844 2-1.0195c0.46094 0.60938 1.1797 1.0195 2 1.0195s1.5391-0.39844 2-1.0195c0.46094 0.60938 1.1797 1.0195 2 1.0195s1.5391-0.39844 2-1.0195c0.46094 0.60938 1.1797 1.0195 2 1.0195s1.5391-0.39844 2-1.0195c0.46094 0.60938 1.1797 1.0195 2 1.0195 1.3789 0 2.5-1.1211 2.5-2.5v-30.5h17.5c0.28125 0 0.5-0.21875 0.5-0.5v-3c0-0.28125-0.21875-0.5-0.5-0.5h-77c-0.28125 0-0.5 0.21875-0.5 0.5v3c0 0.28125 0.21875 0.5 0.5 0.5zm26.5 30.5c0 0.82812-0.67188 1.5-1.5 1.5s-1.5-0.67188-1.5-1.5v-0.5h3zm0-1.5h-3v-29h3zm4 1.5c0 0.82812-0.67188 1.5-1.5 1.5s-1.5-0.67188-1.5-1.5v-0.5h3zm0-1.5h-3v-29h3zm4 1.5c0 0.82812-0.67188 1.5-1.5 1.5s-1.5-0.67188-1.5-1.5v-0.5h3zm0-1.5h-3v-29h3zm4 1.5c0 0.82812-0.67188 1.5-1.5 1.5s-1.5-0.67188-1.5-1.5v-0.5h3zm0-1.5h-3v-29h3zm4 1.5c0 0.82812-0.67188 1.5-1.5 1.5s-1.5-0.67188-1.5-1.5v-0.5h3zm0-1.5h-3v-29h3zm4 1.5c0 0.82812-0.67188 1.5-1.5 1.5s-1.5-0.67188-1.5-1.5v-0.5h3zm0-1.5h-3v-29h3zm4 1.5c0 0.82812-0.67188 1.5-1.5 1.5s-1.5-0.67188-1.5-1.5v-0.5h3zm0-1.5h-3v-29h3zm4 1.5c0 0.82812-0.67188 1.5-1.5 1.5s-1.5-0.67188-1.5-1.5v-0.5h3zm0-1.5h-3v-29h3zm4 1.5c0 0.82812-0.67188 1.5-1.5 1.5s-1.5-0.67188-1.5-1.5v-0.5h3zm0-1.5h-3v-29h3zm-58-32h76v2h-76z"/>
</svg>