<svg xmlns="http://www.w3.org/2000/svg" version="1.1" viewBox="-5.0 -10.0 110.0 135.0">
 <path d="m81.25 12.5h-62.5c-5.7422 0-10.418 4.6719-10.418 10.418v54.168c0 5.7422 4.6719 10.418 10.418 10.418h62.5c5.7422 0 10.418-4.6719 10.418-10.418v-54.168c0-5.7422-4.6719-10.418-10.418-10.418zm-62.5 4.168h62.5c3.4453 0 6.25 2.8047 6.25 6.25v6.25h-75v-6.25c0-3.4453 2.8047-6.25 6.25-6.25zm62.5 66.664h-62.5c-3.4453 0-6.25-2.8047-6.25-6.25v-43.75h75v43.75c0 3.4453-2.8047 6.25-6.25 6.25z"/>
 <path d="m18.75 25h29.168c1.1484 0 2.082-0.92969 2.082-2.082 0-1.1523-0.93359-2.082-2.082-2.082h-29.168c-1.1484 0-2.082 0.92969-2.082 2.082 0 1.1523 0.93359 2.082 2.082 2.082z"/>
 <path d="m66.668 22.918c0 2.7773-4.168 2.7773-4.168 0 0-2.7773 4.168-2.7773 4.168 0"/>
 <path d="m75 22.918c0 2.7773-4.168 2.7773-4.168 0 0-2.7773 4.168-2.7773 4.168 0"/>
 <path d="m83.332 22.918c0 2.7773-4.1641 2.7773-4.1641 0 0-2.7773 4.1641-2.7773 4.1641 0"/>
 <path d="m45.832 43.75h-25c-1.1484 0-2.082 0.92969-2.082 2.082 0 1.1523 0.93359 2.082 2.082 2.082h25c1.1484 0 2.082-0.92969 2.082-2.082 0-1.1523-0.93359-2.082-2.082-2.082z"/>
 <path d="m45.832 52.082h-25c-1.1484 0-2.082 0.92969-2.082 2.082 0 1.1523 0.93359 2.082 2.082 2.082h25c1.1484 0 2.082-0.92969 2.082-2.082 0-1.1523-0.93359-2.082-2.082-2.082z"/>
 <path d="m45.832 60.418h-25c-1.1484 0-2.082 0.92969-2.082 2.082s0.93359 2.082 2.082 2.082h25c1.1484 0 2.082-0.92969 2.082-2.082s-0.93359-2.082-2.082-2.082z"/>
 <path d="m33.332 68.75h-12.5c-1.1484 0-2.082 0.92969-2.082 2.082 0 1.1523 0.93359 2.082 2.082 2.082h12.5c1.1484 0 2.082-0.92969 2.082-2.082 0-1.1523-0.93359-2.082-2.082-2.082z"/>
 <path d="m80.238 41.176c-2.8086-2-6.7188-1.3477-8.7148 1.4609l-15.723 22.055c-0.32031 0.44922-0.44922 1.0078-0.35938 1.5508l0.97656 5.8125c0.089843 0.54687 0.39453 1.0312 0.84766 1.3516 0.35547 0.25391 0.77734 0.38672 1.2109 0.38672 0.11328 0 0.23047-0.011719 0.34766-0.027344l5.8086-0.97656c0.54297-0.089843 1.0312-0.39453 1.3516-0.84766l15.723-22.055c2-2.8047 1.3438-6.7148-1.4609-8.7188zm-2.418 3.3945c0.93359 0.66797 1.1523 1.9727 0.48828 2.9102l-1.207 1.6953-3.3945-2.418 1.2109-1.6992c0.66797-0.93359 1.9727-1.1523 2.9023-0.48438zm-14.734 24.254-2.9062 0.48828-0.48828-2.9102 11.59-16.262 3.3945 2.418-11.59 16.262z"/>
</svg>