<svg xmlns="http://www.w3.org/2000/svg" version="1.1" viewBox="-5.0 -10.0 110.0 135.0">
 <path d="m38.16 29.445h10.93c0.60156 0 1.0859-0.48828 1.0859-1.0859 0-3.2383-2.3672-5.9297-5.4648-6.4492v-17.312c0-0.60156-0.48828-1.0859-1.0859-1.0859-0.60156 0-1.0859 0.48828-1.0859 1.0859v17.312c-3.0977 0.51953-5.4648 3.2109-5.4648 6.4492-0.003907 0.59766 0.48438 1.0859 1.0859 1.0859zm5.4648-5.457c2.0391 0 3.7539 1.3984 4.2422 3.2852h-8.4805c0.48047-1.8867 2.1992-3.2852 4.2383-3.2852zm55.844 71.609-3.3398-14.016c0.66406-0.58594 1.0625-1.4375 1.0625-2.3477l-0.003906-34.43c0-1.4688-0.84375-2.7344-2.207-3.3008-1.3555-0.56641-2.8516-0.27344-3.8984 0.76172-3.2969 3.2969-4.8945 8.0234-4.2734 12.648l2.3281 17.164c0 0.007813 0.003906 0.11719 0.003906 0.125 0.085937 0.94531-0.73438 1.8242-1.6875 1.8008h-9.0859l-1.8555-7.7617h7.7695c0.60156 0 1.0859-0.48828 1.0859-1.0859v-6.0547c0-0.60156-0.48828-1.0859-1.0859-1.0859h-8.0234c1.7773-1.5781 2.9023-3.8711 2.9023-6.4258 0-0.60156-0.48828-1.0859-1.0859-1.0859l-18.688-0.007812c-0.60156 0-1.0859 0.48828-1.0859 1.0859 0 2.5547 1.1289 4.8477 2.9023 6.4258h-19.66c1.7773-1.5781 2.9023-3.8711 2.9023-6.4258 0-0.60156-0.48828-1.0859-1.0859-1.0859h-18.68c-0.60156 0-1.0859 0.48828-1.0859 1.0859 0 2.5547 1.1289 4.8477 2.9023 6.4258h-10.773c-0.60156 0-1.0859 0.48828-1.0859 1.0859v6.0547c0 0.60156 0.48828 1.0859 1.0859 1.0859h7.7695l-1.8555 7.7617h-9.0742c-1.0117 0.023437-1.8203-0.94141-1.6836-1.9297l2.3242-17.164c0.62109-4.6211-0.97656-9.3477-4.2773-12.648-2.1055-2.2578-6.2227-0.54297-6.1016 2.543v34.43c0 0.91016 0.39844 1.7578 1.0547 2.3438l-3.3477 14.027c-0.17578 0.66016 0.37891 1.3594 1.0586 1.3398h3.625c0.44922 0 0.85156-0.27344 1.0117-0.69141l5.4062-13.871h8l-3.1641 13.223c-0.078125 0.32422-0.003906 0.66406 0.20312 0.92578 0.20703 0.26172 0.52344 0.41406 0.85547 0.41406h4.6953c0.44922 0 0.85156-0.27344 1.0117-0.69141l1.8906-4.8555 1.8906 4.8555c0.16406 0.41797 0.56641 0.69141 1.0117 0.69141h3.6367c0.33203 0 0.64844-0.15234 0.85547-0.41406 0.20703-0.26172 0.28125-0.60156 0.20312-0.92578l-3.1602-13.223h1.0547c2.1641-0.24609 0.63672-3.8281-0.046876-4.9492l4.3555-11.184h30.156l4.3516 11.184c-0.67578 1.0898-2.207 4.7148-0.042969 4.9531h1.0547l-3.1602 13.223c-0.078125 0.32422-0.003906 0.66406 0.20312 0.92578 0.20703 0.26172 0.52344 0.41406 0.85547 0.41406h3.6367c0.44922 0 0.85156-0.27734 1.0156-0.69531l1.8828-4.8477 1.8867 4.8477c0.16406 0.41797 0.56641 0.69141 1.0117 0.69141h4.6953c0.33203 0 0.64844-0.15234 0.85547-0.41406 0.20703-0.26172 0.28125-0.60156 0.20312-0.92578l-3.1641-13.223h8l5.4062 13.871c0.16406 0.41797 0.56641 0.69141 1.0117 0.69141h3.625c0.67969 0.019531 1.2344-0.67969 1.0586-1.3398zm-38.902-42.926h16.32c-0.51953 3.0273-3.1602 5.3398-6.332 5.3398h-3.6562c-3.1719-0.003907-5.8125-2.3125-6.332-5.3398zm-34.707 0h16.32c-0.51953 3.0273-3.1602 5.3398-6.332 5.3398h-3.6562c-3.1719-0.003907-5.8164-2.3125-6.332-5.3398zm-21.391 42.09h-1.5l2.9531-12.387h3.3789zm1.4922-14.562c-0.13281 0-0.26563-0.03125-0.40234-0.09375-0.34375-0.15234-0.5625-0.49609-0.5625-0.875v-34.426c0.070312-1.418 1.5977-1.7891 2.3906-1 2.8203 2.8203 4.1875 6.8633 3.6562 10.816l-2.3164 17.129c-0.15234 1.1719 0.20313 2.3398 1.0117 3.2031 0.72656 0.77734 1.7578 1.2227 2.8242 1.2227h8.5547l-0.96094 4.0195zm24.328 14.562h-1.5117l-2.4805-6.3711c0.17969-0.46094 1.3242-3.3984 1.5312-3.9258zm-8.8047 0h-2.5742c1.9336-8.0781 4.9102-20.523 6.8203-28.523h6.8633c-3.4023 8.7305-7.7305 19.84-11.109 28.523zm-4.6719-30.695v-3.8789h66.375v3.8789zm54.418 30.695h-1.5117l2.457-10.285 1.5234 3.9258zm9.8594 0h-2.5742c-3.0352-7.8047-8.0508-20.688-11.098-28.523h6.8516l2.1719 9.082c0.85156 3.6016 3.7461 15.652 4.6484 19.441zm-1.2461-14.562-0.96094-4.0195h8.5664c2.2812 0.070312 4.2031-2.1992 3.8398-4.3984l-2.3242-17.16c-0.53125-3.9531 0.83594-7.9961 3.6523-10.816 0.61328-0.60938 1.3242-0.37891 1.5273-0.29688 0.20312 0.085938 0.86719 0.42969 0.86719 1.293v34.43c0.011719 0.52344-0.45703 0.97266-0.97266 0.96484zm15.688 14.562-4.8281-12.391h3.3789l2.9531 12.391zm-44.055-58.895h10.93c0.60156 0 1.0859-0.48828 1.0859-1.0859 0-3.2383-2.3672-5.9297-5.4648-6.4492v-24.184c0-0.60156-0.48828-1.0859-1.0859-1.0859-0.60156 0-1.0859 0.48828-1.0859 1.0859v24.184c-3.0938 0.51953-5.4648 3.2109-5.4648 6.4492-0.003906 0.60156 0.48438 1.0859 1.0859 1.0859zm5.4609-5.457c2.0391 0 3.7539 1.3984 4.2422 3.2852h-8.4805c0.48438-1.8867 2.2031-3.2852 4.2383-3.2852z"/>
</svg>