<svg xmlns="http://www.w3.org/2000/svg" version="1.1" viewBox="-5.0 -10.0 110.0 135.0">
 <path d="m70.312 75c0-0.86328-0.69922-1.5625-1.5625-1.5625h-37.5c-0.86328 0-1.5625 0.69922-1.5625 1.5625v12.5c0 0.86328 0.69922 1.5625 1.5625 1.5625h37.5c0.86328 0 1.5625-0.69922 1.5625-1.5625zm-3.125 1.5625v9.375h-34.375v-9.375z" fill-rule="evenodd"/>
 <path d="m12.5 95.312h75c0.86328 0 1.5625-0.69922 1.5625-1.5625s-0.69922-1.5625-1.5625-1.5625h-4.6875v-54.688c0-18.121-14.691-32.812-32.812-32.812s-32.812 14.691-32.812 32.812v54.688h-4.6875c-0.86328 0-1.5625 0.69922-1.5625 1.5625s0.69922 1.5625 1.5625 1.5625zm64.062-3.125h3.125v-54.688c0-16.395-13.293-29.688-29.688-29.688s-29.688 13.293-29.688 29.688v54.688h3.125v-54.688c0-14.672 11.891-26.562 26.562-26.562 7.0469 0 13.801 2.7969 18.781 7.7812 4.9844 4.9805 7.7812 11.734 7.7812 18.781zm-26.562-78.125c-12.945 0-23.438 10.492-23.438 23.438v54.688h46.875v-54.688c0-6.2148-2.4688-12.18-6.8633-16.574s-10.359-6.8633-16.574-6.8633z" fill-rule="evenodd"/>
 <path d="m70.312 68.75v-31.25c0-11.219-9.0938-20.312-20.312-20.312s-20.312 9.0938-20.312 20.312v31.25c0 0.86328 0.69922 1.5625 1.5625 1.5625h37.5c0.86328 0 1.5625-0.69922 1.5625-1.5625zm-3.125-17.188h-15.625v15.625h15.625zm-34.375 3.3906c0.48828-0.17188 1.0156-0.26562 1.5625-0.26562 2.0391 0 3.7773 1.3047 4.4219 3.125h4.9531c0.86328 0 1.5625 0.69922 1.5625 1.5625s-0.69922 1.5625-1.5625 1.5625h-4.9531c-0.64453 1.8203-2.3828 3.125-4.4219 3.125-0.54688 0-1.0742-0.09375-1.5625-0.26562v3.3906h15.625v-15.625h-15.625zm1.5625 2.8594c0.86328 0 1.5625 0.69922 1.5625 1.5625s-0.69922 1.5625-1.5625 1.5625-1.5625-0.69922-1.5625-1.5625 0.69922-1.5625 1.5625-1.5625zm32.164-25h-14.977v15.625h15.625v-10.938c0-1.625-0.22656-3.1953-0.64844-4.6875zm-33.727 15.625h15.625v-15.625h-14.977c-0.42188 1.4922-0.64844 3.0625-0.64844 4.6875zm15.625-28.055c-6.0117 0.54297-11.129 4.1797-13.75 9.3047h13.75zm3.125 0v9.3047h13.75c-2.6211-5.125-7.7383-8.7617-13.75-9.3047z" fill-rule="evenodd"/>
</svg>