<svg xmlns="http://www.w3.org/2000/svg" data-name="Layer 1" viewBox="0 0 1000 1250" x="0px" y="0px"><path d="M500,916a16,16,0,0,1-16-16V100a16,16,0,0,1,32,0V900A16,16,0,0,1,500,916Z"/><path d="M500,916a15.92,15.92,0,0,1-11.31-4.69l-400-400a16,16,0,0,1,0-22.62l400-400a16,16,0,0,1,22.62,0l400,400a16,16,0,0,1,0,22.62l-400,400A15.92,15.92,0,0,1,500,916ZM122.63,500,500,877.37,877.37,500,500,122.63Z"/><path d="M500,716a15.92,15.92,0,0,1-11.31-4.69l-200-200a16,16,0,0,1,0-22.62l200-200a16,16,0,0,1,22.62,0l200,200a16,16,0,0,1,0,22.62l-200,200A15.92,15.92,0,0,1,500,716ZM322.63,500,500,677.37,677.37,500,500,322.63Z"/><path d="M900,916H100a16,16,0,0,1-16-16V100a16,16,0,0,1,16-16H900a16,16,0,0,1,16,16V900A16,16,0,0,1,900,916ZM116,884H884V116H116Z"/><path d="M900,516H100a16,16,0,0,1,0-32H900a16,16,0,0,1,0,32Z"/><path d="M900,916a15.92,15.92,0,0,1-11.31-4.69l-800-800a16,16,0,0,1,22.62-22.62l800,800A16,16,0,0,1,900,916Z"/><path d="M100,916a16,16,0,0,1-11.31-27.31l800-800a16,16,0,0,1,22.62,22.62l-800,800A15.92,15.92,0,0,1,100,916Z"/></svg>