<svg xmlns="http://www.w3.org/2000/svg" viewBox="0 0 64 80" x="0px" y="0px"><title>drink-holidays-party-bar-cocktail-alcohol-alcoholic drink-pub-food and restaurant</title><g data-name="Layer 31"><path d="M62,1H2A1,1,0,0,0,1,2V6A1,1,0,0,0,2,7H3V22a1,1,0,0,0,1,1H7v2.184A3,3,0,0,0,5,28v4a1,1,0,0,0,1,1h4a1,1,0,0,0,1-1V28a3,3,0,0,0-2-2.816V23h6v2.184A3,3,0,0,0,13,28v4a1,1,0,0,0,1,1h4a1,1,0,0,0,1-1V28a3,3,0,0,0-2-2.816V23h6v2.184A3,3,0,0,0,21,28v4a1,1,0,0,0,1,1h4a1,1,0,0,0,1-1V28a3,3,0,0,0-2-2.816V23h6v2.184A3,3,0,0,0,29,28v4a1,1,0,0,0,1,1h4a1,1,0,0,0,1-1V28a3,3,0,0,0-2-2.816V23h6v2.184A3,3,0,0,0,37,28v4a1,1,0,0,0,1,1h4a1,1,0,0,0,1-1V28a3,3,0,0,0-2-2.816V23h6v2.184A3,3,0,0,0,45,28v4a1,1,0,0,0,1,1h4a1,1,0,0,0,1-1V28a3,3,0,0,0-2-2.816V23h6v2.184A3,3,0,0,0,53,28v4a1,1,0,0,0,1,1h4a1,1,0,0,0,1-1V28a3,3,0,0,0-2-2.816V23h3a1,1,0,0,0,1-1V7h1a1,1,0,0,0,1-1V2A1,1,0,0,0,62,1ZM9,31H7V28a1,1,0,0,1,2,0Zm8,0H15V28a1,1,0,0,1,2,0Zm8,0H23V28a1,1,0,0,1,2,0Zm8,0H31V28a1,1,0,0,1,2,0Zm8,0H39V28a1,1,0,0,1,2,0Zm8,0H47V28a1,1,0,0,1,2,0Zm8,0H55V28a1,1,0,0,1,2,0Zm2-20v6H33V11ZM31,17H5V11H31ZM5,21V19H59v2ZM59,9H5V7H59Zm2-4H3V3H61Z"/><rect x="27" y="13" width="2" height="2"/><rect x="35" y="13" width="2" height="2"/><path d="M62,39H2a1,1,0,0,0-1,1V62a1,1,0,0,0,1,1H62a1,1,0,0,0,1-1V40A1,1,0,0,0,62,39ZM52.069,49l.286,4h-2.71l.286-4Zm.572,8H49.359l.143-2h3Zm-3.425,2h3.568l.142,2H49.074Zm4.858-10H55V47H47v2h.926l-.857,12H42.931l-.857-12H43V47H35v2h.926l-.857,12H28.931l-.857-12H29V47H21v2h.926l-.857,12H16.931l-.857-12H17V47H9v2h.926L9.069,61H7V45H57V61H54.931Zm-14,0,.286,4h-2.71l.286-4Zm.572,8H37.359l.143-2h3Zm-3.425,2h3.568l.142,2H37.074ZM26.069,49l.286,4h-2.71l.286-4Zm.572,8H23.359l.143-2h3Zm-3.425,2h3.568l.142,2H23.074ZM14.069,49l.286,4h-2.71l.286-4Zm.572,8H11.359l.143-2h3Zm-3.425,2h3.568l.142,2H11.074ZM57,43H7V41H57ZM3,41H5V61H3ZM61,61H59V41h2Z"/></g></svg>