<svg xmlns="http://www.w3.org/2000/svg" version="1.1" viewBox="-5.0 -10.0 110.0 135.0">
 <path d="m60.617 33.266c-1.7891-2.5352-4.7109-4.0508-7.8086-4.0508s-6.0195 1.5156-7.8164 4.0508c-0.48828 0.69141-1.4453 0.85547-2.1367 0.36328-0.69141-0.48828-0.85547-1.4453-0.36328-2.1367 2.3711-3.3477 6.2266-5.3438 10.316-5.3438 4.0938 0 7.9492 2 10.312 5.3477 0.48828 0.69141 0.32422 1.6484-0.36719 2.1367-0.26953 0.19141-0.57812 0.28125-0.88281 0.28125-0.48047 0-0.95312-0.22656-1.2539-0.64844zm-3.3828 3.1328c0.27734 0.51172 0.80469 0.80469 1.3516 0.80469 0.24609 0 0.49609-0.058594 0.72656-0.18359 0.74609-0.40234 1.0234-1.332 0.62109-2.0781-1.4141-2.6211-4.1445-4.25-7.1211-4.25s-5.707 1.6289-7.1211 4.25c-0.40234 0.74609-0.125 1.6758 0.62109 2.0781 0.74609 0.40234 1.6758 0.125 2.0781-0.62109 0.87891-1.6289 2.5742-2.6406 4.4258-2.6406 1.8438 0 3.5391 1.0117 4.418 2.6406zm-7.3906 2.3789c0 1.6367 1.3281 2.9648 2.9648 2.9648 1.6328 0 2.9609-1.3281 2.9609-2.9648 0-1.6328-1.3281-2.9609-2.9609-2.9609-1.6328 0-2.9648 1.3281-2.9648 2.9609zm49.156-9.1367v9.3828c0 0.51953-0.26172 1.0039-0.69531 1.2852-0.25391 0.16406-0.54297 0.24609-0.83594 0.24609-0.21094 0-0.42188-0.042969-0.62109-0.13281l-7.0547-3.125v51.309h3.5625c0.84766 0 1.5312 0.6875 1.5312 1.5312 0 0.84766-0.6875 1.5312-1.5312 1.5312l-90.824 0.007812c-0.84375-0.003906-1.5312-0.6875-1.5312-1.5352s0.6875-1.5312 1.5312-1.5312h5.8945l0.003907-12.121c-4.2148-0.73438-7.4297-4.4297-7.4297-8.8711 0-2.6133 0.43359-7 1.6562-10.766 2.0039-6.1719 5.0781-7.4688 7.3047-7.4688 7.3516 0 8.9609 13.16 8.9609 18.23 0 4.4375-3.2148 8.1367-7.4258 8.8672v12.117h4.3281v-11.566c0-0.84766 0.6875-1.5312 1.5312-1.5312 0.84766 0 1.5312 0.6875 1.5312 1.5312v11.574h13.281l0.003906-17.25h-1.4492c-0.84766 0-1.5312-0.6875-1.5312-1.5312 0-0.84766 0.6875-1.5312 1.5312-1.5312h13.766v-1.3438h-9.0352c-0.72266 0-1.3477-0.50391-1.4961-1.2109l-3.8945-18.023c-0.023438-0.10547-0.035156-0.21484-0.035156-0.32422v-0.28125c0-0.84766 0.6875-1.5312 1.5312-1.5312h24.973c0.72266 0 1.3477 0.50391 1.4961 1.2109l1.5391 7.1211c1.1094-0.64062 2.3438-1.0547 3.6211-1.2031-1.3984-1.2578-2.2773-3.0781-2.2773-5.1016v-3.043c0-3.7812 3.0781-6.8594 6.8594-6.8594 3.7852 0 6.8672 3.0781 6.8672 6.8594v3.043c0 2.0234-0.88281 3.8438-2.2773 5.0977 4.6641 0.52734 8.3047 4.4922 8.3047 9.2969v6.2969h3.1406c0.84766 0 1.5312 0.6875 1.5312 1.5312 0 0.84766-0.6875 1.5312-1.5312 1.5312h-1.4453v17.254h4.3711v-52.672l-33.922-15.02-33.922 15.023v15.465c0 0.84766-0.6875 1.5312-1.5312 1.5312-0.84766 0-1.5312-0.6875-1.5312-1.5312l-0.003907-14.109-7.0469 3.1211c-0.47266 0.21094-1.0234 0.16406-1.457-0.11719s-0.69531-0.76563-0.69531-1.2852v-9.3828c0-0.60547 0.35547-1.1562 0.91016-1.4023l44.66-19.777c0.39453-0.17578 0.84766-0.17578 1.2422 0l44.656 19.781c0.55469 0.24609 0.91016 0.79688 0.91016 1.4023zm-88.859 43.914c3.168-0.097657 5.7148-2.7188 5.7148-5.9336 0-2.3906-0.39453-6.3945-1.5078-9.8164-0.64844-1.9961-2.082-5.3516-4.3867-5.3516-3.7969 0-5.8945 8.9688-5.8945 15.168 0 3.2148 2.5469 5.8359 5.7148 5.9336 0.058594-0.007813 0.12109-0.011719 0.17969-0.011719 0.0625-0.003907 0.12109 0.003906 0.17969 0.011719zm53.832-25.957c0 2.0938 1.7031 3.7969 3.7969 3.7969 2.0977 0 3.8008-1.7031 3.8008-3.7969v-3.043c0-2.0938-1.7031-3.7969-3.8008-3.7969-2.0938 0-3.7969 1.7031-3.7969 3.7969zm-2.2969 18.777c-0.28906 0.35938-0.73047 0.57031-1.1914 0.57031h-2.5352v1.3438h4.7344v-1.1094c0-2.2852 1.8672-4.1562 4.1641-4.1758l4.6133-0.035156v-1.4688c0-0.84766 0.6875-1.5312 1.5312-1.5312 0.84766 0 1.5312 0.6875 1.5312 1.5312v2.9883c0 0.84375-0.67969 1.5273-1.5195 1.5312l-6.1367 0.050781c-0.61719 0.003907-1.1211 0.50391-1.1211 1.1094v1.1094h11.848v-6.2969c0-3.4688-2.8242-6.2891-6.2969-6.2891h-7.0586c-1.4727 0-2.8594 0.50391-3.9805 1.4297l1.7188 7.957c0.10156 0.44922-0.011718 0.92188-0.30078 1.2852zm-17.191-2.4961v-5.1914c0-0.84766 0.6875-1.5312 1.5312-1.5312 0.84766 0 1.5312 0.6875 1.5312 1.5312v9.6016h7.3281v-1.3438h-4.7227c-0.84766 0-1.5312-0.6875-1.5312-1.5312 0-0.84766 0.6875-1.5312 1.5312-1.5312h8.4258l-1.4922-6.9062c-0.007813-0.027343-0.011719-0.050781-0.015626-0.078124l-1.7812-8.2539-21.898-0.007812 3.293 15.238zm-9.25 18.418h44.055v-10.941h-44.055zm0 6.3125h44.055v-3.2422l-44.055-0.003907zm60.699-57.973-43.125-19.102-43.121 19.102v6.0273l42.504-18.82c0.19922-0.089844 0.41016-0.13281 0.62109-0.13281s0.42188 0.042968 0.62109 0.13281l42.504 18.82v-6.0273z"/>
</svg>