<svg xmlns="http://www.w3.org/2000/svg" version="1.1" viewBox="-5.0 -10.0 110.0 135.0">
 <path d="m91.379 59.539v-3.5117c0-3.6992-3.0117-6.7188-6.7188-6.7188h-47c-3.6992 0-6.7188 3.0117-6.7188 6.7188v3.5117c-3 0.46094-5.3086 3.0508-5.3086 6.1797v14.23c0 2.1094 1.7188 3.8281 3.8281 3.8281h0.35156l-0.26172 1.5195c-0.12109 0.71094 0.058594 1.3984 0.53125 1.9492 0.46094 0.55078 1.1094 0.85156 1.8281 0.85156h0.85156c0.78906 0 1.5117-0.37109 1.9609-1.0195l2.3086-3.3008 48.27 0.003906 2.3086 3.3008c0.44922 0.64844 1.1719 1.0195 1.9609 1.0195h0.85156c0.71875 0 1.3711-0.30078 1.8281-0.85156 0.46094-0.55078 0.64844-1.2383 0.53125-1.9492l-0.26172-1.5195h0.35156c2.1094 0 3.8281-1.7188 3.8281-3.8281v-14.223c-0.007813-3.1289-2.3203-5.7188-5.3203-6.1914zm-53.719-8.3086h47c2.6484 0 4.8086 2.1602 4.8086 4.8086v3.5117c-3 0.46094-5.3086 3.0508-5.3086 6.1797v3.7109c-0.75-0.53906-1.6602-0.85938-2.6484-0.85938l-16.75-0.003906c-1.4492 0-2.7617 0.69922-3.6016 1.7695-0.82812-1.0781-2.1406-1.7695-3.6016-1.7695h-16.75c-0.98828 0-1.8984 0.32812-2.6484 0.85938v-3.7109c0-3.1289-2.3086-5.7188-5.3086-6.1797v-3.5117c0-2.6562 2.1602-4.8047 4.8086-4.8047zm0.5 21.891c0-1.4609 1.1914-2.6484 2.6484-2.6484h16.75c1.4609 0 2.6484 1.1914 2.6484 2.6484v2.4609l-22.047-0.003906zm23.949-0.042969c0.019531-1.4414 1.2109-2.6016 2.6484-2.6016h16.75c1.4609 0 2.6484 1.1914 2.6484 2.6484v2.4609l-22.047 0.003906v-2.4609-0.050781zm-28.949 12.922c-0.10156 0.14062-0.23047 0.21094-0.39844 0.21094h-0.85156c-0.16016 0-0.26953-0.050782-0.37109-0.17188-0.10156-0.12109-0.12891-0.23828-0.10937-0.39844l0.32031-1.8398h2.9492zm57.738-0.37109c0.03125 0.16016 0 0.28125-0.10938 0.39844-0.10156 0.12109-0.21094 0.17188-0.37109 0.17188h-0.85156c-0.17188 0-0.30078-0.070313-0.39844-0.21094l-1.5391-2.2109h2.9492zm3.8828-5.668c0 1.0586-0.85938 1.9297-1.9297 1.9297h-63.383c-1.0586 0-1.9297-0.87109-1.9297-1.9297v-14.23c0-2.3984 1.9492-4.3594 4.3594-4.3594 2.3984 0 4.3594 1.9492 4.3594 4.3594v10.809c0 0.53125 0.42969 0.94922 0.94922 0.94922h47.91c0.53125 0 0.94922-0.42969 0.94922-0.94922l0.003906-10.809c0-2.3984 1.9492-4.3594 4.3594-4.3594 2.3984 0 4.3594 1.9492 4.3594 4.3594v14.23zm-76.453 0.57812h-4.1719l0.003906-38.93h2.0586v4.2305c0 0.53125 0.42969 0.94922 0.94922 0.94922 0.53125 0 0.94922-0.42969 0.94922-0.94922v-4.2305h2.1094c0.89063 0 1.6797-0.37891 2.2383-1.0781 0.55078-0.69922 0.75-1.5586 0.55078-2.4219l-2.9297-12.629c-0.30078-1.3008-1.4492-2.2109-2.7812-2.2109h-8.2031c-1.3398 0-2.4805 0.91016-2.7812 2.2109l-2.9297 12.621c-0.19922 0.87109-0.011719 1.7305 0.55078 2.4219 0.55078 0.69922 1.3516 1.0781 2.2383 1.0781h6.0781v38.93h-4.1797c-2.6289 0-4.7617 2.1406-4.7617 4.7617v0.89844c0 1.0508 0.85156 1.9102 1.9102 1.9102h15.969c1.0508 0 1.9102-0.85156 1.9102-1.9102v-0.89844c-0.015625-2.6133-2.1445-4.7539-4.7773-4.7539zm-12.898-41.199c-0.19141-0.23828-0.25-0.51172-0.17969-0.80859l2.9297-12.629c0.10156-0.44141 0.48047-0.73828 0.92969-0.73828h8.1992c0.44922 0 0.82812 0.30078 0.92969 0.73828l2.9297 12.629c0.070312 0.30078 0.011719 0.57031-0.17969 0.80859-0.19141 0.23828-0.44141 0.35938-0.75 0.35938h-14.066c-0.30078 0-0.55078-0.12109-0.74219-0.35938zm-0.21094 46.871v-0.89844c0-1.5781 1.2812-2.8594 2.8594-2.8594h10.25c1.5781 0 2.8594 1.2812 2.8594 2.8594v0.89844zm37.07-47.5h37.738c2.1016 0 3.8086-1.7109 3.8086-3.8086l0.003906-19.203c0-2.1016-1.7109-3.8086-3.8086-3.8086h-37.742c-2.1016 0-3.8086 1.7109-3.8086 3.8086v19.199c0 2.1016 1.7109 3.8125 3.8086 3.8125zm-1.9102-23.012c0-1.0508 0.85156-1.9102 1.9102-1.9102h37.738c1.0508 0 1.9102 0.85156 1.9102 1.9102v19.199c0 1.0508-0.85156 1.9102-1.9102 1.9102h-37.738c-1.0508 0-1.9102-0.85156-1.9102-1.9102zm2.4805 19.582h36.602c0.53125 0 0.94922-0.42969 0.94922-0.94922v-18.062c0-0.53125-0.42969-0.94922-0.94922-0.94922h-36.602c-0.53125 0-0.94922 0.42969-0.94922 0.94922v18.059c0 0.52344 0.41797 0.95312 0.94922 0.95312zm0.94922-1.9023v-3.9414l9.8906-8.0117c0.33984-0.26953 0.76953-0.28906 1.1289-0.050781l9.2695 6.3008-2.4414 1.9805c-0.39453 0.34375-0.45703 0.94531-0.125 1.3438 0.19141 0.23047 0.46094 0.35156 0.73828 0.35156 0.21094 0 0.42188-0.070312 0.60156-0.21094l6.5703-5.3398c0.33984-0.26953 0.76953-0.28906 1.1289-0.050781l7.9414 5.2891v2.3516h-34.703zm34.703-16.16v11.52l-6.8789-4.5781c-1.0508-0.69922-2.4102-0.62891-3.3906 0.16016l-2.5898 2.1094-9.7383-6.6211c-1.0508-0.71094-2.4219-0.66016-3.4102 0.14062l-8.6914 7.0391v-9.7617l34.699 0.003907z"/>
</svg>