<svg xmlns="http://www.w3.org/2000/svg" xmlns:xlink="http://www.w3.org/1999/xlink" version="1.0" x="0px" y="0px" viewBox="0 0 136 170" style="enable-background:new 0 0 136 136;" xml:space="preserve"><g><path d="M94.2,103.29c-1.67,0-3.03-1.36-3.03-3.03c0-0.28-0.22-0.5-0.5-0.5H45.33c-0.28,0-0.5,0.22-0.5,0.5   c0,1.67-1.36,3.03-3.03,3.03c-0.28,0-0.5,0.22-0.5,0.5v4.92c0,0.28,0.22,0.5,0.5,0.5c1.67,0,3.03,1.36,3.03,3.03   c0,0.28,0.22,0.5,0.5,0.5h45.34c0.28,0,0.5-0.22,0.5-0.5c0-1.67,1.36-3.03,3.03-3.03c0.28,0,0.5-0.22,0.5-0.5v-4.92   C94.7,103.51,94.48,103.29,94.2,103.29z M93.7,108.24c-1.82,0.23-3.27,1.68-3.5,3.5H45.8c-0.23-1.82-1.68-3.27-3.5-3.5v-3.98   c1.82-0.23,3.27-1.68,3.5-3.5h44.4c0.23,1.82,1.68,3.27,3.5,3.5V108.24z"/><path d="M17.83,108.86h2.41c0.28,0,0.5-0.22,0.5-0.5s-0.22-0.5-0.5-0.5h-2.41c-0.28,0-0.5,0.22-0.5,0.5S17.56,108.86,17.83,108.86z   "/><path d="M17.83,99.75h2.41c0.28,0,0.5-0.22,0.5-0.5s-0.22-0.5-0.5-0.5h-2.41c-0.28,0-0.5,0.22-0.5,0.5S17.56,99.75,17.83,99.75z"/><path d="M131.5,91.36h-9.22v-2.19c0-0.28-0.22-0.5-0.5-0.5h-2.56v-8.63h6.27c0.15,0,0.3-0.07,0.39-0.19   c0.09-0.12,0.13-0.28,0.09-0.42l-3.55-15.13c-0.05-0.23-0.25-0.39-0.49-0.39h-9.95c-0.23,0-0.43,0.16-0.49,0.39l-3.55,15.13   c-0.03,0.15,0,0.3,0.09,0.42c0.1,0.12,0.24,0.19,0.39,0.19h6.27v8.63h-2.56c-0.28,0-0.5,0.22-0.5,0.5v2.19h-9.22   c-0.28,0-0.5,0.22-0.5,0.5v2.84c0,0.28,0.22,0.5,0.5,0.5h1.4v22.5h-9.69v-1.96h3.07c0.28,0,0.5-0.22,0.5-0.5V97.26   c0-0.28-0.22-0.5-0.5-0.5h-2.65V78.12c0-0.28-0.22-0.5-0.5-0.5H88.9c-3.55,0-7.08-0.89-10.21-2.56c-6.69-3.58-14.68-3.58-21.37,0   c-3.13,1.67-6.66,2.56-10.21,2.56h-5.16c-0.28,0-0.5,0.22-0.5,0.5v18.63H38.8c-0.28,0-0.5,0.22-0.5,0.5v17.98   c0,0.28,0.22,0.5,0.5,0.5h3.07v1.96h-9.69V95.2h1.4c0.28,0,0.5-0.22,0.5-0.5v-2.84c0-0.28-0.22-0.5-0.5-0.5h-9.22v-2.19   c0-0.28-0.22-0.5-0.5-0.5h-2.56v-8.63h6.27c0.15,0,0.3-0.07,0.39-0.19c0.09-0.12,0.13-0.28,0.09-0.42L24.5,64.29   c-0.05-0.23-0.25-0.39-0.49-0.39h-9.95c-0.23,0-0.43,0.16-0.49,0.39l-3.55,15.13c-0.03,0.15,0,0.3,0.09,0.42   c0.1,0.12,0.24,0.19,0.39,0.19h6.27v8.63h-2.56c-0.28,0-0.5,0.22-0.5,0.5v2.19H4.5c-0.28,0-0.5,0.22-0.5,0.5v2.84   c0,0.28,0.22,0.5,0.5,0.5h1.4v22.5H4.5c-0.28,0-0.5,0.22-0.5,0.5s0.22,0.5,0.5,0.5h1.9h2.84h19.61h2.84h10.69h4.85h41.56h4.85   h10.69h2.84h19.61h2.84h1.9c0.28,0,0.5-0.22,0.5-0.5s-0.22-0.5-0.5-0.5h-1.4V95.2h1.4c0.28,0,0.5-0.22,0.5-0.5v-2.84   C132,91.58,131.78,91.36,131.5,91.36z M11.15,79.03l3.32-14.13h9.15l3.32,14.13h-6.14h-3.51H11.15z M20.29,80.03v8.63h-2.51v-8.63   H20.29z M14.72,89.67h2.56h3.51h2.56v1.69h-8.63V89.67z M8.74,112.91v4.79H6.9V95.2h1.84V112.91z M28.34,117.7H9.74v-4.29h18.61   V117.7z M28.34,112.41H9.74v-8.11h18.61V112.41z M28.34,103.3H9.74V95.2h18.61V103.3z M31.18,117.7h-1.84v-4.79V95.2h1.84V117.7z    M28.84,94.2H9.24H6.4H5v-1.84h9.22h9.63h9.22v1.84h-1.4H28.84z M42.45,78.62h4.66c3.71,0,7.41-0.93,10.68-2.68   c6.39-3.42,14.03-3.42,20.42,0c3.27,1.75,6.97,2.68,10.68,2.68h4.66v15.86c-0.61-0.73-1.46-1.24-2.42-1.39V80.96   c0-0.28-0.22-0.5-0.5-0.5h-2.29c-3.88,0-7.75-0.97-11.17-2.8c-5.63-3.01-12.72-3.01-18.34,0c-3.42,1.83-7.29,2.8-11.17,2.8h-2.28   c-0.28,0-0.5,0.22-0.5,0.5v12.13c-0.97,0.15-1.81,0.66-2.42,1.39V78.62z M86.21,84.93c-0.49-0.61-1.29-0.9-2.09-0.74   c-3.13,0.63-6.43,0.62-10.09-0.04c-0.77-0.13-1.55,0.15-2.03,0.75c-1.65,2.04-2.41,4.55-2.05,6.58c-1.3-0.02-2.6-0.02-3.91,0   c0.36-2.03-0.4-4.54-2.05-6.58c-0.48-0.6-1.27-0.88-2.03-0.75c-3.66,0.65-6.96,0.67-10.09,0.04c-0.79-0.16-1.59,0.12-2.09,0.74   c-1.68,2.09-2.82,5.3-1.67,7.76c-0.75,0.09-1.5,0.18-2.25,0.28v-11.5h1.78c4.05,0,8.07-1.01,11.64-2.92   c5.34-2.86,12.06-2.86,17.4,0c3.57,1.91,7.59,2.92,11.64,2.92h1.79v11.5c-0.75-0.1-1.5-0.19-2.25-0.28   C89.03,90.22,87.9,87.02,86.21,84.93z M86.8,92.55c-5.26-0.61-10.54-0.95-15.82-1.05c-0.39-1.76,0.3-4.11,1.8-5.97   c0.26-0.31,0.67-0.46,1.08-0.39c3.78,0.67,7.21,0.69,10.46,0.03c0.43-0.08,0.85,0.06,1.11,0.38C87.04,87.55,87.97,90.54,86.8,92.55   z M65.02,91.5c-5.28,0.1-10.56,0.44-15.82,1.05c-1.17-2.01-0.24-5,1.37-7c0.26-0.32,0.69-0.47,1.11-0.38   c3.25,0.65,6.67,0.64,10.46-0.03c0.41-0.07,0.82,0.08,1.08,0.39C64.72,87.39,65.42,89.74,65.02,91.5z M90.92,94.07   c1.34,0.19,2.38,1.31,2.59,2.69H42.49c0.21-1.38,1.25-2.5,2.59-2.69C60.29,91.91,75.72,91.91,90.92,94.07z M46.72,117.7h-3.85   v-1.96h3.85V117.7z M88.28,117.7H47.72v-1.96h40.56V117.7z M93.13,117.7h-3.85v-1.96h3.85V117.7z M88.78,114.74H47.22h-4.85H39.3   V97.76h57.4v16.98h-3.07H88.78z M109.07,79.03l3.32-14.13h9.15l3.32,14.13h-6.14h-3.51H109.07z M118.21,80.03v8.63h-2.51v-8.63   H118.21z M112.64,89.67h2.56h3.51h2.56v1.69h-8.63V89.67z M106.66,112.91v4.79h-1.84V95.2h1.84V112.91z M126.26,117.7h-18.61v-4.29   h18.61V117.7z M126.26,112.41h-18.61v-8.11h18.61V112.41z M126.26,103.3h-18.61V95.2h18.61V103.3z M129.1,117.7h-1.84v-4.79V95.2   h1.84V117.7z M131,94.2h-1.4h-2.84h-19.61h-2.84h-1.4v-1.84h9.22h9.63H131V94.2z"/><path d="M115.75,108.86h2.41c0.28,0,0.5-0.22,0.5-0.5s-0.22-0.5-0.5-0.5h-2.41c-0.28,0-0.5,0.22-0.5,0.5   S115.48,108.86,115.75,108.86z"/><path d="M115.75,99.75h2.41c0.28,0,0.5-0.22,0.5-0.5s-0.22-0.5-0.5-0.5h-2.41c-0.28,0-0.5,0.22-0.5,0.5S115.48,99.75,115.75,99.75z   "/><path d="M84.72,34.02c0-9.22-7.5-16.72-16.72-16.72c-9.22,0-16.72,7.5-16.72,16.72S58.78,50.75,68,50.75   C77.22,50.75,84.72,43.24,84.72,34.02z M52.28,34.02c0-8.67,7.05-15.72,15.72-15.72s15.72,7.05,15.72,15.72S76.67,49.75,68,49.75   S52.28,42.69,52.28,34.02z"/><path d="M70.26,34.02c0-0.49-0.16-0.94-0.43-1.31l3.66-4.07c0.19-0.21,0.17-0.52-0.04-0.71c-0.21-0.18-0.52-0.17-0.71,0.04   l-3.67,4.08c-0.18-0.1-0.37-0.18-0.58-0.23v-5.32c0-0.28-0.22-0.5-0.5-0.5s-0.5,0.22-0.5,0.5v5.32c-1,0.23-1.76,1.13-1.76,2.2   c0,1.25,1.01,2.26,2.26,2.26S70.26,35.27,70.26,34.02z M66.74,34.02c0-0.69,0.56-1.26,1.26-1.26s1.26,0.56,1.26,1.26   s-0.56,1.26-1.26,1.26S66.74,34.72,66.74,34.02z"/><path d="M68,22.52c0.28,0,0.5-0.22,0.5-0.5v-1.31c0-0.28-0.22-0.5-0.5-0.5s-0.5,0.22-0.5,0.5v1.31C67.5,22.29,67.72,22.52,68,22.52   z"/><path d="M68.5,47.34v-1.31c0-0.28-0.22-0.5-0.5-0.5s-0.5,0.22-0.5,0.5v1.31c0,0.28,0.22,0.5,0.5,0.5S68.5,47.62,68.5,47.34z"/><path d="M61.78,22.24c-0.14-0.24-0.45-0.32-0.68-0.18c-0.24,0.14-0.32,0.44-0.18,0.68l0.65,1.13c0.09,0.16,0.26,0.25,0.43,0.25   c0.08,0,0.17-0.02,0.25-0.07c0.24-0.14,0.32-0.44,0.18-0.68L61.78,22.24z"/><path d="M74.44,44.18c-0.14-0.24-0.45-0.32-0.68-0.18c-0.24,0.14-0.32,0.44-0.18,0.68l0.65,1.13c0.09,0.16,0.26,0.25,0.43,0.25   c0.08,0,0.17-0.02,0.25-0.07c0.24-0.14,0.32-0.44,0.18-0.68L74.44,44.18z"/><path d="M57.85,27.59l-1.13-0.65c-0.24-0.14-0.54-0.06-0.68,0.18s-0.06,0.54,0.18,0.68l1.13,0.65c0.08,0.05,0.16,0.07,0.25,0.07   c0.17,0,0.34-0.09,0.43-0.25C58.17,28.03,58.09,27.73,57.85,27.59z"/><path d="M78.15,40.46l1.13,0.65c0.08,0.05,0.16,0.07,0.25,0.07c0.17,0,0.34-0.09,0.43-0.25c0.14-0.24,0.06-0.54-0.18-0.68   l-1.13-0.65c-0.24-0.14-0.55-0.06-0.68,0.18C77.83,40.02,77.91,40.32,78.15,40.46z"/><path d="M56.49,34.02c0-0.28-0.22-0.5-0.5-0.5h-1.31c-0.28,0-0.5,0.22-0.5,0.5s0.22,0.5,0.5,0.5h1.31   C56.27,34.52,56.49,34.3,56.49,34.02z"/><path d="M79.51,34.02c0,0.28,0.22,0.5,0.5,0.5h1.31c0.28,0,0.5-0.22,0.5-0.5s-0.22-0.5-0.5-0.5h-1.31   C79.73,33.52,79.51,33.75,79.51,34.02z"/><path d="M57.35,39.6l-1.13,0.65c-0.24,0.14-0.32,0.44-0.18,0.68c0.09,0.16,0.26,0.25,0.43,0.25c0.08,0,0.17-0.02,0.25-0.07   l1.13-0.65c0.24-0.14,0.32-0.44,0.18-0.68S57.59,39.46,57.35,39.6z"/><path d="M78.4,28.52c0.08,0,0.17-0.02,0.25-0.07l1.13-0.65c0.24-0.14,0.32-0.44,0.18-0.68c-0.14-0.24-0.45-0.32-0.68-0.18   l-1.13,0.65c-0.24,0.14-0.32,0.44-0.18,0.68C78.06,28.43,78.23,28.52,78.4,28.52z"/><path d="M62.25,43.99c-0.24-0.14-0.54-0.06-0.68,0.18l-0.65,1.13c-0.14,0.24-0.06,0.54,0.18,0.68c0.08,0.04,0.16,0.07,0.25,0.07   c0.17,0,0.34-0.09,0.43-0.25l0.65-1.13C62.57,44.44,62.48,44.13,62.25,43.99z"/><path d="M73.75,24.06c0.08,0.05,0.16,0.07,0.25,0.07c0.17,0,0.34-0.09,0.43-0.25l0.65-1.13c0.14-0.24,0.06-0.54-0.18-0.68   c-0.24-0.14-0.55-0.06-0.68,0.18l-0.65,1.13C73.43,23.61,73.52,23.92,73.75,24.06z"/><path d="M121.25,47.95c0.28,0,0.5-0.22,0.5-0.5V20.6c0-0.28-0.22-0.5-0.5-0.5H94.39c-0.28,0-0.5,0.22-0.5,0.5v26.85   c0,0.28,0.22,0.5,0.5,0.5H121.25z M94.89,21.1h25.86v25.85H94.89V21.1z"/><path d="M117.96,23.39H97.68c-0.28,0-0.5,0.22-0.5,0.5v20.27c0,0.28,0.22,0.5,0.5,0.5h20.28c0.28,0,0.5-0.22,0.5-0.5V23.89   C118.46,23.61,118.24,23.39,117.96,23.39z M117.46,43.66H98.18V24.39h19.28V43.66z"/><path d="M107.47,39.75c0.1,0.1,0.23,0.15,0.35,0.15s0.26-0.05,0.35-0.15l5.09-5.09c0.72-0.72,1.12-1.68,1.12-2.7   c0-1.02-0.4-1.97-1.12-2.69c-1.44-1.44-3.92-1.45-5.39,0l-0.05,0.05l-0.05-0.05c-1.44-1.44-3.92-1.45-5.39,0   c-1.48,1.48-1.48,3.9,0,5.39L107.47,39.75z M103.08,29.98c0.54-0.54,1.25-0.83,1.99-0.83c0.75,0,1.45,0.29,1.99,0.83l0.4,0.4   c0.2,0.2,0.51,0.2,0.71,0l0.4-0.4c1.08-1.07,2.91-1.07,3.98,0c0.53,0.53,0.82,1.23,0.83,1.98c0,0.75-0.29,1.46-0.83,1.99   l-4.73,4.73l-4.73-4.73C101.99,32.86,101.99,31.07,103.08,29.98z"/><path d="M41.61,47.95c0.28,0,0.5-0.22,0.5-0.5V20.6c0-0.28-0.22-0.5-0.5-0.5H14.75c-0.28,0-0.5,0.22-0.5,0.5v26.85   c0,0.28,0.22,0.5,0.5,0.5H41.61z M15.25,21.1h25.86v25.85H15.25V21.1z"/><path d="M38.32,23.39H18.04c-0.28,0-0.5,0.22-0.5,0.5v20.27c0,0.28,0.22,0.5,0.5,0.5h20.28c0.28,0,0.5-0.22,0.5-0.5V23.89   C38.82,23.61,38.6,23.39,38.32,23.39z M37.82,43.66H18.54V24.39h19.28V43.66z"/><path d="M27.82,39.75c0.1,0.1,0.23,0.15,0.35,0.15s0.26-0.05,0.35-0.15l5.09-5.09c0.72-0.72,1.12-1.68,1.12-2.7   c0-1.02-0.4-1.97-1.12-2.69c-1.44-1.44-3.92-1.45-5.39,0l-0.05,0.05l-0.05-0.05c-1.44-1.44-3.92-1.45-5.39,0   c-1.48,1.48-1.48,3.9,0,5.39L27.82,39.75z M23.44,29.98c0.54-0.54,1.25-0.83,1.99-0.83c0.75,0,1.45,0.29,1.99,0.83l0.4,0.4   c0.2,0.2,0.51,0.2,0.71,0l0.4-0.4c1.08-1.07,2.91-1.07,3.98,0c0.53,0.53,0.82,1.23,0.83,1.98c0,0.75-0.29,1.46-0.83,1.99   l-4.73,4.73l-4.73-4.73C22.35,32.86,22.35,31.07,23.44,29.98z"/></g></svg>