<svg xmlns="http://www.w3.org/2000/svg" data-name="Layer 1" viewBox="0 0 512 640" x="0px" y="0px"><path d="M477,346.28H37.58a26,26,0,0,0-26,26v104a26,26,0,0,0,26,26H477a26,26,0,0,0,26-26v-104A26,26,0,0,0,477,346.28Zm-143.84,12v132H184v-132Zm-309.55,118v-104a14,14,0,0,1,14-14H172v132H37.58A14,14,0,0,1,23.58,476.29Zm467.39,0a14,14,0,0,1-14,14H345.13v-132H477a14,14,0,0,1,14,14Z"/><path d="M18.31,150.45H493.69a8,8,0,0,0,8-8V29.55a8,8,0,0,0-8-8H18.31a8,8,0,0,0-8,8v112.9A8,8,0,0,0,18.31,150.45Zm4-58.45H166.87v46.45H22.31Zm310.82,46.45H178.87V33.55H333.13Zm12,0V89.34H489.69v49.11ZM489.69,77.34H345.13V33.55H489.69ZM166.87,33.55V80H22.31V33.55Z"/><path d="M144,370.28h-84a6,6,0,1,0,0,12h84a6,6,0,1,0,0-12Z"/><path d="M214.16,382.28h84a6,6,0,1,0,0-12h-84a6,6,0,1,0,0,12Z"/><path d="M462.63,370.28h-84a6,6,0,1,0,0,12h84a6,6,0,0,0,0-12Z"/><path d="M324.45,246.49a6,6,0,0,0-6-6h-114a6,6,0,0,0-6,6v9H183.33v-4a6,6,0,0,0-6-6h-38a16,16,0,0,0,0,32h38a6,6,0,0,0,6-6v-4h15.13V289a26,26,0,0,0,26,26h74a26,26,0,0,0,26-26Zm-153.12,19h-32a4,4,0,0,1,0-8h32ZM312.45,289a14,14,0,0,1-14,14h-74a14,14,0,0,1-14-14V252.49h102Z"/><path d="M226.53,293.24a6,6,0,0,0,6-6v-22a6,6,0,0,0-12,0v22A6,6,0,0,0,226.53,293.24Z"/><path d="M312.8,321.71a6,6,0,0,0-10.55,0l-3.45,6.38a9.69,9.69,0,0,0-.76,1.83,9.65,9.65,0,0,0-.75-1.83l-3.45-6.38a6,6,0,0,0-10.55,0l-3.45,6.38a9.69,9.69,0,0,0-.76,1.83,9,9,0,0,0-.75-1.83l-3.45-6.38a6,6,0,0,0-10.55,0l-3.45,6.38a9.28,9.28,0,0,0-.75,1.83,9.69,9.69,0,0,0-.76-1.83l-3.45-6.38a6,6,0,0,0-10.55,0l-3.45,6.38a9,9,0,0,0-.75,1.83,9.69,9.69,0,0,0-.76-1.83L237,321.71a6,6,0,0,0-10.55,0L223,328.09a9.93,9.93,0,0,0-.75,1.83,9.69,9.69,0,0,0-.76-1.83L218,321.71a6,6,0,0,0-10.55,0L204,328.09a10,10,0,0,0,1.71,11.74,9.91,9.91,0,0,0,14,0h0a9.86,9.86,0,0,0,2.47-4.14,9.9,9.9,0,0,0,19,0,9.9,9.9,0,0,0,16.49,4.14h0a10,10,0,0,0,2.47-4.14,9.9,9.9,0,0,0,16.49,4.14h0a9.84,9.84,0,0,0,2.46-4.14,9.89,9.89,0,0,0,19,0,9.91,9.91,0,0,0,16.5,4.14h0a10,10,0,0,0,1.71-11.74Z"/><path d="M301.15,230.33v-20a6,6,0,0,0-12,0v20a6,6,0,1,0,12,0Z"/><path d="M281.15,220.33v-10a6,6,0,0,0-12,0v10a6,6,0,1,0,12,0Z"/><path d="M261.15,230.33v-20a6,6,0,1,0-12,0v20a6,6,0,1,0,12,0Z"/><path d="M241.15,220.33v-10a6,6,0,0,0-12,0v10a6,6,0,0,0,12,0Z"/></svg>