<svg xmlns="http://www.w3.org/2000/svg" version="1.1" viewBox="-5.0 -10.0 110.0 135.0">
 <path d="m72.758 99.941h-57.645c-0.64453 0-1.1719-0.52734-1.1719-1.1719v-60.34c0-0.64453 0.52734-1.1719 1.1719-1.1719s1.1719 0.52734 1.1719 1.1719v59.168h55.301v-63.738c0-0.64453 0.52734-1.1719 1.1719-1.1719 0.64453 0 1.1719 0.52734 1.1719 1.1719v64.91c0 0.64453-0.52734 1.1719-1.1719 1.1719zm-57.645-70.883c-0.64453 0-1.1719-0.52734-1.1719-1.1719v-8.3203c0-0.64453 0.52734-1.1719 1.1719-1.1719h43.41c0.64453 0 1.1719 0.52734 1.1719 1.1719 0 0.64453-0.52734 1.1719-1.1719 1.1719h-42.238v7.1484c0 0.64453-0.52734 1.1719-1.1719 1.1719z" fill-rule="evenodd"/>
 <path d="m31.34 39.602h-22.965c-2.0508 0-3.6914-1.6406-3.6914-3.6914v-5.4492c0-2.0508 1.6406-3.75 3.6914-3.75h22.965c2.0508 0 3.75 1.6992 3.75 3.75v5.4492c0 2.0508-1.6992 3.6914-3.75 3.6914zm-22.965-10.543c-0.76172 0-1.3477 0.64453-1.3477 1.4062v5.4492c0 0.76172 0.58594 1.3477 1.3477 1.3477h22.965c0.76172 0 1.4062-0.58594 1.4062-1.3477v-5.4492c0-0.76172-0.64453-1.4062-1.4062-1.4062z" fill-rule="evenodd"/>
 <path d="m72.758 35.031h-14.234c-0.64453 0-1.1719-0.52734-1.1719-1.1719v-14.293c0-0.46875 0.29297-0.87891 0.70313-1.0547 0.41016-0.17578 0.9375-0.11719 1.2891 0.23438l14.234 14.293c0.29297 0.35156 0.41016 0.82031 0.23438 1.2891-0.17578 0.41016-0.58594 0.70312-1.0547 0.70312zm-13.062-2.3438h10.25l-10.25-10.25z" fill-rule="evenodd"/>
 <path d="m15.113 51.727h-4.6289c-3.2227 0-5.8008-2.6367-5.8008-5.8008v-2.8125c0-3.2227 2.5781-5.8594 5.8008-5.8594 0.64453 0 1.1719 0.52734 1.1719 1.1719s-0.52734 1.1719-1.1719 1.1719c-1.9336 0-3.457 1.582-3.457 3.5156v2.8125c0 1.875 1.5234 3.457 3.457 3.457h4.6289c0.64453 0 1.1719 0.52734 1.1719 1.1719 0 0.64453-0.52734 1.1719-1.1719 1.1719z" fill-rule="evenodd"/>
 <path d="m83.188 89.164h-10.426c-0.64453 0-1.1719-0.52734-1.1719-1.1719 0-0.64453 0.52734-1.1719 1.1719-1.1719h9.2578v-75.277h-56.883v8.0273c0 0.64453-0.52734 1.1719-1.1719 1.1719-0.64453 0-1.1719-0.52734-1.1719-1.1719v-9.1992c0-0.64453 0.52734-1.1719 1.1719-1.1719h59.227c0.64453 0 1.1719 0.52734 1.1719 1.1719v77.621c0 0.64453-0.52734 1.1719-1.1719 1.1719z" fill-rule="evenodd"/>
 <path d="m94.141 79.965h-10.953c-0.64453 0-1.1719-0.52734-1.1719-1.1719s0.52734-1.1719 1.1719-1.1719h9.7852v-75.277h-59.109v8.0273c0 0.64453-0.52734 1.1719-1.1719 1.1719-0.64453 0-1.1719-0.52734-1.1719-1.1719v-9.1992c0-0.64453 0.52734-1.1719 1.1719-1.1719h61.453c0.64453 0 1.1719 0.52734 1.1719 1.1719v77.68c0 0.58594-0.52734 1.1133-1.1719 1.1133z" fill-rule="evenodd"/>
 <path d="m64.324 54.305h-40.773c-0.64453 0-1.1719-0.52734-1.1719-1.1719 0-0.64453 0.52734-1.1719 1.1719-1.1719h40.773c0.64453 0 1.1719 0.52734 1.1719 1.1719 0 0.64453-0.52734 1.1719-1.1719 1.1719z" fill-rule="evenodd"/>
 <path d="m64.324 69.773h-40.773c-0.64453 0-1.1719-0.52734-1.1719-1.1719 0-0.64453 0.52734-1.1719 1.1719-1.1719h40.773c0.64453 0 1.1719 0.52734 1.1719 1.1719 0 0.64453-0.52734 1.1719-1.1719 1.1719z" fill-rule="evenodd"/>
 <path d="m64.324 85.238h-40.773c-0.64453 0-1.1719-0.52734-1.1719-1.1719 0-0.64453 0.52734-1.1719 1.1719-1.1719h40.773c0.64453 0 1.1719 0.52734 1.1719 1.1719 0 0.64453-0.52734 1.1719-1.1719 1.1719z" fill-rule="evenodd"/>
</svg>