<svg xmlns="http://www.w3.org/2000/svg" version="1.1" viewBox="-5.0 -10.0 110.0 135.0">
 <path d="m38.891 66.668c0-6.1406-4.9727-11.109-11.109-11.109-6.1406 0-11.109 4.9727-11.109 11.109 0 6.1406 4.9727 11.109 11.109 11.109 6.1406 0 11.109-4.9727 11.109-11.109zm-11.113 5.5547c-3.0547 0-5.5547-2.5-5.5547-5.5547 0-3.0547 2.5-5.5547 5.5547-5.5547 3.0547 0 5.5547 2.5 5.5547 5.5547 0 3.0547-2.5 5.5547-5.5547 5.5547zm61.113-30.555h-2.7773l-0.003906-25c0-1.5273-1.25-2.7773-2.7773-2.7773h-8.332v-8.332c0-1.5273-1.25-2.7773-2.7773-2.7773l-55.555-0.003906c-1.5273 0-2.7773 1.25-2.7773 2.7773v25h-2.7773c-4.582 0-8.332 3.75-8.332 8.332v50c0 4.582 3.75 8.332 8.332 8.332h77.777c4.582 0 8.332-3.75 8.332-8.332v-38.891c0-4.582-3.75-8.332-8.332-8.332zm-8.3359 0h-36.109c-0.85937 0-1.6953-0.41797-2.2227-1.1094l-5-6.668c-1.5547-2.082-4.0547-3.332-6.668-3.332v-11.109h50v22.223zm-61.109-33.336h50v5.5547h-41.668c-1.5273 0-2.7773 1.25-2.7773 2.7773v13.891h-5.5547zm-2.3906 83.336c1.25-4.7773 5.5547-8.332 10.723-8.332 5.168 0 9.4727 3.5547 10.723 8.332zm74.613-2.7773c0 1.5273-1.25 2.7773-2.7773 2.7773h-44.695c-1.332-7.8594-8.168-13.891-16.418-13.891s-15.082 6.0273-16.418 13.891h-0.25c-1.5273 0-2.7773-1.25-2.7773-2.7773v-50c0-1.5273 1.25-2.7773 2.7773-2.7773h19.445c0.85937 0 1.6953 0.41797 2.2227 1.1094l5 6.668c1.5547 2.082 4.0547 3.332 6.668 3.332h44.445c1.5273 0 2.7773 1.25 2.7773 2.7773zm-5.5586-5.5586c0 1.5273-1.25 2.7773-2.7773 2.7773h-13.891c-1.5273 0-2.7773-1.25-2.7773-2.7773 0-1.5273 1.25-2.7773 2.7773-2.7773h13.891c1.5273 0 2.7773 1.25 2.7773 2.7773z"/>
</svg>