<svg xmlns="http://www.w3.org/2000/svg" version="1.1" viewBox="-5.0 -10.0 110.0 135.0">
 <path d="m38.309 56.734 21.859 3.5781c4.582 0.75 6.918 5.9258 5.4805 9.8242 1.4062-0.54297 2.8555-1.3633 4.4219-2.3906l13.648-8.9531c2.9766-2.0703 6.7031-1.8672 9.2891-0.57812 3.7266 1.8594 5.0312 5.9297 1.0273 8.8086l-26.434 19c-2.3516 1.7383-5.3164 2.4375-8.1992 1.9258l-19.809-3.2422c-2.0625-0.375-4.1914 0.125-5.8789 1.375l-1.1172 0.80469 1.6641 2.3164c0.24609 0.33984 0.34375 0.76172 0.27344 1.1719-0.074218 0.41406-0.30859 0.77734-0.65234 1.0156l-6.9609 4.8125c-0.625 0.4375-1.4766 0.35156-2.0078-0.19922l-20.965-21.832c-0.32031-0.33203-0.47656-0.78516-0.42969-1.2422 0.050781-0.45703 0.29688-0.87109 0.67578-1.1289l10.355-7.3711c0.34766-0.24609 0.77734-0.33984 1.1914-0.26172 0.41406 0.078125 0.78125 0.32031 1.0156 0.67188l1.6172 2.25 11.734-8.4336v0.003906c2.3516-1.7422 5.3164-2.4375 8.1992-1.9258zm21.844-24.742h-0.003906c-0.60156-0.61328-0.59766-1.5938 0.011718-2.1992s1.5898-0.60547 2.1992 0l2.5586 2.5625 6.2344-6.2344v-0.003906c0.61328-0.59375 1.5898-0.58594 2.1953 0.015624 0.60547 0.60547 0.60938 1.582 0.015625 2.1953l-7.3359 7.3359-0.003906-0.003906v0.003906c-0.29297 0.28906-0.69141 0.45313-1.1055 0.45313-0.41406 0-0.8125-0.16406-1.1016-0.45703l-3.668-3.668zm6.6055-15.059c-5.6484 0-10.738 3.3984-12.898 8.6172-2.1641 5.2148-0.96875 11.223 3.0234 15.215 3.9961 3.9922 10 5.1875 15.215 3.0234 5.2188-2.1602 8.6211-7.25 8.6211-12.895-0.003906-7.7109-6.2539-13.961-13.961-13.961zm0 3.125c-4.3828 0-8.3359 2.6367-10.012 6.6875-1.6797 4.0508-0.75 8.7109 2.3477 11.809 3.0977 3.0977 7.7617 4.0273 11.809 2.3477 4.0508-1.6758 6.6914-5.625 6.6914-10.008 0-2.875-1.1445-5.6328-3.1758-7.6641s-4.7891-3.1719-7.6602-3.1719zm24.25 13.484-0.003906-5.2969h-4.168c-0.78125 0-1.4414-0.57812-1.5469-1.3516-0.48828-2.2695-1.3945-4.4258-2.6641-6.3672-0.40625-0.61719-0.32031-1.4336 0.19922-1.957l2.9492-2.9492-3.7422-3.7461-2.9492 2.9492c-0.54297 0.53906-1.3945 0.60938-2.0156 0.16016-1.7891-1.2227-4.2812-2.2031-6.4141-2.6484h-0.003906c-0.72266-0.14844-1.2383-0.78516-1.2383-1.5234h-0.003906v-4.168h-5.2969v4.168c0 0.78125-0.57812 1.4414-1.3516 1.5469-2.2656 0.48828-4.4258 1.3906-6.3672 2.6641-0.61719 0.40625-1.4336 0.32031-1.957-0.20313l-2.9492-2.9492-3.7461 3.7461 2.9492 2.9492c0.54297 0.54297 0.60938 1.3945 0.16406 2.0156-1.2227 1.7891-2.2031 4.2812-2.6484 6.4141v0.003906c-0.14844 0.72266-0.78906 1.2383-1.5273 1.2383v0.003907h-4.168v5.293h4.168v0.003906c0.78125 0 1.4414 0.57422 1.5469 1.3477 0.48828 2.2695 1.3945 4.4297 2.668 6.3711 0.40234 0.61719 0.31641 1.4336-0.20312 1.957l-2.9492 2.9492 3.7461 3.7461 2.9492-2.9492h-0.003906c0.54297-0.54297 1.3945-0.61328 2.0156-0.16406 1.7891 1.2227 4.2812 2.2031 6.4141 2.6484h0.003906c0.72266 0.14844 1.2422 0.78516 1.2422 1.5234h0.003906v4.168h5.293v-4.1641c0-0.78125 0.57422-1.4414 1.3477-1.5508 2.2695-0.48438 4.4297-1.3906 6.3711-2.6641 0.61719-0.40234 1.4336-0.31641 1.957 0.20313l2.9492 2.9492 3.7461-3.7461-2.9492-2.9492v0.003906c-0.54297-0.54297-0.61328-1.3984-0.16406-2.0195 1.2227-1.7891 2.2031-4.2812 2.6484-6.4141 0.14844-0.72266 0.78906-1.2422 1.5273-1.2422v-0.003907zm3.125-6.8555-0.003906-0.003906c0-0.41406-0.16406-0.8125-0.45703-1.1055s-0.69141-0.45703-1.1055-0.45703h-4.5039c-0.49219-1.8242-1.2188-3.5742-2.1562-5.2148l3.1836-3.1836c0.60938-0.60938 0.60938-1.5977 0-2.2109l-5.9531-5.9531c-0.61328-0.60938-1.6016-0.60938-2.2109 0l-3.1836 3.1836c-1.6367-0.94141-3.3906-1.6641-5.2109-2.1562v-4.5039c0-0.41406-0.16797-0.8125-0.46094-1.1055-0.29297-0.29297-0.6875-0.45703-1.1016-0.45703h-8.4219c-0.86328 0-1.5625 0.69922-1.5625 1.5625v4.5039c-1.8242 0.49219-3.5742 1.2148-5.2148 2.1562l-3.1836-3.1836c-0.60938-0.60938-1.5977-0.60938-2.2109 0l-5.9531 5.9531c-0.60938 0.60938-0.60938 1.6016 0 2.2109l3.1836 3.1836h0.003906c-0.94141 1.6367-1.668 3.3906-2.1602 5.2109h-4.5039c-0.86328 0-1.5625 0.69922-1.5625 1.5625v8.4219c0 0.41406 0.16406 0.8125 0.45703 1.1055 0.29297 0.29297 0.69141 0.45703 1.1055 0.45703h4.5039c0.49219 1.8242 1.2188 3.5742 2.1602 5.2109l-3.1875 3.1875c-0.60938 0.60938-0.60938 1.5977 0 2.207l5.9531 5.9531c0.61328 0.61328 1.6016 0.61328 2.2109 0l3.1836-3.1836c1.6406 0.94141 3.3906 1.668 5.2148 2.1602v4.5039c0 0.41406 0.16406 0.8125 0.45703 1.1055 0.29297 0.29297 0.69141 0.45703 1.1055 0.45703h8.418c0.41406 0 0.8125-0.16406 1.1055-0.45703 0.29297-0.29297 0.45703-0.69141 0.45703-1.1055v-4.5039c1.8242-0.49219 3.5781-1.2188 5.2148-2.1602l3.1836 3.1836v0.003906c0.60938 0.60938 1.5977 0.60938 2.207 0l5.957-5.957c0.60938-0.60938 0.60938-1.5977 0-2.207l-3.1836-3.1836c0.9375-1.6406 1.6641-3.3906 2.1562-5.2148h4.5039c0.41406 0 0.8125-0.16406 1.1055-0.45703s0.45703-0.69141 0.45703-1.1055v-8.418zm-64.969 60.75-14.066-19.57-7.6523 5.4453 18.801 19.574 4.5664-3.1562zm20.062-15.344v0.003906c-0.83984-0.14453-1.4102-0.94141-1.2695-1.7852 0.13672-0.84375 0.92578-1.418 1.7695-1.2891l10.461 1.7109c1.1836-0.035156 1.9531-0.54688 2.3516-1.2695 1.1172-2.0117-0.10547-5.6211-2.875-6.0742l-21.859-3.582c-2.0625-0.37109-4.1914 0.125-5.875 1.3789l-11.734 8.4336 10.586 14.738c1.7188-1.2344 2.8711-2.1055 5.0195-2.6094v-0.003906c1.4102-0.32031 2.8672-0.36328 4.293-0.11719l19.809 3.2422c2.0664 0.37109 4.1914-0.125 5.8789-1.375l26.438-19c1.2578-0.90625 1.4492-1.7109 0.64453-2.5898-0.35938-0.37109-0.78125-0.67578-1.2461-0.89844-1.7188-0.85547-4.1719-1.0078-6.1055 0.32813h0.003906c-0.046875 0.035156-0.089844 0.070312-0.13672 0.10156l-13.598 8.9219c-3.832 2.5156-7.4336 4.1875-11.969 3.4727z" fill-rule="evenodd"/>
</svg>