<svg xmlns="http://www.w3.org/2000/svg" version="1.1" viewBox="-5.0 -10.0 110.0 135.0">
 <g>
  <path d="m44.184 13.879c-2.5898 0-4.6953-2.1055-4.6953-4.6953 0-0.60547-0.48438-1.0898-1.0898-1.0898l-23.43-0.003906c-0.60547 0-1.0898 0.48438-1.0898 1.0898 0 2.5898-2.1055 4.6953-4.6953 4.6953-0.60547 0-1.0898 0.48438-1.0898 1.0898v23.41c0 0.60547 0.48438 1.0898 1.0898 1.0898 2.5898 0 4.6953 2.1055 4.6953 4.6953 0 0.60547 0.48438 1.0898 1.0898 1.0898h23.41c0.60547 0 1.0898-0.48438 1.0898-1.0898 0-2.5898 2.1055-4.6953 4.6953-4.6953 0.60547 0 1.0898-0.48438 1.0898-1.0898l0.003906-23.406c0.015626-0.58984-0.46875-1.0898-1.0742-1.0898zm-1.0938 2.1055v8.3945c-3.7422-2.5898-8.5312-3.0742-12.652-1.4375 0.62109-1.5742 0.95312-3.2578 0.95312-5 0-2.7891-0.84766-5.4258-2.3945-7.6523h8.3789c0.47266 2.9062 2.793 5.2266 5.7148 5.6953zm-16.406 9.0781c-3.3633-4.1367-3.3633-10.105 0-14.242 1.6367 2 2.5156 4.5 2.5156 7.1211-0.003907 2.6211-0.88281 5.1055-2.5156 7.1211zm2.5273 10.375c0 2.6367-0.89453 5.1211-2.5156 7.1211-3.3633-4.1367-3.3633-10.105 0-14.242 1.6211 2 2.5156 4.4883 2.5156 7.1211zm13.352-8.7539c-2 1.6367-4.5 2.5312-7.1211 2.5312s-5.1211-0.89453-7.1211-2.5312c4.1172-3.3672 10.105-3.3672 14.242 0zm-26.578-16.41h8.3945c-2.5898 3.7578-3.0742 8.5312-1.4375 12.668-4.1367-1.6523-8.9102-1.168-12.668 1.4375v-8.3945c2.9219-0.46875 5.2422-2.7891 5.7109-5.7109zm9.0781 16.41c-2 1.6367-4.5 2.5312-7.1211 2.5312s-5.1211-0.89453-7.1211-2.5312c4.1172-3.3672 10.105-3.3672 14.242 0zm-14.789 10.695v-8.3789c2.2266 1.5469 4.8789 2.3945 7.6523 2.3945 1.7422 0 3.4375-0.33203 5-0.95312-1.6523 4.1367-1.168 8.9102 1.4375 12.652h-8.3945c-0.45312-2.9258-2.7734-5.2461-5.6953-5.7148zm27.105 5.7109h-8.3789c1.5469-2.2266 2.3945-4.8789 2.3945-7.6523 0-1.7422-0.33203-3.4258-0.95312-5 1.5742 0.62109 3.2578 0.95312 5 0.95312 2.7891 0 5.4258-0.83203 7.6523-2.3945v8.3789c-2.9258 0.47266-5.2461 2.793-5.7148 5.7148z"/>
  <path d="m92.195 2.2734h-84.391c-3.0469 0-5.5312 2.4844-5.5312 5.5312v84.391c0 3.0469 2.4688 5.5156 5.5156 5.5156h84.406c3.0469 0 5.5156-2.4688 5.5156-5.5156v-84.391c0.015624-3.0469-2.4688-5.5312-5.5156-5.5312zm3.3516 5.5312v41.105h-44.457v-44.457h41.105c1.8516 0 3.3516 1.5 3.3516 3.3516zm-91.094 0c0-1.832 1.5-3.332 3.332-3.332h41.105v44.438h-44.438zm0 84.391v-41.105h44.438v44.438l-41.086 0.003906c-1.8516 0.015625-3.3516-1.4844-3.3516-3.3359zm91.094 0c0 1.832-1.5 3.332-3.332 3.332l-41.125 0.003906v-44.441h44.438l0.003906 41.105z"/>
  <path d="m55.816 39.484c2.5898 0 4.6953 2.1055 4.6953 4.6953 0 0.60547 0.48438 1.0898 1.0898 1.0898h23.41c0.60547 0 1.0898-0.48438 1.0898-1.0898 0-2.5898 2.1055-4.6953 4.6953-4.6953 0.60547 0 1.0898-0.48438 1.0898-1.0898l0.007812-23.426c0-0.60547-0.48438-1.0898-1.0898-1.0898-2.5898 0-4.6953-2.1055-4.6953-4.6953 0-0.60547-0.48438-1.0898-1.0898-1.0898l-23.414-0.003906c-0.60547 0-1.0898 0.48438-1.0898 1.0898 0 2.5898-2.1055 4.6953-4.6953 4.6953-0.60547 0-1.0898 0.48438-1.0898 1.0898v23.41c-0.003907 0.625 0.48047 1.1094 1.0859 1.1094zm1.0938-23.5c2.9258-0.46875 5.2422-2.7891 5.7109-5.7109h21.41c0.46875 2.9258 2.7891 5.2422 5.7109 5.7109v21.41c-2.9258 0.46875-5.2422 2.7891-5.7109 5.7109h-21.41c-0.46875-2.9258-2.7891-5.2422-5.7109-5.7109z"/>
  <path d="m64.695 39.273c0.19531 0.34766 0.5625 0.5625 0.95313 0.5625h15.332c0.39453 0 0.75781-0.21094 0.95312-0.5625 0.92578-1.668 2.2891-3.0312 3.9531-3.9531 0.34766-0.19531 0.5625-0.5625 0.5625-0.95312l0.003906-15.352c0-0.39453-0.21094-0.75781-0.5625-0.95312-1.668-0.92578-3.0312-2.2891-3.9531-3.9531-0.19531-0.34766-0.5625-0.5625-0.95312-0.5625h-15.332c-0.39453 0-0.75781 0.21094-0.95312 0.5625-0.92578 1.668-2.2891 3.0312-3.9531 3.9531-0.34766 0.19531-0.5625 0.5625-0.5625 0.95312v15.332c0 0.39453 0.21094 0.75781 0.5625 0.95312 1.6484 0.92578 3.0273 2.3047 3.9492 3.9727zm-2.332-19.637c1.5742-1 2.9258-2.332 3.9102-3.9102h14.09c1 1.5742 2.332 2.9258 3.9102 3.9102v14.09c-1.5742 1-2.9258 2.332-3.9102 3.9102h-14.09c-1-1.5742-2.332-2.9258-3.9102-3.9102z"/>
  <path d="m44.184 60.516c-2.5898 0-4.6953-2.1055-4.6953-4.6953 0-0.60547-0.48438-1.0898-1.0898-1.0898l-23.43-0.003907c-0.60547 0-1.0898 0.48438-1.0898 1.0898 0 2.5898-2.1055 4.6953-4.6953 4.6953-0.60547 0-1.0898 0.48438-1.0898 1.0898v23.41c0 0.60547 0.48438 1.0898 1.0898 1.0898 2.5898 0 4.6953 2.1055 4.6953 4.6953 0 0.60547 0.48438 1.0898 1.0898 1.0898h23.41c0.60547 0 1.0898-0.48438 1.0898-1.0898 0-2.5898 2.1055-4.6953 4.6953-4.6953 0.60547 0 1.0898-0.48437 1.0898-1.0898l0.003906-23.406c0.015626-0.60547-0.46875-1.0898-1.0742-1.0898zm-1.0938 23.5c-2.9258 0.46875-5.2422 2.7891-5.7109 5.7109h-21.395c-0.46875-2.9258-2.7891-5.2422-5.7109-5.7109v-21.395c2.9258-0.46875 5.2422-2.7891 5.7109-5.7109h21.41c0.46875 2.9258 2.7891 5.2422 5.7109 5.7109v21.395z"/>
  <path d="m35.305 60.742c-0.19531-0.34766-0.5625-0.5625-0.95313-0.5625l-15.336 0.003906c-0.39453 0-0.75781 0.21094-0.95312 0.5625-0.92578 1.668-2.2891 3.0312-3.9531 3.9531-0.34766 0.19531-0.5625 0.5625-0.5625 0.95312v15.332c0 0.39453 0.21094 0.75781 0.5625 0.95312 1.668 0.92578 3.0312 2.2891 3.9531 3.9531 0.19531 0.34766 0.5625 0.5625 0.95312 0.5625h15.332c0.39453 0 0.75781-0.21094 0.95312-0.5625 0.92578-1.668 2.2891-3.0312 3.9531-3.9531 0.34766-0.19531 0.5625-0.5625 0.5625-0.95312v-15.332c0-0.39453-0.21094-0.75781-0.5625-0.95312-1.6484-0.92578-3.0273-2.3047-3.9492-3.957zm2.332 19.621c-1.5742 1-2.9258 2.332-3.9102 3.9102h-14.09c-1-1.5742-2.332-2.9258-3.9102-3.9102v-14.09c1.5742-1 2.9258-2.332 3.9102-3.9102h14.09c1 1.5742 2.332 2.9258 3.9102 3.9102z"/>
  <path d="m32.379 66c-0.21094-0.24219-0.51562-0.37891-0.83203-0.37891h-9.7305c-0.31641 0-0.62109 0.13672-0.83203 0.37891-0.5 0.57422-1.0469 1.1211-1.6211 1.6211-0.24219 0.21094-0.37891 0.51562-0.37891 0.83203v9.7266c0 0.31641 0.13672 0.62109 0.37891 0.83203 0.57422 0.5 1.1211 1.0469 1.6211 1.6211 0.21094 0.24219 0.51562 0.37891 0.83203 0.37891h9.7266c0.31641 0 0.62109-0.13672 0.83203-0.37891 0.5-0.57422 1.0469-1.1211 1.6211-1.6211 0.24219-0.21094 0.37891-0.51562 0.37891-0.83203v-9.7266c0-0.31641-0.13672-0.62109-0.37891-0.83203-0.57031-0.5-1.1172-1.0469-1.6172-1.6211zm-0.19531 11.684c-0.39453 0.36328-0.77344 0.74219-1.1367 1.1367h-8.7422c-0.36328-0.39453-0.74219-0.77344-1.1367-1.1367v-8.7461c0.39453-0.36328 0.77344-0.74219 1.1367-1.1367h8.7422c0.36328 0.39453 0.74219 0.77344 1.1367 1.1367z"/>
  <path d="m55.816 66.758c6.0312 0 10.953-4.9102 10.953-10.938 0-0.60547-0.48438-1.0898-1.0898-1.0898h-9.8633c-0.60547 0-1.0898 0.48438-1.0898 1.0898v9.8477c0 0.60547 0.48438 1.0898 1.0898 1.0898zm1.0938-9.8477h7.6055c-0.5 3.9531-3.6367 7.1055-7.6055 7.5898z"/>
  <path d="m90.816 66.758c0.60547 0 1.0898-0.48437 1.0898-1.0898v-9.8477c0-0.60547-0.48438-1.0898-1.0898-1.0898h-9.9375c-0.60547 0-1.0898 0.48438-1.0898 1.0898-0.015624 6.0273 4.8945 10.938 11.027 10.938zm-1.0898-9.8477v7.6055c-4-0.45312-7.1953-3.6211-7.6953-7.6055z"/>
  <path d="m55.816 91.91h9.8633c0.28906 0 0.5625-0.12109 0.77344-0.31641 0.21094-0.21094 0.31641-0.48438 0.31641-0.77344-0.015625-6.0312-4.9258-10.938-10.953-10.938-0.60547 0-1.0898 0.48438-1.0898 1.0898v9.8477c0 0.60547 0.48438 1.0898 1.0898 1.0898zm1.0938-9.7891c3.9531 0.5 7.1055 3.6367 7.6055 7.5898h-7.6055z"/>
  <path d="m80.879 91.91h9.9375c0.60547 0 1.0898-0.48438 1.0898-1.0898v-9.8477c0-0.60547-0.58984-1.0898-1.1836-1.0898-6.0312 0-10.938 4.9102-10.938 10.938 0 0.28906 0.12109 0.5625 0.31641 0.77344 0.20313 0.19531 0.47266 0.31641 0.77734 0.31641zm8.8477-9.7891v7.6055h-7.6836c0.50391-3.9844 3.6836-7.1523 7.6836-7.6055z"/>
 </g>
</svg>