<svg xmlns="http://www.w3.org/2000/svg" version="1.1" viewBox="-5.0 -10.0 110.0 135.0">
 <path d="m9.4453 82.738h81.109c0.27734 0 0.5-0.22266 0.5-0.5v-67.238c0-0.27734-0.22266-0.5-0.5-0.5h-23.043c-0.27734 0-0.5 0.22266-0.5 0.5v51.438h-18.652v-1.1758c0-1.1055-0.89844-2.0078-2.0078-2.0078h-1.4609v-2.9102h15.508c1.1055 0 2.0078-0.89844 2.0078-2.0078v-28.734c0-1.1055-0.89844-2.0078-2.0078-2.0078h-43.84c-1.1055 0-2.0078 0.89844-2.0078 2.0078v28.738c0 1.1055 0.89844 2.0078 2.0078 2.0078h15.508v2.9102h-1.4609c-1.1055 0-2.0078 0.89844-2.0078 2.0078v1.1758h-19.152c-0.27734 0-0.5 0.22266-0.5 0.5v15.301c0 0.27734 0.22266 0.5 0.5 0.5zm80.605-1h-22.043l0.003907-38.285h22.043v38.285zm-22.043-47.602h22.043v8.3164h-6.5273v-3.3516h0.25781c0.27734 0 0.5-0.22266 0.5-0.5v-2.6836c0-0.27734-0.22266-0.5-0.5-0.5h-9.5039c-0.27734 0-0.5 0.22266-0.5 0.5v2.6836c0 0.27734 0.22266 0.5 0.5 0.5h0.25781v3.3516h-6.5273zm15.246-10.316h-15.246v-2.8711h15.246zm6.7969 1v8.3164h-1.0938v-6.3242c0-0.27734-0.22266-0.5-0.5-0.5h-4.3984c-0.27734 0-0.5 0.22266-0.5 0.5v6.3242h-4.1641l1.4102-4.2305c0.050781-0.15234 0.023437-0.32031-0.066407-0.44922-0.09375-0.12891-0.24609-0.20703-0.40625-0.20703h-9.8125c-0.16016 0-0.3125 0.078125-0.40625 0.20703-0.09375 0.13281-0.12109 0.29688-0.066406 0.44922l1.4141 4.2305h-3.4531v-8.3164zm-2.0938 8.3164h-3.3984v-5.8242h3.3984zm-15.441 0-1.2969-3.8906h8.4258l-1.2969 3.8906zm10.766 4.9648h-8.5039v-1.6836h8.5039zm-0.75781 1v3.3516h-6.9883v-3.3516zm7.5273-23.602v8.3164h-5.7969v-3.3711c0-0.27734-0.22266-0.5-0.5-0.5h-15.746v-4.4453zm-23.043 66.238h-28.031v-14.301h28.031zm-5.6055-25.5h-45.848v-24.539h45.852v24.539zm-44.844-27.645h43.84c0.55469 0 1.0078 0.45312 1.0078 1.0078v1.1016l-45.852-0.003906v-1.1016c0-0.55469 0.44922-1.0078 1.0078-1.0078zm-1.0078 29.742v-1.1016l45.855 0.003906v1.1016c0 0.55469-0.44922 1.0078-1.0078 1.0078l-43.84-0.003906c-0.55469 0-1.0078-0.44922-1.0078-1.0078zm17.512 2.0078h10.828v2.9102h-10.828zm-3.4648 4.918c0-0.55469 0.45312-1.0078 1.0078-1.0078h15.746c0.55469 0 1.0078 0.44922 1.0078 1.0078v1.1758h-17.762zm-19.652 2.1758h28.031v14.301h-28.031zm21.73 2.6641c0 0.27734-0.22266 0.5-0.5 0.5h-14.43c-0.27734 0-0.5-0.22266-0.5-0.5 0-0.27734 0.22266-0.5 0.5-0.5h14.43c0.27734 0 0.5 0.22266 0.5 0.5zm13.602 0c0-0.27734 0.22266-0.5 0.5-0.5h14.43c0.27734 0 0.5 0.22266 0.5 0.5 0 0.27734-0.22266 0.5-0.5 0.5h-14.43c-0.27734 0-0.5-0.22266-0.5-0.5zm-8.6719-18.09 14.609-14.586c0.19531-0.19531 0.51172-0.19531 0.70703 0 0.19531 0.19531 0.19531 0.51172 0 0.70703l-14.609 14.586c-0.097656 0.097656-0.22656 0.14453-0.35547 0.14453-0.12891 0-0.25781-0.050781-0.35547-0.14453-0.19531-0.19531-0.19531-0.51172 0-0.70703zm-2.1328-4.6953 11.652-11.633c0.19531-0.19531 0.51172-0.19531 0.70703 0 0.19531 0.19531 0.19531 0.51172 0 0.70703l-11.652 11.633c-0.097657 0.097656-0.22656 0.14453-0.35547 0.14453-0.12891 0-0.25781-0.050781-0.35547-0.14453-0.19531-0.19531-0.19531-0.51172 0-0.70703zm36.367 9.1836v-9.4609c0-0.27734 0.22266-0.5 0.5-0.5s0.5 0.22266 0.5 0.5v9.4609c0 0.27734-0.22266 0.5-0.5 0.5s-0.5-0.22266-0.5-0.5zm0.125-38.719c0-0.27734 0.22266-0.5 0.5-0.5h15.496c0.27734 0 0.5 0.22266 0.5 0.5v2.6641c0 0.27734-0.22266 0.5-0.5 0.5-0.27734 0-0.5-0.22266-0.5-0.5v-2.1641h-14.996c-0.27734 0-0.5-0.22266-0.5-0.5zm-11.148 67.219c0 0.27734-0.22266 0.5-0.5 0.5h-2.9609c-0.27734 0-0.5-0.22266-0.5-0.5s0.22266-0.5 0.5-0.5h2.9609c0.27734 0 0.5 0.22266 0.5 0.5zm35.18 0c0 0.27734-0.22266 0.5-0.5 0.5h-32.219c-0.27734 0-0.5-0.22266-0.5-0.5s0.22266-0.5 0.5-0.5h32.223c0.27734 0 0.5 0.22266 0.5 0.5zm-41.102 0c0 0.27734-0.22266 0.5-0.5 0.5h-47.895c-0.27734 0-0.5-0.22266-0.5-0.5s0.22266-0.5 0.5-0.5h47.898c0.27734 0 0.5 0.22266 0.5 0.5z"/>
</svg>