<svg xmlns="http://www.w3.org/2000/svg" xmlns:xlink="http://www.w3.org/1999/xlink" version="1.1" x="0px" y="0px" viewBox="0 0 2000 2500" style="enable-background:new 0 0 2000 2000;" xml:space="preserve"><g><polygon points="1025.442,835.143 963.187,1005.522 1090.565,971.551 1175.583,874.198  "/><path d="M1002.4,1367.714l-104.662,136.859c-0.176,0.23-0.401,0.395-0.59,0.608c-0.317,0.359-0.637,0.711-1,1.03   c-0.346,0.304-0.712,0.561-1.086,0.818c-0.236,0.163-0.435,0.369-0.684,0.514c-0.117,0.068-0.251,0.091-0.37,0.155   c-0.588,0.316-1.198,0.552-1.825,0.762c-0.285,0.096-0.556,0.225-0.848,0.297c-0.909,0.229-1.837,0.365-2.774,0.368   c-0.015,0-0.028,0.006-0.043,0.006c-0.002,0-0.004,0-0.004,0c-0.002,0-0.002,0-0.004,0c-0.004,0-0.008-0.002-0.011-0.002   c-1.092-0.002-2.173-0.212-3.237-0.523c-0.225-0.064-0.442-0.121-0.663-0.2c-0.18-0.064-0.367-0.093-0.544-0.166l-74.568-31.041   v171.651c0,6.402,5.208,11.61,11.61,11.61h352.364c6.402,0,11.61-5.208,11.61-11.61v-256.319L1002.4,1367.714z"/><polygon points="1185.069,898.632 1107.5,987.454 1011.893,1345.574 1185.069,1369.097  "/><polygon points="932.461,1026.527 809.485,896.811 809.485,1452.046 878.789,1480.9  "/><polygon points="809.485,561.391 809.485,863.06 940.16,1000.893 1005.948,820.846 950.885,632.002  "/><path d="M965.798,613.499c2.891,1.444,5.053,4.029,5.956,7.135L1019,782.665l59.759-176.059c1.429-4.202,5.128-7.226,9.535-7.785   l96.775-12.26V379.512c0-6.402-5.208-11.61-11.61-11.61H821.095c-6.402,0-11.61,5.208-11.61,11.61v155.925L965.798,613.499z"/><polygon points="1033.168,813.156 1185.069,852.671 1185.069,609.969 1098.415,620.944  "/><polygon points="725.084,792.461 725.084,697.734 418.414,793.747 538.639,891.363  "/><circle cx="537.294" cy="381.733" r="42.192"/><circle cx="1462.708" cy="385.656" r="42.192"/><polygon points="725.084,1045.011 725.084,818.747 558.095,907.332  "/><path d="M604.968,1473.795c-1.24,0.423-2.521,0.635-3.794,0.635c-3.027,0-5.994-1.187-8.208-3.401l-185.288-185.288   c-0.053-0.053-0.068-0.127-0.121-0.182c-0.956-0.994-1.718-2.148-2.273-3.424c-0.064-0.147-0.138-0.283-0.195-0.435   c-0.465-1.202-0.71-2.49-0.748-3.836c-0.006-0.2-0.019-0.389-0.015-0.588c0.006-0.204-0.03-0.401-0.015-0.607   c0.083-1.128,0.376-2.181,0.756-3.19c0.068-0.189,0.136-0.367,0.215-0.552c0.548-1.255,1.3-2.375,2.226-3.348   c0.072-0.078,0.094-0.181,0.17-0.257l118.003-118.003V910.749L386.99,798.137c-0.295-0.238-0.457-0.571-0.722-0.831   c-0.582-0.571-1.141-1.143-1.599-1.837c-0.319-0.488-0.527-1.005-0.769-1.531c-0.212-0.457-0.52-0.847-0.675-1.342   c-0.083-0.268-0.102-0.539-0.166-0.809c-0.053-0.217-0.094-0.427-0.132-0.646c-0.206-1.156-0.263-2.303-0.125-3.424   c0.017-0.136,0.059-0.265,0.079-0.399c0.198-1.242,0.554-2.449,1.128-3.552c0.002-0.002,0.002-0.004,0.002-0.006l0.002-0.004   c0.004-0.008,0.008-0.013,0.011-0.021l99.464-190.895c2.649-5.094,8.636-7.498,14.078-5.608l227.517,78.419V525.821   c0-6.402-5.208-11.61-11.61-11.61H361.11c-6.402,0-11.61,5.208-11.61,11.61v1009.387c0,6.402,5.208,11.61,11.61,11.61h352.364   c6.402,0,11.61-5.208,11.61-11.61V1432.26L604.968,1473.795z"/><polygon points="725.084,1186.185 613.547,1290.775 725.084,1390.078  "/><polygon points="592.123,1279.036 707.839,1170.527 542.022,1167.814 441.999,1267.837  "/><polygon points="714.181,1411.461 591.556,1302.282 446.211,1291.438 604.247,1449.472  "/><polygon points="417.524,769.691 699.529,681.402 499.456,612.441  "/><polygon points="725.084,1075.102 548.9,929.843 548.9,1144.708 725.084,1147.583  "/><path d="M1471.57,805.677c0.161,0.191,0.283,0.404,0.431,0.603C1471.854,806.081,1471.725,805.86,1471.57,805.677z"/><path d="M1638.89,514.211h-352.364c-6.402,0-11.61,5.208-11.61,11.61v82.361c137.828,137.352,179.366,179.272,192.265,192.956   c17.301-2.955,78.593-17.067,133.267-30.226c4.097-0.998,8.409,0.325,11.266,3.432c2.853,3.107,3.798,7.513,2.468,11.512   l-70.694,212.705l80.305,154.962c1.583,3.061,1.727,6.674,0.389,9.849l-82.557,196.082c-0.036,0.087-0.098,0.157-0.136,0.242   c-0.266,0.593-0.595,1.153-0.958,1.695c-0.098,0.147-0.172,0.312-0.278,0.455c-0.488,0.661-1.049,1.27-1.676,1.82   c-0.144,0.127-0.312,0.221-0.463,0.34c-0.489,0.389-0.998,0.754-1.557,1.064c-0.283,0.159-0.586,0.274-0.884,0.408   c-0.325,0.146-0.624,0.329-0.968,0.446l-259.788,89.407v79.88c0,6.402,5.208,11.61,11.61,11.61h352.364   c6.402,0,11.61-5.208,11.61-11.61V525.821C1650.5,519.419,1645.292,514.211,1638.89,514.211z"/><path d="M1274.916,640.966v221.55l138.49,25.347l35.366-72.608C1427.319,793.182,1341.767,707.632,1274.916,640.966z"/><polygon points="1274.916,1127.763 1510.952,997.329 1414.699,911.703 1274.916,886.123  "/><polygon points="1526.103,1015.48 1285.782,1148.29 1526.122,1336.443 1600.671,1159.371  "/><polygon points="1274.916,1169.269 1274.916,1430.776 1506.953,1350.921  "/><circle cx="1462.71" cy="399.617" r="28.231"/><path d="M1470.314,824.062l-36.035,73.982l91.189,81.117l60.086-180.783C1518.42,814.524,1486.351,822.078,1470.314,824.062z"/><polygon points="955.235,1031.671 905.013,1456.84 986.657,1350.082 1080.588,998.24  "/><g><path d="M441.83,490.991l56.018-57.202c-5.731-4.352-10.714-9.617-14.741-15.584c-2.795-4.142-8.561-4.867-12.057-1.297    l-59.665,60.929c-4.797,4.899-1.327,13.155,5.53,13.155H441.83z"/><path d="M663.204,477.836l-59.665-60.929c-3.496-3.57-9.262-2.845-12.057,1.297c-4.027,5.967-9.01,11.232-14.741,15.584    l56.018,57.202h24.917C664.53,490.991,668.001,482.735,663.204,477.836z"/></g><g><path d="M1581.041,477.836l-53.62-54.756c-3.401-3.473-9.001-2.9-11.866,1.027c-4.301,5.894-9.563,11.041-15.556,15.218    l50.594,51.666h24.918C1582.367,490.991,1585.838,482.735,1581.041,477.836z"/><path d="M1374.828,490.991l50.593-51.662c-5.994-4.177-11.255-9.324-15.556-15.218c-2.865-3.926-8.465-4.5-11.866-1.027    l-53.618,54.752c-4.797,4.899-1.327,13.155,5.53,13.155H1374.828z"/></g></g></svg>