<svg xmlns="http://www.w3.org/2000/svg" xmlns:xlink="http://www.w3.org/1999/xlink" version="1.1" x="0px" y="0px" viewBox="0 0 2000 2500" style="enable-background:new 0 0 2000 2000;" xml:space="preserve"><g><g><g><g><g><path d="M1376.9,791.1c-41.5,0-80.7-15.5-110.5-43.7c-28.4-27-46.2-63.1-50.1-101.9c-0.6-6.2,3.9-11.7,10.1-12.4       c6.2-0.6,11.7,3.9,12.4,10.1c7.1,71.4,66.5,125.3,138.1,125.3c5.1,0,10.2-0.3,15.2-0.8c6.2-0.7,11.8,3.8,12.4,10       c0.7,6.2-3.8,11.8-10,12.4C1388.7,790.8,1382.8,791.1,1376.9,791.1z"/></g><g><path d="M1521.1,600.1c-4.9,0-9.4-3.2-10.8-8.1c-3.1-10.7-7.6-21.2-13.4-31.2l-104.6-181.1c-3.2-5.6-9-8.9-15.4-8.9       s-12.2,3.3-15.4,8.9l-63,109.2c-3.1,5.4-10,7.3-15.4,4.1c-5.4-3.1-7.3-10-4.1-15.4l63-109.2c7.3-12.6,20.4-20.2,34.9-20.2       c14.6,0,27.7,7.5,34.9,20.2l104.6,181.1c6.6,11.5,11.9,23.7,15.5,36.2c1.7,6-1.7,12.3-7.7,14       C1523.2,599.9,1522.1,600.1,1521.1,600.1z"/></g><g><path d="M1205.8,657.9c-41.1,0-77.9-21.2-98.4-56.8s-20.5-78.1,0-113.6l71.4-123.7c5.6-9.7,15.7-15.6,27-15.6s21.3,5.8,27,15.6       l71.4,123.7c20.5,35.6,20.5,78.1,0,113.6C1283.7,636.6,1246.9,657.9,1205.8,657.9z M1205.8,370.7c-1.5,0-5.2,0.4-7.4,4.3       L1127,498.7c-16.5,28.5-16.5,62.5,0,91s45.9,45.5,78.8,45.5s62.4-17,78.8-45.5c16.5-28.5,16.5-62.5,0-91L1213.2,375       C1211,371.2,1207.3,370.7,1205.8,370.7z"/></g></g><g><path d="M1468.6,791.1c-0.1,0-0.1,0-0.2,0c-11.5,0-22.4-4.5-30.6-12.7c-0.4-0.4-0.7-0.8-1-1.1l-51.2-51.2      c-16.9-16.9-16.9-44.3,0-61.2s44.3-16.9,61.2,0l21.7,21.7l89.1-89.1c16.9-16.9,44.3-16.9,61.2,0l0,0c16.9,16.9,16.9,44.3,0,61.2      l-118.7,118.7c-0.2,0.3-0.6,0.7-1,1.1C1491,786.6,1480.1,791.1,1468.6,791.1z M1468.5,768.5L1468.5,768.5c5.4,0,10.5-2,14.3-5.7      c0.2-0.2,0.5-0.5,0.8-0.9c0.1-0.1,0.1-0.1,0.2-0.2l119.1-119.1c8.1-8.1,8.1-21.2,0-29.3s-21.2-8.1-29.3,0l-97.1,97.1      c-2.1,2.1-5,3.3-8,3.3s-5.9-1.2-8-3.3l-29.6-29.6c-8.1-8.1-21.2-8.1-29.3,0c-8.1,8.1-8.1,21.2,0,29.3l51.7,51.7      c0.1,0.1,0.1,0.1,0.2,0.2c0.3,0.3,0.5,0.6,0.7,0.8C1458,766.5,1463.1,768.5,1468.5,768.5L1468.5,768.5z"/></g></g><g><g><g><path d="M1582.6,1651.8h-562.9c-6.2,0-11.3-5.1-11.3-11.3V987.1H942c-6.2,0-11.3-5.1-11.3-11.3v-80c0-36.2,29.4-65.6,65.6-65.6       h573.3c0.9,0,1.8,0.1,2.7,0.3c33.1,3.3,59,31.3,59,65.2l0.2,707.1c0,13.1-5.1,25.4-14.3,34.6       C1607.9,1646.8,1595.6,1651.8,1582.6,1651.8z M1030.9,1629.3h551.7c7,0,13.7-2.7,18.6-7.7c5-5,7.7-11.6,7.7-18.6l-0.2-707.1       c0-23.7-19.3-43-43-43s-43,19.3-43,43v80c0,6.2-5.1,11.3-11.3,11.3h-480.5V1629.3L1030.9,1629.3z M953.3,964.5h546.8v-68.7       c0-16.4,6.1-31.5,16.1-43H996.3c-23.7,0-43,19.3-43,43V964.5z"/></g><g><g><g><path d="M1620,1069.6h-600.4c-6.2,0-11.3-5.1-11.3-11.3s5.1-11.3,11.3-11.3H1620c6.2,0,11.3,5.1,11.3,11.3         S1626.3,1069.6,1620,1069.6z"/></g></g><g><path d="M1620,1232.1h-600.4c-6.2,0-11.3-5.1-11.3-11.3s5.1-11.3,11.3-11.3H1620c6.2,0,11.3,5.1,11.3,11.3        S1626.3,1232.1,1620,1232.1z"/></g><g><path d="M1620.1,1400.4h-600.5c-6.2,0-11.3-5.1-11.3-11.3s5.1-11.3,11.3-11.3h600.5c6.2,0,11.3,5.1,11.3,11.3        S1626.4,1400.4,1620.1,1400.4z"/></g><g><path d="M1620.2,1562.4h-600.6c-6.2,0-11.3-5.1-11.3-11.3s5.1-11.3,11.3-11.3h600.6c6.2,0,11.3,5.1,11.3,11.3        S1626.4,1562.4,1620.2,1562.4z"/></g><g><g><path d="M1620.2,1150.9h-600.6c-6.2,0-11.3-5.1-11.3-11.3s5.1-11.3,11.3-11.3h600.6c6.2,0,11.3,5.1,11.3,11.3         S1626.4,1150.9,1620.2,1150.9z"/></g></g><g><path d="M1620.2,1314.3h-600.6c-6.2,0-11.3-5.1-11.3-11.3s5.1-11.3,11.3-11.3h600.6c6.2,0,11.3,5.1,11.3,11.3        S1626.4,1314.3,1620.2,1314.3z"/></g><g><path d="M1616.9,1482.6h-597.3c-6.2,0-11.3-5.1-11.3-11.3s5.1-11.3,11.3-11.3h597.3c6.2,0,11.3,5.1,11.3,11.3        C1628.2,1477.6,1623.1,1482.6,1616.9,1482.6z"/></g></g></g><g><g><g><path d="M1019.6,1651.8L1019.6,1651.8l-562.6-0.3c-27,0-48.9-22-48.9-48.9V493.7c0-6.2,5.1-11.3,11.3-11.3s11.3,5.1,11.3,11.3        v1108.9c0,14.5,11.8,26.3,26.3,26.3l562.6,0.3c6.2,0,11.3,5.1,11.3,11.3C1030.9,1646.8,1025.9,1651.8,1019.6,1651.8z"/></g><g><path d="M1019.7,852.9L1019.7,852.9c-6.2,0-11.3-5.1-11.3-11.3V413.8c0-23.7-19.3-43-43-43s-43,19.3-43,43v80        c0,6.2-5.1,11.3-11.3,11.3H341.8c-6.2,0-11.3-5.1-11.3-11.3v-80c0-36.2,29.4-65.6,65.6-65.6h573.3c0.9,0,1.8,0.1,2.7,0.3        c33.1,3.3,59,31.3,59,65.2v427.9C1031,847.8,1025.9,852.9,1019.7,852.9z M353.1,482.4h546.8v-68.7c0-16.4,6.1-31.5,16.1-43        H396.1c-23.7,0-43,19.3-43,43V482.4L353.1,482.4z"/></g></g><g><g><g><g><g><path d="M700.2,787.5c-19.3,0-35.4-14.1-38.5-32.6c-6.6,4.7-14.4,7.3-22.7,7.3c-10.4,0-20.2-4.1-27.6-11.4           c-7.4-7.4-11.4-17.1-11.4-27.6c0-8.3,2.6-16.1,7.3-22.7c-18.5-3-32.6-19.1-32.6-38.5s14.1-35.4,32.6-38.5           c-4.7-6.6-7.3-14.4-7.3-22.7c0-10.4,4.1-20.2,11.4-27.6c13.7-13.7,35-15,50.3-4.1c3-18.5,19.1-32.6,38.5-32.6           c19.3,0,35.4,14.1,38.5,32.6c15.2-10.9,36.6-9.5,50.3,4.1c7.4,7.4,11.4,17.1,11.4,27.6c0,8.3-2.6,16.1-7.3,22.7           c18.5,3,32.6,19.1,32.6,38.5c0,19.3-14.1,35.4-32.6,38.5c4.7,6.6,7.3,14.4,7.3,22.7c0,10.4-4.1,20.2-11.4,27.6           c-7.4,7.4-17.1,11.4-27.6,11.4c-8.3,0-16.1-2.6-22.7-7.3C735.6,773.3,719.5,787.5,700.2,787.5z M672.5,717.5           c1.5,0,2.9,0.3,4.3,0.9c4.2,1.7,7,5.9,7,10.4v19.7c0,9,7.4,16.4,16.4,16.4s16.4-7.4,16.4-16.4v-19.7c0-4.6,2.8-8.7,7-10.4           s9.1-0.8,12.3,2.4l13.9,13.9c3.1,3.1,7.2,4.8,11.6,4.8c4.4,0,8.5-1.7,11.6-4.8s4.8-7.2,4.8-11.6c0-4.4-1.7-8.5-4.8-11.6           l-14-13.9c-3.2-3.2-4.2-8.1-2.4-12.3c1.7-4.2,5.9-7,10.4-7h19.7c9,0,16.4-7.4,16.4-16.4s-7.4-16.4-16.4-16.4H767           c-4.6,0-8.7-2.8-10.4-7s-0.8-9.1,2.4-12.3l13.9-13.9c3.1-3.1,4.8-7.2,4.8-11.6s-1.7-8.5-4.8-11.6c-6.4-6.4-16.8-6.4-23.2,0           L735.8,603c-3.2,3.2-8.1,4.2-12.3,2.4c-4.2-1.7-7-5.9-7-10.4v-19.7c0-9-7.4-16.4-16.4-16.4s-16.4,7.4-16.4,16.4V595           c0,4.6-2.8,8.7-7,10.4s-9.1,0.8-12.3-2.4l-13.9-13.9c-6.4-6.4-16.8-6.4-23.2,0c-3.1,3.1-4.8,7.2-4.8,11.6s1.7,8.5,4.8,11.6           l13.9,13.9c3.2,3.2,4.2,8.1,2.4,12.3c-1.7,4.2-5.9,7-10.4,7h-19.7c-9,0-16.4,7.4-16.4,16.4s7.4,16.4,16.4,16.4h19.7           c4.6,0,8.7,2.8,10.4,7s0.8,9.1-2.4,12.3l-13.9,13.9c-3.1,3.1-4.8,7.2-4.8,11.6c0,4.4,1.7,8.5,4.8,11.6s7.2,4.8,11.6,4.8           c4.4,0,8.5-1.7,11.6-4.8l13.9-13.9C666.6,718.7,669.5,717.5,672.5,717.5z"/></g><g><path d="M700.2,706.3c-24.4,0-44.3-19.9-44.3-44.3s19.9-44.3,44.3-44.3c24.4,0,44.3,19.9,44.3,44.3           S724.6,706.3,700.2,706.3z M700.2,640.3c-12,0-21.7,9.7-21.7,21.7s9.7,21.7,21.7,21.7s21.7-9.7,21.7-21.7           S712.1,640.3,700.2,640.3z"/></g></g></g><g><path d="M700.2,960.5c-6.2,0-11.3-5.1-11.3-11.3v-173c0-6.2,5.1-11.3,11.3-11.3s11.3,5.1,11.3,11.3v173         C711.4,955.4,706.4,960.5,700.2,960.5z"/></g></g><g><g><g><path d="M492.6,1346.4c-19.3,0-35.4-14.1-38.5-32.6c-10.8,7.7-24.8,9.5-37.4,4.4c-5.8-2.3-8.6-8.9-6.2-14.7          c2.3-5.8,8.9-8.6,14.7-6.2c6.1,2.5,13.1,1.1,17.8-3.6l13.9-13.9c3.2-3.2,8.1-4.2,12.3-2.4c4.2,1.7,7,5.9,7,10.4v19.7          c0,9,7.4,16.4,16.4,16.4s16.4-7.4,16.4-16.4v-19.7c0-4.6,2.8-8.7,7-10.4c4.2-1.7,9.1-0.8,12.3,2.4l13.9,13.9          c3.1,3.1,7.2,4.8,11.6,4.8c4.4,0,8.5-1.7,11.6-4.8c6.4-6.4,6.4-16.8,0-23.2l-13.9-13.9c-3.2-3.2-4.2-8.1-2.4-12.3          c1.7-4.2,5.9-7,10.4-7h19.7c9,0,16.4-7.4,16.4-16.4s-7.4-16.4-16.4-16.4h-19.7c-4.6,0-8.7-2.8-10.4-7s-0.8-9.1,2.4-12.3          l13.9-13.9c3.1-3.1,4.8-7.2,4.8-11.6s-1.7-8.5-4.8-11.6s-7.2-4.8-11.6-4.8c-4.4,0-8.5,1.7-11.6,4.8l-13.9,13.9          c-3.2,3.2-8.1,4.2-12.3,2.4c-4.2-1.7-7-5.9-7-10.4v-19.7c0-9-7.4-16.4-16.4-16.4s-16.4,7.4-16.4,16.4v19.7          c0,4.6-2.8,8.7-7,10.4c-4.2,1.8-9.1,0.8-12.3-2.4l-13.9-13.9c-4.4-4.4-11.1-6-17.1-3.9c-5.9,2.1-12.3-1-14.4-6.9          s1-12.3,6.9-14.4c12.1-4.3,25.5-2.2,35.7,5.1c3-18.5,19.1-32.6,38.5-32.6c19.3,0,35.4,14.1,38.5,32.6          c6.6-4.7,14.4-7.3,22.7-7.3c10.4,0,20.2,4.1,27.6,11.4c7.4,7.4,11.4,17.1,11.4,27.6c0,8.3-2.6,16.1-7.3,22.7          c18.5,3,32.6,19.1,32.6,38.5c0,19.3-14.1,35.4-32.6,38.5c10.9,15.2,9.5,36.6-4.1,50.3c-13.7,13.7-35,15-50.3,4.1          C528,1332.3,511.9,1346.4,492.6,1346.4z"/></g><g><path d="M492.6,1265.2c-24.4,0-44.3-19.9-44.3-44.3s19.9-44.3,44.3-44.3s44.3,19.9,44.3,44.3S517,1265.2,492.6,1265.2z           M492.6,1199.2c-12,0-21.7,9.7-21.7,21.7s9.7,21.7,21.7,21.7s21.7-9.7,21.7-21.7S504.5,1199.2,492.6,1199.2z"/></g></g></g><g><g><g><path d="M948.2,1558.1c-19.3,0-35.4-14.1-38.5-32.6c-6.6,4.7-14.4,7.3-22.7,7.3c-10.4,0-20.2-4.1-27.6-11.4          c-13.7-13.7-15-35-4.1-50.3c-18.5-3-32.6-19.1-32.6-38.5c0-19.3,14.1-35.4,32.6-38.5c-10.9-15.2-9.5-36.6,4.1-50.3          c13.7-13.7,35-15,50.3-4.1c3-18.5,19.1-32.6,38.5-32.6s35.4,14.1,38.5,32.6c10.8-7.7,24.8-9.5,37.4-4.4          c5.8,2.3,8.6,8.9,6.2,14.7s-8.9,8.6-14.7,6.2c-6.1-2.5-13.1-1.1-17.8,3.6l-13.9,13.9c-3.2,3.2-8.1,4.2-12.3,2.4          c-4.2-1.7-7-5.9-7-10.4V1346c0-9-7.4-16.4-16.4-16.4s-16.4,7.4-16.4,16.4v19.7c0,4.6-2.8,8.7-7,10.4          c-4.2,1.8-9.1,0.8-12.3-2.4l-13.9-13.9c-3.1-3.1-7.2-4.8-11.6-4.8c-4.4,0-8.5,1.7-11.6,4.8c-6.4,6.4-6.4,16.8,0,23.2          l13.9,13.9c3.2,3.2,4.2,8.1,2.4,12.3c-1.7,4.2-5.9,7-10.4,7h-19.7c-9,0-16.4,7.4-16.4,16.4s7.4,16.4,16.4,16.4h19.7          c4.6,0,8.7,2.8,10.4,7s0.8,9.1-2.4,12.3l-13.9,13.9c-6.4,6.4-6.4,16.8,0,23.2c6.4,6.4,16.8,6.4,23.2,0l13.9-13.9          c3.2-3.2,8.1-4.2,12.3-2.4c4.2,1.7,7,5.9,7,10.4v19.7c0,9,7.4,16.4,16.4,16.4s16.4-7.4,16.4-16.4v-19.7          c0-4.6,2.8-8.7,7-10.4c4.2-1.8,9.1-0.8,12.3,2.4l13.9,13.9c4.4,4.4,11.1,6,17.1,3.9c5.9-2.1,12.3,1,14.4,6.9          s-1,12.3-6.9,14.4c-12.1,4.3-25.5,2.2-35.7-5.1C983.6,1544,967.5,1558.1,948.2,1558.1z"/></g><g><path d="M948.2,1476.9c-24.4,0-44.3-19.9-44.3-44.3s19.9-44.3,44.3-44.3c24.4,0,44.3,19.9,44.3,44.3          C992.4,1457.1,972.6,1476.9,948.2,1476.9z M948.2,1411c-12,0-21.7,9.7-21.7,21.7s9.7,21.7,21.7,21.7s21.7-9.7,21.7-21.7          S960.1,1411,948.2,1411z"/></g></g></g><g><g><g><path d="M585.3,944.9c-8,0-16.1-1.3-24.1-3.9c-14.2-4.6-27.5-11.4-39.7-20.3l0,0c-42.8-31.2-64.6-83.2-56.8-135.8          c0.5-3.7,2.8-6.8,6.2-8.5c47.6-23.5,103.8-18.8,146.7,12.4c12.2,8.9,22.7,19.5,31.5,31.5c19.9,27.6,19.6,63.5-0.9,91.6          C632.7,933.2,609.6,944.9,585.3,944.9z M534.8,902.5c10.2,7.5,21.5,13.2,33.4,17.1c27.8,9,50.1-4.8,61.7-20.8          s17.9-41.4,0.8-65.1c-7.3-10.1-16.2-19.1-26.5-26.5c-34.4-25.1-79.1-29.8-117.9-13C482.2,836.4,500.4,877.4,534.8,902.5          L534.8,902.5z"/></g></g><g><path d="M639.8,1055.1c-6.2,0-11.3-5.1-11.3-11.3v-60.5c0-89.4-66.8-165.1-155.5-176c-6.2-0.8-10.6-6.4-9.8-12.6         s6.4-10.6,12.6-9.8c99.9,12.3,175.3,97.6,175.3,198.5v60.5C651.1,1050,646,1055.1,639.8,1055.1z"/></g></g><g><g><g><path d="M847.9,1215.6c-24.3,0-47.4-11.7-62.8-32.8c-20.5-28.1-20.8-64-0.9-91.6c8.7-12.1,19.3-22.7,31.5-31.5          c42.8-31.2,99-36,146.7-12.4c3.3,1.6,5.6,4.8,6.2,8.5c7.8,52.5-14,104.6-56.8,135.8c-12.2,8.9-25.5,15.7-39.7,20.3          C864,1214.3,855.9,1215.6,847.9,1215.6z M899.2,1054.9c-24.8,0-49.4,7.7-70.2,22.9c-10.2,7.4-19.1,16.4-26.5,26.5          c-17.1,23.6-10.8,49.1,0.8,65.1c11.6,15.9,33.9,29.8,61.7,20.8c11.9-3.9,23.1-9.6,33.4-17.1c34.4-25.1,52.7-66.1,48.5-108.3          C931.6,1058.2,915.4,1054.9,899.2,1054.9z"/></g></g><g><path d="M793.4,1325.8c-6.2,0-11.3-5.1-11.3-11.3V1254c0-100.8,75.4-186.1,175.3-198.5c6.2-0.8,11.8,3.6,12.6,9.8         c0.8,6.2-3.6,11.8-9.8,12.6c-88.6,10.9-155.5,86.6-155.5,176v60.5C804.7,1320.7,799.7,1325.8,793.4,1325.8z"/></g></g><g><g><g><path d="M654.1,1600.9c-8,0-16.1-1.3-24.1-3.9c-14.2-4.6-27.5-11.4-39.7-20.3l0,0c-42.8-31.2-64.6-83.2-56.8-135.8          c0.5-3.7,2.8-6.8,6.2-8.5c47.6-23.5,103.8-18.8,146.7,12.4c12.2,8.9,22.7,19.5,31.5,31.5c19.9,27.6,19.6,63.5-0.9,91.6          C701.6,1589.2,678.4,1600.9,654.1,1600.9z M555.1,1450.2c-4.1,42.2,14.1,83.2,48.5,108.3c10.2,7.5,21.5,13.2,33.4,17.1          c27.8,9,50.1-4.8,61.7-20.8c11.6-16,17.9-41.4,0.8-65.1c-7.3-10.1-16.2-19.1-26.5-26.5          C638.7,1438.1,594,1433.3,555.1,1450.2z"/></g></g><g><path d="M708.7,1650.5c-6.2,0-11.3-5.1-11.3-11.3c0-89.4-66.8-165.1-155.5-176c-6.2-0.8-10.6-6.4-9.8-12.6s6.4-10.6,12.6-9.8         c99.9,12.3,175.3,97.6,175.3,198.5C720,1645.5,714.9,1650.5,708.7,1650.5z"/></g></g><g><path d="M915.2,648c-26.2,0-47.5-21.3-47.5-47.5S889,553,915.2,553s47.5,21.3,47.5,47.5S941.4,648,915.2,648z M915.2,575.6        c-13.7,0-24.9,11.2-24.9,24.9s11.2,24.9,24.9,24.9s24.9-11.2,24.9-24.9C940.1,586.8,928.9,575.6,915.2,575.6z"/></g><g><path d="M680.8,1382.6c-26.2,0-47.5-21.3-47.5-47.5s21.3-47.5,47.5-47.5s47.5,21.3,47.5,47.5        C728.3,1361.3,707,1382.6,680.8,1382.6z M680.8,1310.2c-13.7,0-24.9,11.2-24.9,24.9c0,13.7,11.2,24.9,24.9,24.9        s24.9-11.2,24.9-24.9S694.5,1310.2,680.8,1310.2z"/></g></g></g></g></g></g></svg>