<svg xmlns="http://www.w3.org/2000/svg" version="1.1" viewBox="-5.0 -10.0 110.0 135.0">
 <path d="m87.5 97.223h-75c-0.76562 0-1.3906-0.62109-1.3906-1.3906v-5.5547c0-0.76562 0.62109-1.3906 1.3906-1.3906h75c0.76562 0 1.3906 0.62109 1.3906 1.3906v5.5547c0 0.76953-0.625 1.3906-1.3906 1.3906zm-73.609-2.7773h72.223v-2.7773h-72.223z"/>
 <path d="m54.168 91.668h-38.891c-0.76562 0-1.3906-0.62109-1.3906-1.3906v-69.445c0-0.76562 0.62109-1.3906 1.3906-1.3906h38.891c0.76562 0 1.3906 0.62109 1.3906 1.3906v69.445c-0.003906 0.76953-0.625 1.3906-1.3906 1.3906zm-37.5-2.7773h36.109v-66.668h-36.109z"/>
 <path d="m34.723 91.668c-0.76562 0-1.3906-0.62109-1.3906-1.3906v-69.445c0-0.76562 0.62109-1.3906 1.3906-1.3906 0.76562 0 1.3906 0.62109 1.3906 1.3906v69.445c-0.003906 0.76953-0.625 1.3906-1.3906 1.3906z"/>
 <path d="m40.277 58.332c-0.76562 0-1.3906-0.62109-1.3906-1.3906v-2.7773c0-0.76562 0.62109-1.3906 1.3906-1.3906 0.76562 0 1.3906 0.62109 1.3906 1.3906v2.7773c0 0.76953-0.62109 1.3906-1.3906 1.3906z"/>
 <path d="m29.168 58.332c-0.76562 0-1.3906-0.62109-1.3906-1.3906v-2.7773c0-0.76562 0.62109-1.3906 1.3906-1.3906 0.76562 0 1.3906 0.62109 1.3906 1.3906v2.7773c-0.003906 0.76953-0.625 1.3906-1.3906 1.3906z"/>
 <path d="m87.5 22.223h-75c-0.76562 0-1.3906-0.62109-1.3906-1.3906v-5.5547c0-0.76562 0.62109-1.3906 1.3906-1.3906h11.926c8.3008-6.9805 14.156-11.109 25.574-11.109 11.445 0 17.312 4.1602 25.574 11.109l11.926 0.003906c0.76562 0 1.3906 0.62109 1.3906 1.3906v5.5547c0 0.76562-0.625 1.3867-1.3906 1.3867zm-73.609-2.7773h72.223l-0.003906-2.7773h-11.109c-0.36719 0-0.72266-0.14453-0.98047-0.40625-0.67578-0.46875-8.6914-10.707-24.02-10.707-15.332 0-23.363 10.25-24.02 10.703-0.25781 0.26172-0.61328 0.41016-0.98047 0.41016h-11.109z"/>
 <path d="m84.723 91.668c-0.76562 0-1.3906-0.62109-1.3906-1.3906v-69.445c0-0.76562 0.62109-1.3906 1.3906-1.3906 0.76562 0 1.3906 0.62109 1.3906 1.3906v69.445c-0.003906 0.76953-0.625 1.3906-1.3906 1.3906z"/>
 <path d="m84.723 91.668h-30.555c-0.76562 0-1.3906-0.62109-1.3906-1.3906v-13.891c0-0.76562 0.62109-1.3906 1.3906-1.3906h30.555c0.76562 0 1.3906 0.62109 1.3906 1.3906v13.891c-0.003906 0.76953-0.625 1.3906-1.3906 1.3906zm-29.168-2.7773h27.777v-11.109l-27.777-0.003906z"/>
 <path d="m70.832 84.723h-2.7773c-0.76563 0-1.3906-0.62109-1.3906-1.3906 0-0.76562 0.62109-1.3906 1.3906-1.3906h2.7773c0.76562 0 1.3906 0.62109 1.3906 1.3906s-0.62109 1.3906-1.3906 1.3906z"/>
 <path d="m84.723 77.777h-30.555c-0.76562 0-1.3906-0.62109-1.3906-1.3906v-13.891c0-0.76562 0.62109-1.3906 1.3906-1.3906h30.555c0.76562 0 1.3906 0.62109 1.3906 1.3906v13.891c-0.003906 0.76953-0.625 1.3906-1.3906 1.3906zm-29.168-2.7773h27.777v-11.109h-27.777z"/>
 <path d="m70.832 70.832h-2.7773c-0.76563 0-1.3906-0.62109-1.3906-1.3906 0-0.76562 0.62109-1.3906 1.3906-1.3906h2.7773c0.76562 0 1.3906 0.62109 1.3906 1.3906 0 0.76953-0.62109 1.3906-1.3906 1.3906z"/>
 <path d="m69.445 58.332c-5.3594 0-9.7227-4.3633-9.7227-9.7227v-13.891c0-5.3594 4.3633-9.7227 9.7227-9.7227 5.3594 0 9.7227 4.3594 9.7227 9.7227v13.891c0 5.3633-4.3633 9.7227-9.7227 9.7227zm0-30.555c-3.8281 0-6.9453 3.1133-6.9453 6.9453v13.891c0 3.8281 3.1133 6.9453 6.9453 6.9453 3.8281 0 6.9453-3.1133 6.9453-6.9453v-13.891c0-3.8281-3.1172-6.9453-6.9453-6.9453z"/>
</svg>