<svg width="100" height="100" viewBox="0 0 100 100" fill="none" xmlns="http://www.w3.org/2000/svg">
<circle cx="50" cy="50" r="50" fill="#D7BB90" fill-opacity="0.4"/>
<path d="M70.875 80H33.375C31.8837 79.9984 30.4539 79.4052 29.3993 78.3507C28.3448 77.2961 27.7516 75.8663 27.75 74.375V25.625C27.7516 24.1337 28.3448 22.7039 29.3993 21.6493C30.4539 20.5948 31.8837 20.0016 33.375 20H70.875C72.3663 20.0016 73.7961 20.5948 74.8507 21.6493C75.9052 22.7039 76.4984 24.1337 76.5 25.625V74.375C76.4984 75.8663 75.9052 77.2961 74.8507 78.3507C73.7961 79.4052 72.3663 79.9984 70.875 80ZM33.375 23.75C32.8779 23.7504 32.4012 23.9481 32.0497 24.2997C31.6981 24.6512 31.5004 25.1279 31.5 25.625V74.375C31.5004 74.8721 31.6981 75.3488 32.0497 75.7003C32.4012 76.0519 32.8779 76.2496 33.375 76.25H70.875C71.3721 76.2496 71.8488 76.0519 72.2003 75.7003C72.5519 75.3488 72.7496 74.8721 72.75 74.375V25.625C72.7496 25.1279 72.5519 24.6512 72.2003 24.2997C71.8488 23.9481 71.3721 23.7504 70.875 23.75H33.375Z" fill="#D7BB90"/>
<path d="M37.125 80C36.6277 80 36.1508 79.8025 35.7992 79.4508C35.4475 79.0992 35.25 78.6223 35.25 78.125V21.875C35.25 21.3777 35.4475 20.9008 35.7992 20.5492C36.1508 20.1975 36.6277 20 37.125 20C37.6223 20 38.0992 20.1975 38.4508 20.5492C38.8025 20.9008 39 21.3777 39 21.875V78.125C39 78.6223 38.8025 79.0992 38.4508 79.4508C38.0992 79.8025 37.6223 80 37.125 80Z" fill="#D7BB90"/>
<path d="M63.375 53.75H48.375C47.8777 53.75 47.4008 53.5525 47.0492 53.2009C46.6975 52.8492 46.5 52.3723 46.5 51.875V38.75C46.5 38.4018 46.5969 38.0605 46.7799 37.7642C46.963 37.468 47.2249 37.2286 47.5363 37.0729L55.0363 33.3229C55.2967 33.1927 55.5839 33.125 55.875 33.125C56.1661 33.125 56.4533 33.1927 56.7137 33.3229L64.2137 37.0729C64.5251 37.2286 64.787 37.468 64.9701 37.7642C65.1531 38.0605 65.25 38.4018 65.25 38.75V51.875C65.25 52.3723 65.0525 52.8492 64.7008 53.2009C64.3492 53.5525 63.8723 53.75 63.375 53.75ZM50.25 50H61.5V39.9092L55.875 37.0967L50.25 39.9092V50Z" fill="#D7BB90"/>
<path d="M44.6268 42.5002C44.2042 42.5007 43.7938 42.3585 43.4622 42.0965C43.1306 41.8345 42.8972 41.4682 42.7999 41.057C42.7026 40.6457 42.7471 40.2136 42.9261 39.8308C43.1051 39.448 43.4082 39.1369 43.7863 38.948L55.0363 33.323C55.4811 33.1006 55.996 33.064 56.4679 33.2212C56.9397 33.3785 57.3297 33.7167 57.5521 34.1615C57.7746 34.6063 57.8112 35.1213 57.6539 35.5931C57.4967 36.0649 57.1585 36.4549 56.7136 36.6774L45.4636 42.3024C45.2037 42.4321 44.9173 42.4998 44.6268 42.5002Z" fill="#D7BB90"/>
<path d="M67.1231 42.5002C66.8326 42.4998 66.5462 42.4321 66.2863 42.3024L55.0363 36.6774C54.5914 36.4549 54.2532 36.0649 54.096 35.5931C53.9387 35.1213 53.9753 34.6063 54.1978 34.1615C54.4202 33.7167 54.8102 33.3785 55.282 33.2212C55.7539 33.064 56.2688 33.1006 56.7136 33.323L67.9636 38.948C68.3417 39.1369 68.6448 39.448 68.8238 39.8308C69.0028 40.2136 69.0473 40.6457 68.95 41.057C68.8527 41.4682 68.6193 41.8345 68.2877 42.0965C67.9561 42.3585 67.5457 42.5007 67.1231 42.5002Z" fill="#D7BB90"/>
<path d="M55.875 53.75C55.3777 53.75 54.9008 53.5525 54.5492 53.2008C54.1975 52.8492 54 52.3723 54 51.875V46.25C54 45.7527 54.1975 45.2758 54.5492 44.9242C54.9008 44.5725 55.3777 44.375 55.875 44.375C56.3723 44.375 56.8492 44.5725 57.2008 44.9242C57.5525 45.2758 57.75 45.7527 57.75 46.25V51.875C57.75 52.3723 57.5525 52.8492 57.2008 53.2008C56.8492 53.5525 56.3723 53.75 55.875 53.75Z" fill="#D7BB90"/>
<path d="M61.5 38.75C61.0027 38.75 60.5258 38.5525 60.1742 38.2008C59.8225 37.8492 59.625 37.3723 59.625 36.875V35C59.625 34.5027 59.8225 34.0258 60.1742 33.6742C60.5258 33.3225 61.0027 33.125 61.5 33.125C61.9973 33.125 62.4742 33.3225 62.8258 33.6742C63.1775 34.0258 63.375 34.5027 63.375 35V36.875C63.375 37.3723 63.1775 37.8492 62.8258 38.2008C62.4742 38.5525 61.9973 38.75 61.5 38.75Z" fill="#D7BB90"/>
<path d="M67.125 61.25H44.625C44.1277 61.25 43.6508 61.0525 43.2992 60.7008C42.9475 60.3492 42.75 59.8723 42.75 59.375C42.75 58.8777 42.9475 58.4008 43.2992 58.0492C43.6508 57.6975 44.1277 57.5 44.625 57.5H67.125C67.6223 57.5 68.0992 57.6975 68.4508 58.0492C68.8025 58.4008 69 58.8777 69 59.375C69 59.8723 68.8025 60.3492 68.4508 60.7008C68.0992 61.0525 67.6223 61.25 67.125 61.25Z" fill="#D7BB90"/>
<path d="M63.375 68.75H48.375C47.8777 68.75 47.4008 68.5525 47.0492 68.2008C46.6975 67.8492 46.5 67.3723 46.5 66.875C46.5 66.3777 46.6975 65.9008 47.0492 65.5492C47.4008 65.1975 47.8777 65 48.375 65H63.375C63.8723 65 64.3492 65.1975 64.7008 65.5492C65.0525 65.9008 65.25 66.3777 65.25 66.875C65.25 67.3723 65.0525 67.8492 64.7008 68.2008C64.3492 68.5525 63.8723 68.75 63.375 68.75Z" fill="#D7BB90"/>
<path d="M29.625 29.375H25.875C25.3777 29.375 24.9008 29.1775 24.5492 28.8258C24.1975 28.4742 24 27.9973 24 27.5C24 27.0027 24.1975 26.5258 24.5492 26.1742C24.9008 25.8225 25.3777 25.625 25.875 25.625H29.625C30.1223 25.625 30.5992 25.8225 30.9508 26.1742C31.3025 26.5258 31.5 27.0027 31.5 27.5C31.5 27.9973 31.3025 28.4742 30.9508 28.8258C30.5992 29.1775 30.1223 29.375 29.625 29.375Z" fill="#D7BB90"/>
<path d="M29.625 40.625H25.875C25.3777 40.625 24.9008 40.4275 24.5492 40.0758C24.1975 39.7242 24 39.2473 24 38.75C24 38.2527 24.1975 37.7758 24.5492 37.4242C24.9008 37.0725 25.3777 36.875 25.875 36.875H29.625C30.1223 36.875 30.5992 37.0725 30.9508 37.4242C31.3025 37.7758 31.5 38.2527 31.5 38.75C31.5 39.2473 31.3025 39.7242 30.9508 40.0758C30.5992 40.4275 30.1223 40.625 29.625 40.625Z" fill="#D7BB90"/>
<path d="M29.625 51.875H25.875C25.3777 51.875 24.9008 51.6775 24.5492 51.3258C24.1975 50.9742 24 50.4973 24 50C24 49.5027 24.1975 49.0258 24.5492 48.6742C24.9008 48.3225 25.3777 48.125 25.875 48.125H29.625C30.1223 48.125 30.5992 48.3225 30.9508 48.6742C31.3025 49.0258 31.5 49.5027 31.5 50C31.5 50.4973 31.3025 50.9742 30.9508 51.3258C30.5992 51.6775 30.1223 51.875 29.625 51.875Z" fill="#D7BB90"/>
<path d="M29.625 63.125H25.875C25.3777 63.125 24.9008 62.9275 24.5492 62.5758C24.1975 62.2242 24 61.7473 24 61.25C24 60.7527 24.1975 60.2758 24.5492 59.9242C24.9008 59.5725 25.3777 59.375 25.875 59.375H29.625C30.1223 59.375 30.5992 59.5725 30.9508 59.9242C31.3025 60.2758 31.5 60.7527 31.5 61.25C31.5 61.7473 31.3025 62.2242 30.9508 62.5758C30.5992 62.9275 30.1223 63.125 29.625 63.125Z" fill="#D7BB90"/>
<path d="M29.625 74.375H25.875C25.3777 74.375 24.9008 74.1775 24.5492 73.8258C24.1975 73.4742 24 72.9973 24 72.5C24 72.0027 24.1975 71.5258 24.5492 71.1742C24.9008 70.8225 25.3777 70.625 25.875 70.625H29.625C30.1223 70.625 30.5992 70.8225 30.9508 71.1742C31.3025 71.5258 31.5 72.0027 31.5 72.5C31.5 72.9973 31.3025 73.4742 30.9508 73.8258C30.5992 74.1775 30.1223 74.375 29.625 74.375Z" fill="#D7BB90"/>
</svg>
