<svg width="100" height="100" viewBox="0 0 100 100" fill="none" xmlns="http://www.w3.org/2000/svg">
<circle cx="50" cy="50" r="50" fill="#D7BB90" fill-opacity="0.4"/>
<path fill-rule="evenodd" clip-rule="evenodd" d="M22.2435 53.2332H28.853C30.0869 53.2332 31.0965 54.2428 31.0965 55.4767V73.8245C31.0965 75.0582 30.0869 76.068 28.853 76.068H22.2435C21.0099 76.068 20 75.0584 20 73.8245V55.4767C20 54.2425 21.0096 53.2332 22.2435 53.2332ZM63.7733 23C72.735 23 80 30.265 80 39.227C80 46.6493 75.0166 52.9077 68.213 54.8388C68.2164 54.2339 68.1527 53.6468 68.024 53.1173C67.9206 52.6923 67.783 52.2995 67.6151 51.9387C73.0744 50.2909 77.0505 45.2236 77.0505 39.227C77.0505 31.8941 71.1058 25.9498 63.7733 25.9498C58.7844 25.9498 54.4392 28.7014 52.1704 32.7695C51.8552 32.5271 51.5108 32.313 51.1352 32.1332C50.5846 31.8694 49.9989 31.7104 49.4118 31.6682C52.1303 26.5141 57.541 23 63.7733 23ZM71.2843 40.385C71.2421 44.4972 67.8953 47.8184 63.7725 47.8184C59.6505 47.8184 56.3038 44.4972 56.2618 40.385C56.2576 39.9755 56.5014 39.6247 56.8864 39.4857C57.2719 39.3459 57.6836 39.4604 57.9421 39.7784C59.3192 41.4724 61.4192 42.5548 63.7725 42.5548C66.1263 42.5548 68.2267 41.4724 69.6037 39.7784C69.8622 39.4604 70.2742 39.3459 70.6594 39.4857C71.0444 39.6244 71.2882 39.9755 71.2843 40.385ZM69.3769 30.6352C70.63 30.6352 71.6462 31.6515 71.6462 32.9048C71.6462 34.1579 70.63 35.1742 69.3769 35.1742C68.123 35.1742 67.1073 34.1579 67.1073 32.9048C67.1073 31.6515 68.123 30.6352 69.3769 30.6352ZM64.9311 57.6587C66.1094 61.3646 66.2414 64.1104 64.7023 65.0327C65.5698 68.4128 64.0029 69.7676 63.2583 70.455C63.1685 70.5912 62.6823 70.9454 62.8032 71.6672C63.2494 74.3263 61.4553 76.1014 59.7308 76.1486L42.7634 76.6151C41.6243 76.6462 40.6447 76.48 39.567 76.1103L35.4837 74.711C34.1761 74.2629 33.3366 73.0877 33.3366 71.7056V54.56C33.3366 53.4097 34.1711 52.7345 34.8849 51.8323L38.4565 47.3155C39.4458 46.0644 40.4624 45.1313 41.7938 44.2529L45.8085 41.6022L47.3301 36.5568C47.1272 32.2697 53.1021 33.4855 52.6707 40.7622C52.4839 43.9127 50.5584 48.5714 49.0632 50.0574C48.2872 50.8285 48.6049 52.1514 50.758 51.9126L52.3274 51.7416L61.0526 51.069C66.9986 50.6106 66.113 56.3242 64.9311 57.6587ZM58.1698 30.6352C59.4228 30.6352 60.4391 31.6515 60.4391 32.9048C60.4391 34.1579 59.4228 35.1742 58.1698 35.1742C56.9161 35.1742 55.9002 34.1579 55.9002 32.9048C55.9002 31.6515 56.9161 30.6352 58.1698 30.6352ZM25.5482 69.039C26.5172 69.039 27.3025 69.8246 27.3025 70.7936C27.3025 71.7626 26.5172 72.5478 25.5482 72.5478C24.5792 72.5478 23.7937 71.7626 23.7937 70.7936C23.7937 69.8246 24.5792 69.039 25.5482 69.039Z" fill="#D7BB90"/>
</svg>
