<svg width="100" height="100" viewBox="0 0 100 100" fill="none" xmlns="http://www.w3.org/2000/svg">
<circle cx="50" cy="50" r="50" fill="#D7BB90" fill-opacity="0.4"/>
<path d="M69.1975 58.7038C69.1477 58.4924 69.1042 58.2747 69.0358 58.0819C68.7699 57.2151 68.3177 56.4169 67.711 55.7433C66.8025 54.7378 65.5864 54.062 64.2529 53.8214C64.3524 52.733 64.4457 51.4766 64.5265 50.0896L64.6758 47.1228L64.738 45.5182C64.7578 45.1867 64.7578 44.8544 64.738 44.523L64.6633 43.9757L64.539 43.4346C64.2125 42.2841 63.5613 41.2522 62.6634 40.4624C61.7654 39.6725 60.6589 39.1583 59.4762 38.9813C58.784 38.9102 58.0883 38.8791 57.3926 38.888C54.9047 38.8507 52.28 38.832 49.6864 38.832C47.0928 38.832 44.493 38.832 41.9803 38.8818C41.2845 38.8736 40.5889 38.9048 39.8967 38.9751C38.7114 39.1483 37.6013 39.6601 36.6999 40.449C35.7985 41.2379 35.144 42.2703 34.8152 43.4221C34.7182 43.7808 34.6516 44.147 34.6162 44.5168C34.596 44.8482 34.596 45.1805 34.6162 45.5119L34.6784 47.1166L34.8276 50.0834C34.9023 51.3771 34.9894 52.5713 35.0764 53.5788C34.1866 53.7327 33.3391 54.0718 32.5886 54.574C31.7893 55.1056 31.1172 55.8072 30.6205 56.6286C30.1238 57.45 29.8146 58.371 29.7151 59.3258C29.7151 59.5497 29.7151 59.8234 29.7151 60.01V61.5898V63.6796V65.7569V66.7894C29.7151 66.9884 29.7151 67.2372 29.7524 67.4611C29.7897 67.685 29.8208 67.9152 29.8581 68.1391C30.0511 69.021 30.4278 69.8524 30.9637 70.5789C31.4995 71.3055 32.1824 71.911 32.968 72.356C33.7327 72.7919 34.5801 73.0631 35.4558 73.1521C35.6735 73.1521 35.885 73.1521 36.0778 73.1832H36.6127H37.583L41.265 73.1272C39.5919 74.8003 37.9313 77.481 37.838 78.9924C38.0506 79.2143 38.2886 79.4105 38.547 79.577C38.7529 79.7448 38.9785 79.8868 39.2187 80C41.0846 79.266 44.0514 75.3041 44.4619 73.0775C48.2559 73.0091 51.77 72.922 54.886 72.8225C55.0851 74.9807 58.1949 79.2287 60.1479 79.9937C60.4235 79.8586 60.6823 79.6916 60.9191 79.4962C61.1467 79.3525 61.3556 79.1812 61.5411 78.9861C61.4416 77.3317 59.4886 74.3338 57.6849 72.7167C59.4886 72.6483 61.1181 72.5799 62.5611 72.499C62.7615 72.4541 62.9373 72.3346 63.0528 72.1648C63.1683 71.995 63.2149 71.7876 63.1831 71.5848C63.1912 71.3997 63.133 71.2179 63.019 71.0719C62.905 70.9259 62.7426 70.8255 62.5611 70.7886C56.7955 70.4777 47.8951 70.2537 37.5892 70.1107H36.6189H36.1462H35.8166C35.3762 70.0535 34.9525 69.9053 34.5726 69.6753C34.1875 69.4436 33.8548 69.1342 33.5957 68.7669C33.3366 68.3997 33.1567 67.9825 33.0675 67.542L33.0239 67.2061V66.8516V65.7756V63.6982V61.6084V60.0286V59.6617C33.1018 58.9749 33.4062 58.3337 33.889 57.8392C34.3719 57.3448 35.0057 57.0252 35.6904 56.9311C36.3751 56.8369 37.0716 56.9736 37.67 57.3194C38.2684 57.6652 38.7345 58.2004 38.9948 58.8407C39.0801 59.0523 39.1386 59.2738 39.169 59.5C39.2069 59.7698 39.2214 60.0424 39.2125 60.3147C39.2125 61.0279 39.2125 61.7411 39.2125 62.4543C39.2115 62.6826 39.2566 62.9087 39.3451 63.1192C39.4335 63.3297 39.5635 63.5201 39.7272 63.6792C39.8909 63.8383 40.0851 63.9628 40.298 64.0451C40.5109 64.1274 40.7383 64.166 40.9664 64.1585C47.0057 64.1585 52.8709 64.1087 58.3815 64.0465H58.4188C58.6286 64.0466 58.8363 64.0047 59.0297 63.9233C59.2231 63.8419 59.3983 63.7226 59.5449 63.5725C59.6915 63.4224 59.8066 63.2445 59.8835 63.0493C59.9603 62.854 59.9974 62.6454 59.9924 62.4356V59.9478C59.9836 59.2816 60.1755 58.6282 60.5429 58.0724C60.9104 57.5167 61.4365 57.0843 62.0528 56.8314C62.6692 56.5785 63.3474 56.5169 63.9993 56.6545C64.6512 56.7921 65.2466 57.1226 65.7082 57.603C66.059 57.9563 66.3304 58.3804 66.5044 58.8469L66.6101 59.2014L66.6785 59.5622V59.9416V60.4453L66.778 64.2829L66.834 66.0804C66.834 66.3602 66.834 66.7023 66.834 66.9138C66.8346 67.1219 66.8201 67.3298 66.7905 67.5358C66.6513 68.3547 66.2522 69.107 65.6523 69.6815C65.1078 70.202 64.4259 70.5559 63.6869 70.7016C63.5109 70.7796 63.3653 70.9129 63.2721 71.0813C63.1789 71.2498 63.1433 71.444 63.1706 71.6345C63.1697 71.7303 63.1882 71.8252 63.225 71.9136C63.2618 72.0021 63.3162 72.0821 63.3848 72.1489C63.4534 72.2158 63.5348 72.268 63.6241 72.3026C63.7134 72.3371 63.8088 72.3531 63.9045 72.3498C65.0022 72.254 66.0472 71.8365 66.9086 71.1494C67.9145 70.3637 68.6337 69.2686 68.9549 68.0333C69.0305 67.6957 69.0783 67.3525 69.098 67.0071C69.098 66.6588 69.098 66.3851 69.1353 66.1052L69.1913 64.3078L69.2908 60.4702V59.9664V59.3445C69.2597 59.1517 69.2286 58.934 69.1975 58.7038ZM59.7374 54.6922C58.864 55.2572 58.1405 56.0255 57.6289 56.9312C57.1169 57.8684 56.8435 58.9172 56.8328 59.9851V60.8434C52.2862 60.7999 47.5406 60.7688 42.6706 60.7563V60.3147C42.6812 59.8739 42.6562 59.433 42.596 58.9962C42.5279 58.5145 42.4026 58.0426 42.2228 57.5905C41.8695 56.6795 41.3161 55.8594 40.6035 55.1909C39.8908 54.5224 39.0371 54.0225 38.1054 53.7281C37.7501 53.6194 37.3859 53.5424 37.017 53.498C37.1082 52.478 37.1911 51.3273 37.2658 50.0461L37.415 47.0793L37.4772 45.4746C37.4819 45.256 37.5006 45.0378 37.5332 44.8216C37.5668 44.6316 37.6146 44.4445 37.6762 44.2618C37.951 43.5216 38.4861 42.9069 39.1814 42.5327C39.5429 42.3435 39.9381 42.2273 40.3445 42.1906C40.6555 42.1533 41.3832 42.1906 41.9927 42.1906C44.4806 42.228 47.1053 42.2404 49.6989 42.2404C52.2924 42.2404 54.8923 42.2404 57.405 42.1844C58.027 42.1844 58.7422 42.1471 59.0532 42.1844C59.4541 42.2273 59.8427 42.3477 60.1976 42.5389C60.8995 42.9184 61.4374 43.5427 61.709 44.2929L61.7961 44.5728L61.8521 44.8589C61.8844 45.0773 61.903 45.2975 61.908 45.5182L61.9702 47.1228L62.1133 50.0834C62.1941 51.4517 62.2812 52.6832 62.3807 53.753C61.4408 53.8659 60.5378 54.1867 59.7374 54.6922Z" fill="#D7BB90"/>
<path d="M65.8015 32.8861C65.8824 29.5337 65.9508 25.8641 65.9944 21.6907C65.9968 21.4816 65.9581 21.2741 65.8803 21.08C65.8026 20.8858 65.6873 20.7089 65.5412 20.5593C65.3951 20.4098 65.2209 20.2904 65.0287 20.2081C64.8365 20.1259 64.6299 20.0823 64.4208 20.0798H64.3897L58.114 20.0176C57.8963 20.016 57.6803 20.0574 57.4785 20.1394C57.2768 20.2214 57.0932 20.3425 56.9383 20.4956C56.7835 20.6487 56.6604 20.8309 56.5761 21.0317C56.4918 21.2326 56.448 21.448 56.4472 21.6658V24.9063L50.7313 20.3721C50.4327 20.1313 50.0607 20 49.6771 20C49.2935 20 48.9214 20.1313 48.6228 20.3721C38.0867 28.9864 28.241 37.3083 23.1222 42.0788C22.9046 42.284 22.9854 42.7505 23.3026 43.105C23.6198 43.4595 23.9743 43.559 24.192 43.4035C29.7151 39.5225 39.4302 32.0216 49.674 23.8738L57.0443 29.8198C57.295 30.02 57.5971 30.1454 57.9159 30.1816C58.2347 30.2177 58.5573 30.1631 58.8464 30.0241C59.1356 29.885 59.3796 29.6671 59.5504 29.3956C59.7212 29.124 59.8119 28.8097 59.812 28.4888V23.3638H62.8099C62.8596 27.0956 62.9218 30.4791 63.0027 33.5578V33.6325C63.0085 33.8291 63.0578 34.022 63.147 34.1973C63.2363 34.3726 63.3633 34.5259 63.5189 34.6463C68.4947 38.5398 72.4068 41.4879 75.2243 43.4409C75.4607 43.6088 75.8898 43.4409 76.1697 43.0552C76.4496 42.6696 76.462 42.3275 76.2754 42.1472C73.8456 39.8583 70.3543 36.7713 65.8015 32.8861Z" fill="#D7BB90"/>
</svg>
