<svg width="100" height="100" viewBox="0 0 100 100" fill="none" xmlns="http://www.w3.org/2000/svg">
<circle cx="50" cy="50" r="50" fill="#D7BB90" fill-opacity="0.4"/>
<path fill-rule="evenodd" clip-rule="evenodd" d="M50.2411 20C58.2403 20 60.9725 21.6859 64.2726 23.5751C68.1347 25.7872 71.0642 26.7975 75.4823 27.6046V40.4703C75.4763 59.0873 67.1184 72.1682 50.2411 80C33.3579 72.1682 25.006 59.0873 25 40.4703V27.6046C30.9127 26.5106 32.9872 25.2371 38.0092 22.5528C40.6995 21.118 43.7306 20 50.2411 20ZM63.5432 24.3523C60.5241 22.6186 57.8876 21.106 50.7433 21.0403V28.1606C60.9306 28.4237 69.0913 36.7696 69.0913 46.9988C69.1271 47.9434 68.1228 47.9314 68.0929 46.9988C68.0929 39.6034 56.8593 39.6034 56.8593 46.9988C56.8653 47.9434 55.8669 47.9374 55.8609 46.9988C55.8609 43.6389 53.5233 41.6899 50.7433 41.4747V47.4591L53.7385 49.4739H73.7007C74.1969 46.6401 74.448 43.6389 74.448 40.4703V28.4595C70.1973 27.6465 67.2559 26.4866 63.5432 24.3523ZM49.7449 21.0403C43.8621 21.0941 41.0163 22.1343 38.4755 23.4855C35.4444 25.0877 32.8497 27.1323 26.0403 28.4595V40.4703C26.0403 43.6389 26.2854 46.6401 26.7816 49.4739H46.7318L49.7449 47.4711V41.4747C46.9649 41.6899 44.6214 43.6389 44.6214 47.0048C44.6214 47.8956 43.6289 47.9733 43.623 47.0048C43.623 39.6094 32.3894 39.6034 32.3894 46.9988C32.3954 47.9374 31.4269 47.9255 31.391 46.9988C31.391 36.7696 39.5516 28.4237 49.7449 28.1606V21.0403ZM26.9669 50.4723C29.5855 63.7266 37.6265 72.7959 49.7449 78.619V71.7975H40.9386C40.6636 71.7975 40.4424 71.5703 40.4424 71.2953V57.3655H36.5145C36.0243 57.3655 35.827 56.7258 36.2395 56.4508L45.2312 50.4723H26.9669ZM50.7433 78.619C62.8497 72.7959 70.8968 63.7206 73.5153 50.4723H55.2152L64.0753 56.4328C64.5417 56.7198 64.3145 57.3655 63.8302 57.3655H59.9024V71.2953C59.9024 71.5703 59.6811 71.7975 59.4061 71.7975H50.7433V78.619ZM53.5233 70.7991H52.5249V64.5576C52.5249 64.0674 52.1244 63.6668 51.6401 63.6668H48.7047C48.2204 63.6668 47.8198 64.0674 47.8198 64.5576V70.7991H46.8214V64.5576C46.8214 63.5173 47.6704 62.6744 48.7047 62.6744H51.6401C52.6744 62.6744 53.5233 63.5173 53.5233 64.5576V70.7991Z" fill="#D7BB90"/>
</svg>
