<svg width="433" height="177" viewBox="0 0 433 177" fill="none" xmlns="http://www.w3.org/2000/svg">
<path d="M32.765 90.7357C31.4487 90.6824 30.3993 89.5974 30.4348 88.2811L31.1108 65.1041C31.1641 63.7879 32.2492 62.774 33.5654 62.774C34.8817 62.8273 35.9312 63.9124 35.8956 65.2286L35.2197 88.4056C35.1663 89.6863 34.1346 90.7357 32.8539 90.7357H32.765ZM432.307 131.629C431.898 132.039 431.4 132.27 430.813 132.305V137.535C430.813 138.851 429.764 139.9 428.448 139.9H415.836L418.665 172.736C418.754 173.643 418.433 174.55 417.793 175.191C417.206 175.867 416.299 176.24 415.427 176.24L411.123 176.258C409.575 176.258 408.259 175.173 407.939 173.661L401.019 139.918H223.893L221.759 172.38C221.617 174.568 219.802 176.258 217.614 176.258H215.693C213.505 176.258 211.691 174.568 211.549 172.38L209.414 139.918H32.3564L25.4372 173.696C25.117 175.191 23.8007 176.293 22.2532 176.293H17.9664C17.0593 176.293 16.1877 175.938 15.6007 175.244C15.0137 174.568 14.6935 173.696 14.7291 172.789L17.5573 139.954H4.94608C3.62981 139.954 2.58034 138.904 2.58034 137.588V132.359C2.02895 132.305 1.49531 132.092 1.08621 131.683C0.623751 131.22 0.410278 130.598 0.410278 129.957L2.42028 59.8728C2.56258 55.586 5.01725 51.7619 8.84178 49.894L25.651 41.6583C28.8349 40.1108 32.3393 39.2926 35.8966 39.2926H53.2394L54.6091 11.4728C54.9292 5.05131 60.2123 0 66.6688 0H207.011C210.978 0 214.517 1.95664 216.705 4.90924C218.893 1.9565 222.45 0 226.399 0H366.741C373.216 0 378.481 5.05176 378.801 11.4728L380.171 39.2926H397.514C401.018 39.2926 404.575 40.1108 407.759 41.6583L424.568 49.894C428.393 51.7617 430.847 55.586 430.99 59.8728L433 129.957C432.982 130.58 432.752 131.167 432.307 131.629ZM380.437 44.0636L380.704 49.3999L396.784 56.7818C397.976 57.3332 398.509 58.7384 397.976 59.9302C397.566 60.8018 396.695 61.3354 395.788 61.3354C395.468 61.3354 395.112 61.2465 394.792 61.1042L380.953 54.7719L382.002 75.9926C390.113 78.3584 396.25 85.3667 397.264 94.1183L400.768 125.122C400.857 125.94 400.768 126.812 400.59 127.577H428.143L426.187 59.9465C426.098 57.4384 424.693 55.2148 422.451 54.1124L405.642 45.8767C403.134 44.6494 400.306 44.009 397.495 44.009H380.437L380.437 44.0636ZM394.329 127.631C395.005 127.631 395.414 127.276 395.61 127.044C395.788 126.813 396.108 126.368 396.019 125.675L392.515 94.671C391.555 86.2396 384.458 79.9251 375.991 79.9251L235.717 79.9073C226.556 79.9073 219.103 87.3779 219.103 96.5207V125.852C219.103 126.813 219.886 127.578 220.829 127.578H394.33L394.329 127.631ZM212.595 127.631C213.556 127.631 214.32 126.849 214.32 125.906V96.5743C214.32 87.4138 206.85 79.961 197.707 79.961L57.365 79.9432C48.898 79.9432 41.783 86.2754 40.8404 94.6891L37.3363 125.693C37.2473 126.369 37.5675 126.831 37.7454 127.062C37.9233 127.294 38.3857 127.649 39.0261 127.649L212.596 127.667L212.595 127.631ZM219.052 12.0472V83.0925C222.965 78.2188 228.978 75.1237 235.665 75.1237H375.957C376.367 75.1237 376.74 75.1771 377.149 75.1771L374.001 11.6953C373.823 7.78199 370.586 4.72279 366.708 4.72279H226.384C222.328 4.77615 219.055 8.04907 219.055 12.0514L219.052 12.0472ZM56.1696 75.1556C56.5787 75.1556 56.9523 75.1022 57.3614 75.1022H197.653C204.342 75.1022 210.354 78.1973 214.267 83.071V12.0257C214.267 7.97016 210.994 4.69711 206.938 4.69711L66.6462 4.71491C62.7329 4.71491 59.549 7.77433 59.3531 11.6874L56.1696 75.1556ZM5.21023 127.627H32.7632C32.532 126.844 32.443 125.99 32.5853 125.172L36.0894 94.1684C37.0855 85.4169 43.2755 78.4089 51.3513 76.0428L52.4008 54.8221L38.5619 61.1543C38.2417 61.2966 37.9216 61.3856 37.5658 61.3856C36.6586 61.3856 35.7871 60.8875 35.3779 59.9804C34.8265 58.7886 35.3246 57.3834 36.5697 56.832L52.6494 49.4501L52.9162 44.1138H35.7869C32.9587 44.1138 30.1837 44.7541 27.6401 45.9815L10.8309 54.2171C8.67858 55.2666 7.22002 57.49 7.16665 59.9979L5.21023 127.627ZM27.4801 139.953H22.3395L19.6536 171.508H21.0233L27.4801 139.953ZM219.141 139.953H214.232L216.278 171.508H217.06L219.141 139.953ZM411.035 139.953H405.894L412.369 171.508H413.739L411.035 139.953ZM426.065 135.168V132.34H394.332L220.781 132.358C219.233 132.358 217.775 131.807 216.689 130.899C215.551 131.807 214.146 132.358 212.598 132.358H7.31272V135.186H30.3476H30.401L211.675 135.168H402.982H403.035H426.065ZM398.192 88.4029C398.246 89.6836 399.277 90.7331 400.558 90.7331H400.647C401.963 90.6797 403.013 89.5947 402.977 88.2784L402.301 65.1015C402.248 63.7852 401.163 62.7713 399.846 62.7713C398.53 62.8247 397.481 63.9097 397.516 65.226L398.192 88.4029Z" fill="#D7BB90"/>
</svg>
