<svg width="152" height="290" viewBox="0 0 152 290" fill="none" xmlns="http://www.w3.org/2000/svg">
<path d="M0.283478 109.21H44.347C44.0005 108.99 43.717 108.77 43.4966 108.518C39.9375 104.644 33.6697 92.2339 32.2838 88.8323C30.8035 85.1472 31.9374 47.194 32.1579 39.6349C32.1579 39.3829 32.2208 39.1624 32.3468 38.9735C32.4413 38.7215 32.5988 38.4695 32.7563 38.3435C34.1106 37.0207 38.1107 36.8632 53.9849 36.9577C53.9219 34.501 54.6463 32.1072 55.7487 29.8395C55.4337 29.934 55.0873 29.997 54.7408 30.0285C54.4573 30.06 54.1739 30.0915 53.8904 30.0915C53.5439 30.0915 53.1975 30.0915 52.8195 29.997C50.5518 29.556 48.6305 28.4222 47.6541 27.0048C47.0557 26.1229 46.8352 25.1465 47.0242 24.2331C47.4966 21.7449 50.7408 20.2961 54.3943 20.989C54.3943 20.989 54.4573 20.989 54.4888 20.989C54.4888 20.989 54.5203 20.989 54.5518 20.989C56.8826 21.4299 58.4889 23.1622 59.4023 24.4221C61.3865 22.0914 63.4968 20.2331 65.1346 19.0362C64.9456 18.6583 64.7252 18.2803 64.5362 17.8708C64.4417 17.6819 64.3787 17.4929 64.3787 17.2724C63.7803 7.91797 66.1425 7.31954 66.8984 7.09907C67.8118 6.87859 69.6071 6.8471 71.5284 9.30382C72.5678 10.6267 73.4497 12.485 74.0481 14.5007L76.2844 13.9653C75.8119 12.8629 74.5836 9.58729 75.6229 6.34316C76.1899 4.54786 77.0718 2.91004 78.0797 1.77617C79.8435 -0.239599 81.4498 -0.113613 82.2372 0.138358C83.0246 0.39033 84.4104 1.17774 84.6939 3.82344C84.8514 5.33527 84.6309 7.16206 84.064 8.95736C83.56 10.5007 82.6466 11.729 81.7332 12.7054L86.6467 11.5716C88.0325 6.28016 89.5443 6.24866 90.1428 6.28016C92.19 6.34315 93.2609 8.98886 93.3869 11.855H96.0956C96.0956 11.855 96.1586 11.855 96.1586 11.792C96.0956 11.4456 95.5917 8.39042 97.2925 5.9652C98.0799 4.83133 99.0248 3.88643 100.001 3.288C101.891 2.12263 103.151 2.72107 103.623 3.03603C104.096 3.35099 105.104 4.29589 104.726 6.46914C104.505 7.57152 103.97 8.79988 103.182 9.93375C102.552 10.8786 101.702 11.5401 100.883 12.0125H103.277C104.505 7.57152 106.017 7.57152 106.647 7.60301C108.663 7.66601 109.986 10.0912 109.86 13.4613C109.828 14.4377 109.608 15.3511 109.356 16.17C111.151 15.6976 116.379 14.6267 119.088 17.3669C119.781 18.0598 120.316 18.9102 120.726 19.7921C123.875 20.0756 126.301 21.8709 126.364 24.1386C126.395 25.0835 126.017 25.9969 125.293 26.7843C124.096 28.0442 122.017 28.8316 119.655 28.9261C119.34 28.9261 119.057 28.8316 118.773 28.8001C118.206 29.2096 117.576 29.556 116.915 29.7765C118.647 29.682 122.332 29.745 123.592 32.0757C124.285 33.3986 124.348 34.9104 123.812 36.3278L126.805 39.4144C126.805 39.4144 127.025 39.1939 127.151 39.0679C127.34 38.879 127.592 38.753 127.844 38.69C130.301 38.0286 133.45 37.6506 134.521 39.4774C135.214 40.6743 134.962 42.1546 134.017 43.5089C135.088 43.2885 136.506 43.1625 137.891 43.5719C141.293 44.5798 143.277 46.6271 142.679 48.5799C142.206 50.1547 140.096 50.6271 138.049 50.6271C136.663 50.6271 135.309 50.4067 134.458 50.1547C134.395 50.1547 134.332 50.0917 134.269 50.0602L135.876 56.8949C136.506 56.6115 137.23 56.328 138.017 56.0445C138.175 55.9815 138.332 55.95 138.521 55.95C146.679 55.6351 147.057 57.3989 147.246 58.2493C147.403 59.0367 147.309 60.517 144.884 61.9659C143.561 62.7533 141.797 63.3832 139.844 63.7611C138.836 63.9501 137.828 64.0446 136.883 64.1076L137.198 66.5958C137.419 66.2809 137.702 66.0289 138.049 65.9344C138.238 65.9029 142.49 64.769 146.143 66.6588C147.844 67.5407 149.293 68.6746 150.238 69.84C151.939 71.9187 151.561 73.3991 151.183 74.1235C150.647 75.1314 149.419 75.6668 147.561 75.6668C147.088 75.6668 146.584 75.6353 146.017 75.5723C143.97 75.3203 141.765 74.6589 140.128 73.8085C139.057 73.2416 138.332 72.5172 137.828 71.7297L138.49 77.3361C140.947 77.5251 143.718 78.155 144.096 80.1078C144.348 81.3047 143.813 82.533 142.71 83.5094C142.427 83.7614 142.049 83.9504 141.671 84.1708C142.332 84.1708 143.025 84.2338 143.75 84.4543C145.073 84.8638 146.301 85.4622 147.151 86.1551C148.821 87.5095 148.726 88.8008 148.537 89.4622C148.065 91.0371 145.954 91.5095 143.907 91.5095C142.521 91.5095 141.167 91.289 140.317 91.0371C139.592 90.8166 138.994 90.4701 138.521 90.0922L138.143 103.132C139.655 102.911 142.553 102.691 145.167 104.077C146.868 104.958 148.317 106.092 149.262 107.258C150.962 109.336 150.584 110.817 150.206 111.541C149.545 112.77 147.435 113.211 145.041 113.211C141.891 113.211 138.269 112.455 136.663 111.604C136.38 111.478 136.191 111.289 135.97 111.132L135.183 115.478C137.072 116.549 138.773 117.998 138.427 119.699C138.08 121.494 136.191 122.596 133.765 122.628L133.545 125.242C134.836 125.022 137.387 124.864 139.655 126.03C141.104 126.785 142.364 127.762 143.183 128.77C144.695 130.628 144.348 131.982 144.002 132.644C143.781 133.085 143.183 134.187 139.466 134.187C139.151 134.187 138.836 134.187 138.49 134.187C137.639 134.156 134.962 133.967 132.915 133.116L132.505 138.124C133.45 137.841 134.616 137.62 135.876 137.809C137.23 138.03 138.49 138.439 139.403 139.006C141.198 140.108 141.324 141.4 141.198 142.061C141.073 142.817 140.537 143.92 137.198 144.896C136.695 145.053 135.309 145.4 133.86 145.526L133.986 149.337C133.986 149.337 134.143 149.494 134.206 149.557C134.458 149.337 134.71 149.179 135.057 149.148C135.907 149.022 143.34 148.109 145.734 151.92C146.899 153.746 147.246 155.92 146.742 158.03C146.238 160.14 144.915 161.904 143.057 163.069C141.734 163.888 140.222 164.298 138.679 164.298C138.049 164.298 137.45 164.235 136.82 164.077C136.726 164.077 136.663 164.014 136.569 163.983C136.632 165.369 136.474 167.069 135.592 168.581C134.017 171.29 131.813 172.896 129.891 172.896C129.324 172.896 128.82 172.77 128.316 172.487C126.143 171.258 126.049 167.825 128.096 164.329C129.104 162.628 130.742 161.589 132.096 160.991C131.97 160.833 131.813 160.676 131.687 160.487C130.994 159.353 130.868 158.03 131.057 156.707C130.836 156.865 130.647 157.054 130.427 157.211C128.946 158.156 127.309 158.786 125.86 158.975C125.576 159.006 125.293 159.038 125.041 159.038C123.12 159.038 122.206 158.124 121.828 157.526C120.442 155.416 122.017 152.203 125.608 149.904C127.592 148.644 129.923 148.55 131.498 148.676L131.372 145.368C130.427 145.053 129.86 144.486 129.576 144.014C129.104 144.581 128.568 145.116 127.876 145.557C126.395 146.502 124.726 147.132 123.34 147.132C122.332 147.132 121.45 146.786 120.883 145.967C119.592 143.983 121.576 141.463 124.127 139.857C126.616 138.282 129.576 138.66 129.986 138.723L130.584 131.164C130.458 130.88 130.364 130.628 130.301 130.376C130.269 130.156 130.238 129.967 130.238 129.746C129.387 130.345 128.348 130.912 127.151 131.195C126.112 131.447 125.009 131.604 123.938 131.604C121.671 131.604 119.686 130.912 119.245 129.148C118.616 126.597 121.923 124.549 125.261 123.762C127.529 123.226 129.734 123.762 131.057 124.234L131.214 122.345C128.316 121.589 126.458 119.573 126.868 117.494C127.277 115.51 130.206 114.88 132.694 114.722L133.891 108.297C133.954 107.982 134.112 107.73 134.364 107.573C133.293 108.423 131.907 109.242 130.269 109.651C129.041 109.935 127.718 110.124 126.49 110.124C123.938 110.124 121.734 109.368 121.23 107.447C121.041 106.659 121.041 105.084 123.277 103.478C124.537 102.565 126.269 101.84 128.19 101.368C131.214 100.643 134.143 101.588 135.561 102.155L135.844 92.1709C135.34 92.6119 134.773 93.0213 134.08 93.3363C132.789 93.9347 131.435 94.2812 130.301 94.3442C130.206 94.3442 130.08 94.3442 129.986 94.3442C128.001 94.3442 127.246 93.3678 126.962 92.8008C126.773 92.3914 126.584 91.6985 126.899 90.7851C127.403 89.4307 128.978 88.0449 131.088 87.0685C132.883 86.2496 134.773 86.3126 135.97 86.5016V85.8086C135.97 85.5882 136.065 85.4307 136.159 85.2417C134.238 84.9582 132.757 83.9504 132.442 82.4385C132.096 80.7062 133.923 79.1944 135.844 78.1235L135.151 72.4542C133.986 73.5565 132.285 74.7534 130.175 75.2888C128.946 75.5723 127.624 75.7613 126.395 75.7613C123.844 75.7613 121.639 75.0054 121.135 73.0841C120.946 72.2967 120.946 70.7219 123.183 69.1155C124.442 68.2021 126.175 67.4777 128.096 67.0053C130.553 66.4069 132.978 66.9423 134.521 67.4462L134.112 64.1076C131.403 63.6982 130.71 62.3438 130.553 61.5879C130.427 60.958 130.206 59.7926 133.293 58.0918L131.309 49.6822C130.647 50.6271 129.576 51.7925 128.096 52.4854C126.805 53.0839 125.45 53.4303 124.316 53.4933C124.222 53.4933 124.096 53.4933 124.001 53.4933C122.017 53.4933 121.261 52.5169 120.978 51.95C120.852 51.7295 120.789 51.3516 120.789 50.9421C119.938 52.2335 118.836 53.4933 117.545 54.5642C116.663 55.3201 115.718 56.013 114.773 56.5485L115.119 62.5958C122.364 64.832 122.238 66.9423 122.175 67.6982C122.112 68.6116 121.545 70.3124 118.584 71.3203C117.293 71.7612 115.718 71.9817 114.049 72.0132L113.891 73.84C115.025 73.84 118.458 73.9345 121.954 75.5093C125.104 76.9267 130.238 79.6983 129.009 82.344C128.568 83.3204 127.561 83.6669 126.332 83.6669C124.127 83.6669 121.167 82.533 119.151 81.6511C116.663 80.5487 114.741 78.9424 113.576 77.8086L112.883 86.0921C117.419 87.5724 117.356 88.9898 117.324 89.4622C117.261 90.0922 116.883 91.289 114.867 91.9819C114.08 92.2654 113.135 92.3914 112.127 92.4229L111.907 94.7851C113.072 94.9111 114.679 95.1631 116.285 95.8875C119.151 97.1789 122.364 99.1316 121.387 101.273C121.009 102.092 120.253 102.47 119.119 102.47C118.742 102.47 118.301 102.439 117.828 102.344C116.694 102.124 115.308 101.651 113.923 101.053C112.978 100.612 112.159 100.108 111.434 99.5726L111.182 102.218C115.592 103.573 115.56 105.021 115.497 105.683C115.466 106.155 115.277 106.848 114.553 107.447C113.702 108.171 112.253 108.581 110.615 108.644L110.363 112.266C112.033 111.825 115.623 111.163 118.679 112.77C120.568 113.746 122.143 115.069 123.151 116.486C124.379 118.218 124.663 119.919 123.907 121.305C123.057 122.88 120.978 123.258 119.088 123.258C118.805 123.258 118.521 123.258 118.238 123.258C115.875 123.132 113.387 122.47 111.56 121.526C110.836 121.148 110.301 120.675 109.86 120.171L109.639 123.762C109.639 123.762 109.797 123.762 109.86 123.762C113.23 124.864 118.836 127.226 118.616 130.439C118.553 131.415 118.112 132.329 117.419 133.116C118.49 133.809 119.434 134.565 120.064 135.447C121.072 136.864 121.293 138.313 120.663 139.479C120.001 140.707 118.427 141.179 116.694 141.179C114.584 141.179 112.222 140.518 110.804 139.794C110.489 139.636 110.332 139.416 110.08 139.227L110.269 141.746C112.568 141.998 114.962 142.66 115.34 144.455C115.56 145.494 115.151 146.534 114.332 147.447C114.836 147.447 115.34 147.542 115.875 147.699C119.277 148.707 121.261 150.754 120.663 152.707C120.316 153.872 119.025 154.565 116.915 154.723C116.6 154.723 116.285 154.754 115.97 154.754C114.741 154.754 113.482 154.597 112.474 154.282C112.411 154.282 112.348 154.219 112.285 154.187L113.891 161.022C114.521 160.739 115.245 160.455 116.033 160.172C116.19 160.109 116.379 160.077 116.537 160.077C124.726 159.794 125.072 161.526 125.261 162.376C125.797 165.054 121.923 167.069 117.86 167.888C116.883 168.077 115.875 168.172 114.899 168.235L115.214 170.723C115.434 170.408 115.718 170.156 116.064 170.062C116.253 170.03 120.505 168.896 124.159 170.786C125.86 171.668 127.309 172.802 128.253 173.967C129.954 176.046 129.576 177.526 129.198 178.251C128.6 179.353 127.183 179.762 125.513 179.762C122.994 179.762 119.907 178.849 118.143 177.904C117.072 177.337 116.348 176.613 115.844 175.825L116.505 181.432C118.962 181.621 121.734 182.251 122.112 184.203C122.427 185.747 121.45 187.259 119.749 188.267C120.379 188.267 121.072 188.33 121.734 188.55C123.057 188.959 124.285 189.558 125.135 190.251C126.805 191.605 126.71 192.896 126.521 193.558C126.395 193.967 126.08 194.534 125.293 194.975C124.442 195.416 123.151 195.637 121.86 195.637C120.6 195.637 119.34 195.448 118.332 195.164C117.608 194.944 117.009 194.597 116.537 194.219L116.159 207.259C117.671 207.007 120.568 206.818 123.183 208.204C125.891 209.621 127.844 211.511 128.379 213.306C128.726 214.377 128.474 215.196 128.222 215.668C128.001 216.109 127.309 217.338 123.088 217.338C122.742 217.338 122.364 217.338 121.954 217.338C120.852 217.275 117.135 217.023 114.71 215.763C114.427 215.637 114.238 215.448 114.017 215.29L113.23 219.637C115.119 220.708 116.82 222.157 116.474 223.857C116.222 225.054 115.277 225.999 113.86 226.472C113.23 226.661 112.537 226.755 111.812 226.787L111.592 229.432C112.883 229.212 115.434 229.023 117.702 230.22C121.324 232.11 123.12 234.818 122.049 236.803C121.45 237.936 119.56 238.346 117.45 238.346C115.088 238.346 112.505 237.842 110.993 237.212L110.584 242.283C111.529 241.968 112.694 241.779 113.954 241.968C117.387 242.503 119.592 244.236 119.277 246.22C119.151 246.976 118.616 248.078 115.277 249.055C114.773 249.212 113.387 249.559 111.938 249.685L112.064 253.496C112.064 253.496 112.222 253.653 112.285 253.716C112.537 253.496 112.789 253.338 113.135 253.307C113.986 253.181 121.419 252.267 123.812 256.078C126.175 259.858 124.978 264.866 121.104 267.228C119.781 268.047 118.269 268.456 116.726 268.456C116.096 268.456 115.497 268.393 114.867 268.236C114.773 268.236 114.71 268.173 114.616 268.141C114.679 269.527 114.521 271.228 113.639 272.74C112.064 275.449 109.86 277.055 107.938 277.055C107.371 277.055 106.867 276.929 106.363 276.646C104.19 275.417 104.096 271.984 106.143 268.488C107.151 266.787 108.789 265.748 110.143 265.149C110.017 264.992 109.86 264.834 109.734 264.645C109.041 263.512 108.915 262.189 109.104 260.866C108.883 261.023 108.694 261.212 108.474 261.37C106.993 262.315 105.356 262.945 103.907 263.134C103.623 263.165 103.34 263.197 103.088 263.197C101.167 263.197 100.253 262.283 99.8752 261.685C99.4342 261.023 98.8988 259.574 100.19 257.433C100.946 256.204 102.174 255.007 103.686 254.063C105.671 252.803 108.001 252.708 109.576 252.834L109.45 249.527C108.505 249.244 107.938 248.645 107.655 248.173C107.182 248.74 106.647 249.275 105.954 249.716C104.379 250.724 102.741 251.291 101.419 251.291C101.135 251.291 100.883 251.291 100.631 251.228C99.7177 251.039 99.2138 250.535 98.9618 250.126C97.6704 248.141 99.6547 245.622 102.206 244.015C104.694 242.44 107.623 242.818 108.064 242.881L108.663 235.322C108.537 235.039 108.442 234.787 108.379 234.535C108.348 234.314 108.348 234.125 108.316 233.905C107.466 234.503 106.426 235.07 105.23 235.354C104.127 235.637 103.025 235.763 102.017 235.763C101.544 235.763 101.072 235.763 100.663 235.669C98.2059 235.322 97.5444 234.031 97.387 233.306C96.757 230.755 100.064 228.708 103.403 227.889C105.671 227.322 107.875 227.889 109.198 228.361L109.356 226.472C106.458 225.684 104.6 223.7 105.009 221.621C105.419 219.637 108.348 219.007 110.836 218.85L112.033 212.424C112.096 212.109 112.253 211.857 112.505 211.7C111.434 212.55 110.049 213.369 108.411 213.779C107.119 214.094 105.828 214.251 104.631 214.251C104.064 214.251 103.529 214.22 103.056 214.157C100.316 213.747 99.5917 212.361 99.4027 211.574C98.7098 208.739 102.521 206.44 106.363 205.495C109.387 204.771 112.316 205.716 113.734 206.282L114.017 196.298C113.513 196.739 112.946 197.149 112.253 197.432C110.804 198.093 109.356 198.44 108.159 198.44C107.592 198.44 107.088 198.377 106.647 198.219C105.765 197.904 105.324 197.338 105.135 196.897C104.946 196.487 104.757 195.794 105.072 194.881C105.576 193.526 107.151 192.141 109.261 191.164C111.056 190.345 112.946 190.408 114.143 190.597V189.904C114.143 189.684 114.269 189.495 114.364 189.306C113.986 189.243 113.576 189.243 113.23 189.148C111.812 188.676 110.867 187.731 110.615 186.534C110.269 184.802 112.096 183.322 114.017 182.219L113.324 176.55C112.159 177.652 110.458 178.849 108.348 179.385C107.056 179.7 105.765 179.857 104.568 179.857C104.001 179.857 103.466 179.825 102.993 179.762C100.253 179.353 99.5287 177.967 99.3397 177.18C98.6468 174.345 102.458 172.046 106.3 171.101C108.757 170.503 111.182 171.038 112.726 171.542L112.316 168.203C110.458 167.92 109.072 167.132 108.757 165.684C108.631 165.054 108.411 163.888 111.497 162.188L109.513 153.778C108.852 154.723 107.781 155.888 106.3 156.581C105.009 157.18 103.655 157.526 102.521 157.589C102.426 157.589 102.3 157.589 102.206 157.589C100.222 157.589 99.4657 156.644 99.1823 156.046C98.1744 153.904 100.537 151.605 103.34 150.313C105.513 149.305 107.812 149.62 108.883 149.841V149.778C108.883 149.746 108.883 149.715 108.915 149.683C108.82 149.683 108.726 149.683 108.631 149.683C107.844 149.683 107.119 149.589 106.458 149.368C105.041 148.896 104.096 147.951 103.844 146.754C103.466 144.864 105.639 143.258 107.781 142.156L107.34 135.762C106.993 135.699 106.647 135.667 106.3 135.573C105.922 136.486 104.883 138.66 102.71 139.794C101.481 140.423 100.19 140.833 99.0563 140.927C98.8988 140.927 98.7728 140.927 98.6153 140.927C96.7255 140.927 95.9696 139.92 95.7176 139.479C94.7413 137.652 96.2531 135.227 99.3712 133.589C99.9382 133.274 100.537 133.116 101.104 132.99C99.9382 131.888 99.2767 130.565 99.3712 129.116C99.5917 126.408 103.749 124.896 107.151 124.108L107.718 115.415C106.867 116.392 105.702 117.494 104.19 118.281C102.237 119.289 100.033 120.077 98.3319 120.077C97.135 120.077 96.1586 119.699 95.6862 118.754C95.1822 117.809 95.4342 116.77 96.1586 115.793H82.1112C83.7805 116.518 83.875 117.368 83.9065 117.809C84.0325 119.541 82.3317 120.927 79.623 121.431L79.7805 123.636C80.3474 123.573 83.749 123.321 86.9616 124.99C88.0325 125.557 91.5916 127.573 92.2845 129.809C92.5365 130.628 92.3475 131.289 92.1271 131.667C91.7806 132.297 91.0562 132.99 89.4814 132.99C89.1034 132.99 88.6625 132.959 88.19 132.864C86.8357 132.612 85.2293 132.014 83.623 131.195C82.1112 130.408 80.9458 129.305 80.0954 128.329L80.6624 137.022C84.064 137.809 88.253 139.321 88.442 142.03C88.5365 143.447 87.875 144.77 86.7097 145.872C87.2766 145.998 87.875 146.187 88.442 146.471C90.3948 147.51 91.8436 148.927 92.253 150.282C92.5365 151.195 92.316 151.92 92.0956 152.329C91.8751 152.77 91.4026 153.337 90.4578 153.62C90.0798 153.746 89.6703 153.778 89.1979 153.778C87.9695 153.778 86.5522 153.368 85.1034 152.644C82.9301 151.51 81.8592 149.368 81.5128 148.424C81.1663 148.487 80.8198 148.55 80.4734 148.613L80.0324 155.006C82.1742 156.109 84.3474 157.715 83.9695 159.605C83.5915 161.432 81.6702 162.534 79.2135 162.534C79.119 162.534 78.993 162.534 78.8986 162.502C78.8986 162.534 78.8986 162.565 78.8986 162.597C78.8986 162.597 78.8986 162.66 78.8986 162.691C79.9694 162.471 82.2687 162.156 84.4419 163.164C87.2451 164.455 89.6073 166.723 88.5995 168.896C88.4105 169.306 87.9695 169.904 87.0876 170.219C86.6467 170.377 86.1427 170.44 85.5758 170.44C84.3789 170.44 82.9616 170.093 81.4813 169.432C79.9694 168.739 78.9301 167.605 78.2686 166.66L76.2844 175.07C79.4025 176.802 79.1505 177.936 79.0245 178.566C78.9301 179.038 78.6466 179.731 77.7962 180.298C77.1663 180.707 76.3788 180.959 75.4654 181.085L75.056 184.455C76.6308 183.92 79.0245 183.416 81.4813 184.015C83.4025 184.487 85.1348 185.211 86.3947 186.125C88.631 187.731 88.631 189.306 88.442 190.093C88.316 190.629 87.9695 191.353 86.9931 191.952C86.0797 192.487 84.7254 192.771 83.1821 192.771C82.0167 192.771 80.7569 192.613 79.434 192.298C77.2922 191.794 75.6229 190.566 74.4576 189.463L73.7646 195.133C75.7174 196.204 77.5442 197.715 77.1978 199.448C76.8828 200.991 75.4025 201.999 73.4812 202.282C73.5757 202.44 73.6702 202.629 73.6702 202.849V203.542C74.8985 203.353 76.7883 203.29 78.5836 204.109C81.8907 205.621 83.5915 207.983 82.7096 209.842C82.1742 210.944 81.0718 211.385 79.7175 211.385C78.4576 211.385 76.9773 210.975 75.6229 210.346C74.9615 210.031 74.3631 209.621 73.8591 209.212L74.1426 219.196C75.5284 218.629 78.4891 217.653 81.5128 218.409C83.434 218.881 85.1664 219.605 86.4262 220.519C88.6625 222.125 88.6625 223.7 88.4735 224.487C88.3475 225.023 88.001 225.747 87.0246 226.346C86.1112 226.913 84.7569 227.196 83.2136 227.196C82.0482 227.196 80.7883 227.039 79.4655 226.724C77.8592 226.346 76.4733 225.527 75.4025 224.676C75.6229 224.865 75.7804 225.086 75.8434 225.369L77.0403 231.795C79.5285 231.952 82.4577 232.582 82.8671 234.566C83.2766 236.645 81.4498 238.661 78.5206 239.417L78.6781 241.307C80.0009 240.834 82.2057 240.299 84.4734 240.834C86.1112 241.244 87.5916 241.873 88.6939 242.629C90.6782 244.078 90.6782 245.496 90.5207 246.22C90.0798 247.984 88.127 248.677 85.8593 248.677C84.8199 248.677 83.7175 248.519 82.6466 248.267C81.4498 247.984 80.4419 247.417 79.56 246.818C79.56 247.039 79.56 247.228 79.497 247.448C79.4655 247.669 79.371 247.952 79.2135 248.236L79.812 255.795C80.2214 255.732 83.1821 255.322 85.6703 256.929C88.2215 258.567 90.2058 261.086 88.9144 263.039C88.379 263.858 87.4971 264.204 86.4577 264.204C85.0719 264.204 83.4026 263.543 81.9222 262.63C81.2293 262.189 80.6624 261.653 80.2214 261.086C79.9379 261.59 79.371 262.157 78.4261 262.441L78.3001 265.748C79.8749 265.622 82.2057 265.748 84.19 266.976C85.6703 267.921 86.9301 269.118 87.6861 270.346C88.9774 272.456 88.442 273.905 88.001 274.598C87.3396 275.606 86.1742 276.11 84.7254 276.11C83.1506 276.11 81.2608 275.512 79.371 274.315C79.1505 274.157 78.9615 274 78.7411 273.811C78.8986 275.134 78.8041 276.457 78.1111 277.59C77.9852 277.779 77.8277 277.905 77.7017 278.094C79.056 278.693 80.7254 279.732 81.7017 281.433C83.749 284.929 83.6545 288.362 81.4813 289.591C81.0088 289.874 80.4734 290 79.9064 290C77.9852 290 75.7804 288.394 74.2056 285.685C73.3237 284.173 73.1662 282.472 73.2292 281.087C72.5363 281.275 71.8434 281.37 71.1189 281.37C69.6386 281.37 68.1268 280.961 66.7409 280.142C64.8827 279.008 63.5598 277.212 63.0559 275.102C62.5519 272.992 62.8984 270.819 64.0637 268.992C66.4575 265.181 73.9221 266.094 74.741 266.22C75.056 266.252 75.3395 266.441 75.5914 266.63C75.6544 266.535 75.7489 266.472 75.8119 266.409L75.9379 262.598C74.4891 262.472 73.1032 262.126 72.5993 261.968C69.2607 260.992 68.7252 259.889 68.5992 259.133C68.5362 258.661 68.5677 257.968 69.1032 257.212C69.9221 256.078 71.7489 255.228 73.9221 254.881C75.182 254.693 76.3474 254.881 77.2922 255.196L76.8828 250.189C74.8355 251.039 72.1268 251.228 71.3079 251.259C70.9615 251.259 70.6465 251.259 70.3315 251.259C66.6465 251.259 66.048 250.157 65.796 249.716C65.4496 249.055 65.0716 247.7 66.615 245.842C67.4339 244.834 68.6937 243.889 70.1426 243.133C72.4103 241.936 74.9615 242.125 76.2529 242.346L76.0324 239.732C73.6386 239.7 71.7489 238.598 71.3709 236.803C71.0245 235.102 72.7253 233.653 74.6151 232.582L73.8276 228.236C73.6072 228.393 73.4182 228.55 73.1347 228.708C71.5599 229.527 67.9063 230.314 64.7882 230.314C62.3944 230.314 60.2842 229.873 59.6227 228.645C58.2369 226.062 61.2606 222.976 64.6622 221.18C67.2764 219.826 70.1741 220.015 71.6859 220.235L71.3079 207.196C70.8355 207.605 70.2685 207.952 69.5126 208.141C68.5047 208.424 67.2134 208.613 65.985 208.613C64.6622 208.613 63.4023 208.424 62.5519 207.952C61.7645 207.542 61.4495 206.944 61.3236 206.534C60.7251 204.582 62.7094 202.534 66.111 201.527C66.8039 201.338 67.4653 201.243 68.0953 201.243C66.3945 200.267 65.4181 198.755 65.733 197.18C66.111 195.227 68.9142 194.597 71.3709 194.408L72.0323 188.802C71.5284 189.589 70.804 190.314 69.7331 190.881C67.9378 191.826 64.8512 192.739 62.3629 192.739C60.6936 192.739 59.2763 192.33 58.6779 191.227C58.4259 190.755 58.1739 189.936 58.5204 188.865C59.0873 187.101 61.0086 185.18 63.7173 183.763C67.3394 181.873 71.6229 182.975 71.8119 183.038C72.1898 183.133 72.4733 183.385 72.6623 183.7L72.9772 181.211C71.9694 181.18 70.93 181.054 70.0166 180.865C65.9535 180.077 62.0795 178.062 62.6149 175.353C62.8039 174.503 63.1189 172.77 71.3394 173.022C71.4969 173.022 71.6859 173.054 71.8434 173.117C72.6623 173.4 73.3552 173.684 73.9851 173.967L75.5914 167.132C75.5914 167.132 75.4655 167.195 75.4025 167.227C74.5521 167.479 73.1977 167.699 71.8119 167.699C69.7646 167.699 67.6543 167.227 67.1819 165.652C66.5835 163.699 68.5677 161.652 71.9694 160.644C72.5048 160.487 73.0087 160.424 73.5127 160.392C72.6938 159.479 72.2843 158.439 72.5048 157.4C72.8512 155.605 75.2765 154.912 77.5757 154.691L77.7647 152.172C77.5127 152.361 77.3237 152.613 77.0088 152.77C75.6229 153.494 73.2292 154.156 71.1504 154.156C69.4181 154.156 67.8433 153.715 67.1819 152.455C66.1425 150.502 67.5284 147.857 70.363 146.03C69.6701 145.242 69.2607 144.361 69.1977 143.384C68.9772 140.171 74.5835 137.809 77.9537 136.707C78.0167 136.707 78.1111 136.707 78.1741 136.707L77.9537 133.116C77.4812 133.62 76.9458 134.093 76.2529 134.471C74.1111 135.605 71.1819 136.234 68.7567 136.234C67.7488 136.234 66.8354 136.14 66.111 135.888C65.0716 135.573 64.3157 135.038 63.9063 134.282C63.1503 132.896 63.4338 131.163 64.6622 129.463C65.6701 128.045 67.2449 126.723 69.1347 125.746C72.1898 124.14 75.7804 124.801 77.4497 125.242L77.1978 121.62C74.3946 121.526 72.4418 120.423 72.2843 118.659C72.2528 118.092 72.2213 116.959 74.9615 115.793H0V109.399L0.283478 109.21ZM53.9534 24.1386H53.8904H53.8274C51.6227 23.7292 50.2998 24.5166 50.2368 24.8631C50.2368 24.926 50.2368 25.052 50.3943 25.241C50.8037 25.8394 51.9061 26.5639 53.4179 26.8788C53.7329 26.9418 54.0164 26.9418 54.3943 26.8788C55.1817 26.7843 56.0006 26.4379 56.6306 26.0599C56.0006 25.241 55.0558 24.3591 54.0164 24.1701L53.9534 24.1386ZM81.2608 3.288C80.7253 3.57147 79.5285 4.86282 78.7411 7.35104C78.3316 8.67389 78.4891 10.0912 78.7411 11.1621C79.5915 10.4377 80.5364 9.36681 80.9773 8.04396C81.7647 5.55575 81.5443 3.82344 81.2608 3.288ZM135.34 47.0365C136.443 47.3515 137.734 47.4145 138.679 47.3515C138.269 47.0995 137.671 46.8161 136.883 46.5956C136.096 46.3751 135.246 46.4381 134.584 46.5956C134.742 46.7846 134.994 46.9421 135.34 47.068V47.0365ZM141.608 70.9108C143.844 72.0762 146.868 72.5487 148.096 72.3912C147.75 71.7612 146.647 70.5329 144.569 69.462C143.025 68.6431 141.167 68.6746 140.002 68.8006C140.096 69.462 140.474 70.3439 141.576 70.9108H141.608ZM133.891 129.904C135.592 130.786 139.183 131.038 140.852 130.849C140.443 130.313 139.561 129.494 138.206 128.801C136.758 128.045 134.962 128.203 134.112 128.329C133.797 128.801 133.545 129.4 133.608 129.683C133.608 129.778 133.797 129.872 133.891 129.904ZM125.986 142.408C125.356 142.817 124.883 143.227 124.537 143.573C125.009 143.416 125.576 143.164 126.206 142.754C126.553 142.534 126.868 142.25 127.12 141.935C126.742 142.03 126.332 142.187 125.986 142.439V142.408ZM132.694 89.8087C131.907 90.1866 131.309 90.5646 130.899 90.9111C131.435 90.8166 132.096 90.6276 132.915 90.2496C133.356 90.0292 133.765 89.7457 134.08 89.4307C133.608 89.4937 133.135 89.5882 132.694 89.8087ZM129.167 69.9344C126.647 70.5329 125.198 71.5723 124.726 72.1077C125.387 72.3912 127.151 72.6116 129.671 72.0132C131.057 71.6668 132.222 70.8478 133.072 70.0919C131.97 69.8085 130.553 69.588 129.167 69.9344ZM143.12 59.2257C142.017 59.0997 140.443 59.0367 138.899 59.0997C137.45 59.6351 136.033 60.2965 135.057 60.832C136.002 60.958 137.419 60.9265 139.214 60.58C140.978 60.2335 142.301 59.6981 143.12 59.2257ZM141.261 87.8874C142.364 88.2024 143.655 88.2654 144.6 88.2024C144.191 87.9504 143.592 87.6669 142.805 87.4465C142.017 87.226 141.167 87.289 140.506 87.4465C140.663 87.6354 140.915 87.7929 141.261 87.9189V87.8874ZM138.238 108.675C140.506 109.872 145.451 110.124 147.214 109.746C146.868 109.116 145.765 107.888 143.687 106.817C141.797 105.84 139.498 106.061 138.49 106.25C138.049 106.88 137.671 107.699 137.765 108.203C137.765 108.297 137.828 108.455 138.238 108.707V108.675ZM137.356 141.431C136.915 141.242 136.285 141.022 135.466 140.896C134.332 140.707 133.167 141.179 132.568 141.494C132.505 141.841 132.505 142.156 132.568 142.25C133.828 142.439 136.033 141.935 137.356 141.431ZM137.671 160.928C138.962 161.211 140.317 160.991 141.45 160.298C142.584 159.605 143.372 158.502 143.687 157.243C144.002 155.983 143.781 154.66 143.088 153.557C142.427 152.487 140.065 152.109 137.891 152.109C137.356 152.109 136.82 152.109 136.348 152.172C135.057 154.282 133.765 157.432 134.616 158.754C135.309 159.857 136.411 160.613 137.702 160.896L137.671 160.928ZM131.057 165.904C129.891 167.888 129.923 169.463 130.017 169.652C130.427 169.652 131.75 168.928 132.915 166.943C133.482 165.999 133.545 164.833 133.45 163.888C132.6 164.298 131.592 164.928 131.057 165.873V165.904ZM127.529 152.55C125.387 153.904 124.663 155.447 124.663 155.699C124.978 155.92 126.679 155.857 128.82 154.502C129.86 153.841 130.521 152.707 130.899 151.794C129.891 151.794 128.568 151.888 127.529 152.55ZM126.269 126.786C124.663 127.163 123.529 127.793 122.994 128.234C123.686 128.36 124.978 128.423 126.584 128.014C127.498 127.793 128.316 127.289 128.946 126.786C128.159 126.628 127.214 126.565 126.301 126.786H126.269ZM132.663 119.289C133.765 119.51 134.647 119.352 135.057 119.195C134.616 118.817 133.797 118.281 132.946 117.841C132.033 117.935 131.057 118.092 130.49 118.281C130.836 118.628 131.529 119.069 132.631 119.289H132.663ZM129.198 104.392C126.679 104.99 125.23 106.029 124.757 106.565C125.419 106.848 127.183 107.069 129.702 106.47C131.088 106.124 132.254 105.305 133.104 104.549C132.002 104.266 130.584 104.077 129.198 104.392ZM138.584 81.9661C139.687 81.7456 140.411 81.3047 140.726 80.9582C140.159 80.7692 139.214 80.6117 138.269 80.5173C137.45 80.9267 136.632 81.4621 136.191 81.8401C136.632 82.0291 137.482 82.1551 138.584 81.9661ZM120.82 78.659C121.891 79.1314 122.899 79.5094 123.749 79.7928C122.994 79.3519 122.049 78.8479 120.978 78.3755C120.285 78.0605 119.592 77.84 118.931 77.6511C119.497 78.029 120.159 78.3755 120.82 78.6905V78.659ZM113.45 118.596C116.411 120.14 120.568 120.266 121.45 119.699C121.513 119.478 121.387 118.974 120.883 118.281C120.19 117.305 118.962 116.297 117.545 115.541C115.623 114.533 113.135 114.911 111.844 115.226C111.781 116.203 111.938 117.809 113.45 118.596ZM119.907 175.007C122.143 176.172 125.135 176.613 126.395 176.487C126.049 175.825 124.946 174.629 122.868 173.558C121.293 172.739 119.466 172.77 118.301 172.896C118.395 173.558 118.773 174.44 119.875 175.007H119.907ZM112.19 233.999C113.891 234.881 117.482 235.133 119.151 234.944C118.742 234.409 117.86 233.59 116.505 232.897C115.056 232.141 113.261 232.299 112.411 232.425C112.096 232.897 111.844 233.495 111.907 233.779C111.907 233.873 112.096 233.968 112.19 234.031V233.999ZM104.285 246.503C103.655 246.913 103.182 247.322 102.836 247.669C103.308 247.511 103.875 247.259 104.505 246.85C104.852 246.629 105.167 246.346 105.419 246.031C105.041 246.125 104.631 246.283 104.285 246.535V246.503ZM110.993 193.904C110.206 194.282 109.608 194.66 109.198 195.007C109.734 194.912 110.395 194.723 111.214 194.345C111.655 194.125 112.064 193.841 112.379 193.526C111.907 193.558 111.434 193.684 110.993 193.904ZM107.466 174.03C104.946 174.629 103.497 175.668 103.025 176.203C103.686 176.487 105.45 176.707 107.97 176.109C109.356 175.762 110.521 174.944 111.371 174.188C110.269 173.904 108.852 173.684 107.466 174.03ZM121.419 163.321C120.316 163.195 118.742 163.132 117.198 163.195C115.749 163.731 114.332 164.392 113.356 164.928C114.301 165.054 115.718 165.022 117.513 164.676C119.277 164.329 120.6 163.794 121.419 163.321ZM119.56 191.952C120.663 192.267 121.954 192.33 122.899 192.267C122.458 192.015 121.891 191.731 121.104 191.511C120.316 191.29 119.466 191.353 118.805 191.511C118.962 191.7 119.214 191.857 119.56 191.983V191.952ZM116.537 212.739C118.805 213.936 123.749 214.188 125.482 213.81C125.135 213.18 124.033 211.952 121.954 210.849C120.064 209.873 117.765 210.094 116.757 210.283C116.316 210.912 115.938 211.731 116.033 212.235C116.033 212.33 116.096 212.519 116.505 212.739H116.537ZM115.655 245.464C115.214 245.275 114.584 245.055 113.765 244.929C112.631 244.771 111.466 245.212 110.867 245.527C110.804 245.873 110.804 246.188 110.867 246.283C112.127 246.472 114.332 245.968 115.655 245.464ZM115.97 264.96C117.261 265.244 118.616 265.023 119.749 264.33C122.08 262.882 122.836 259.858 121.387 257.59C120.537 256.267 117.104 255.984 114.616 256.204C113.324 258.315 112.033 261.464 112.883 262.787C113.576 263.889 114.679 264.645 115.97 264.929V264.96ZM109.356 269.937C108.19 271.921 108.222 273.496 108.316 273.685C108.631 273.685 110.049 272.992 111.214 270.976C111.781 270.031 111.844 268.866 111.749 267.921C110.899 268.33 109.891 268.96 109.356 269.905V269.937ZM105.828 256.582C103.686 257.937 102.962 259.48 102.962 259.732C103.277 259.952 104.978 259.889 107.119 258.535C108.159 257.874 108.82 256.74 109.198 255.826C108.159 255.795 106.867 255.921 105.828 256.582ZM104.568 230.818C102.962 231.196 101.828 231.826 101.293 232.267C101.985 232.425 103.277 232.456 104.883 232.047C105.797 231.826 106.615 231.322 107.245 230.818C106.458 230.661 105.513 230.598 104.6 230.818H104.568ZM110.962 223.322C112.096 223.543 112.946 223.385 113.356 223.228C112.915 222.85 112.096 222.314 111.245 221.873C110.332 221.936 109.356 222.125 108.789 222.314C109.135 222.661 109.828 223.102 110.93 223.322H110.962ZM107.497 208.424C104.978 209.023 103.529 210.062 103.056 210.598C103.718 210.849 105.482 211.101 108.001 210.503C109.387 210.157 110.552 209.338 111.403 208.582C110.3 208.298 108.883 208.078 107.497 208.424ZM116.883 185.999C117.986 185.778 118.71 185.337 119.025 184.991C118.458 184.802 117.513 184.644 116.568 184.55C115.749 184.959 114.93 185.495 114.49 185.873C114.93 186.062 115.749 186.188 116.852 185.999H116.883ZM105.135 153.054C104.348 153.431 103.749 153.809 103.34 154.156C103.875 154.061 104.537 153.872 105.356 153.494C105.797 153.274 106.206 152.991 106.521 152.676C106.048 152.707 105.576 152.833 105.135 153.022V153.054ZM99.5287 137.526C100.033 137.431 100.726 137.242 101.544 136.801C101.985 136.581 102.363 136.234 102.678 135.888C102.206 135.919 101.702 136.045 101.261 136.266C100.442 136.707 99.8752 137.148 99.5287 137.526ZM85.5128 128.234C86.6467 128.833 87.6546 129.211 88.442 129.431C87.8121 128.927 86.9302 128.297 85.7963 127.699C85.1034 127.352 84.3789 127.1 83.7175 126.943C84.2215 127.415 84.8199 127.856 85.5128 128.234ZM87.0246 149.715C87.8435 150.156 88.5365 150.345 89.0404 150.439C88.694 150.061 88.127 149.62 87.3081 149.179C86.8672 148.959 86.3632 148.833 85.8908 148.77C86.2057 149.116 86.5837 149.463 87.0246 149.715ZM83.2451 166.408C84.0325 166.786 84.7254 166.975 85.2608 167.069C84.8514 166.723 84.253 166.345 83.4655 165.967C83.0246 165.747 82.5521 165.652 82.0797 165.589C82.3947 165.904 82.8041 166.188 83.2451 166.408ZM80.5994 189.022C83.0876 189.621 84.8829 189.4 85.5443 189.117C85.1034 188.581 83.623 187.542 81.1033 186.944C79.7175 186.597 78.3001 186.818 77.1978 187.101C78.0482 187.857 79.2135 188.676 80.5994 189.022ZM77.3552 207.259C78.1741 207.637 78.8356 207.826 79.371 207.92C78.9616 207.574 78.3631 207.196 77.5757 206.818C77.1348 206.597 76.6623 206.503 76.1899 206.44C76.5363 206.755 76.9143 207.038 77.3552 207.259ZM84.064 259.732C84.6939 260.141 85.2608 260.393 85.7333 260.551C85.3868 260.204 84.9144 259.795 84.2845 259.385C83.938 259.165 83.5285 259.008 83.1506 258.882C83.4025 259.197 83.7175 259.48 84.064 259.7V259.732ZM76.1584 245.307C75.308 245.181 73.5442 245.023 72.0638 245.779C70.7095 246.472 69.8276 247.291 69.4181 247.826C71.0559 248.015 74.678 247.795 76.3788 246.881C76.4733 246.818 76.6308 246.724 76.6623 246.629C76.7253 246.346 76.4733 245.779 76.1584 245.275V245.307ZM65.7016 186.44C63.6543 187.511 62.5519 188.739 62.174 189.369C63.4338 189.495 66.426 189.054 68.6622 187.889C69.7646 187.322 70.1111 186.44 70.237 185.778C69.0717 185.652 67.2449 185.621 65.7016 186.44ZM80.6309 223.385C83.1506 223.983 84.9144 223.763 85.5758 223.48C85.1349 222.944 83.6545 221.905 81.1348 221.306C79.749 220.96 78.3316 221.18 77.2292 221.464C78.0797 222.22 79.245 223.039 80.6309 223.385ZM83.7805 244.96C85.3868 245.338 86.6782 245.307 87.3711 245.181C86.8042 244.74 85.7018 244.11 84.0955 243.732C83.1821 243.511 82.2372 243.574 81.4498 243.732C82.0797 244.236 82.8671 244.74 83.812 244.96H83.7805ZM81.5443 271.417C83.686 272.771 85.3868 272.834 85.6388 272.708C85.7018 272.331 84.9774 270.819 82.8356 269.464C81.8907 268.866 80.6939 268.677 79.7175 268.677C79.623 268.677 79.5285 268.677 79.4655 268.677C79.8435 269.622 80.5049 270.724 81.5443 271.386V271.417ZM77.4497 283.89C78.6151 285.874 80.0009 286.63 80.2214 286.661C80.4419 286.378 80.4734 284.835 79.308 282.819C78.7411 281.874 77.7647 281.244 76.9143 280.835C76.8198 281.748 76.9143 282.913 77.4497 283.89ZM74.0166 269.118C71.5284 268.897 68.0953 269.181 67.2449 270.504C66.552 271.606 66.3315 272.897 66.6464 274.189C66.9614 275.449 67.7488 276.551 68.8827 277.244C71.2134 278.693 74.3001 278 75.7489 275.732C76.5678 274.409 75.308 271.228 74.0166 269.149V269.118ZM74.867 257.842C74.0481 257.968 73.4182 258.189 72.9772 258.378C74.3001 258.882 76.5048 259.417 77.7962 259.259C77.8592 259.133 77.8277 258.787 77.7962 258.472C77.1663 258.157 76.0009 257.685 74.8985 257.874L74.867 257.842ZM77.7017 236.204C78.8041 235.984 79.5285 235.543 79.8435 235.196C79.2765 235.007 78.3316 234.85 77.3867 234.755C76.5678 235.165 75.7489 235.7 75.308 236.078C75.7489 236.267 76.5678 236.425 77.7017 236.204ZM66.6464 223.763C64.5677 224.834 63.4968 226.062 63.1189 226.724C64.8827 227.102 69.8276 226.818 72.0638 225.653C72.5048 225.432 72.5363 225.243 72.5363 225.149C72.6308 224.676 72.2213 223.826 71.8119 223.196C70.804 223.007 68.5047 222.787 66.615 223.763H66.6464ZM65.7016 205.149C66.6464 205.212 67.9378 205.149 69.0402 204.834C69.3866 204.739 69.6386 204.55 69.7961 204.361C69.1347 204.204 68.2843 204.141 67.4968 204.361C66.7094 204.582 66.1425 204.865 65.7016 205.117V205.149ZM71.7489 198.849C72.8827 199.07 73.7331 198.912 74.1426 198.755C73.7017 198.377 72.8827 197.841 72.0323 197.4C71.1189 197.463 70.174 197.652 69.5756 197.841C69.9221 198.188 70.615 198.629 71.7174 198.849H71.7489ZM71.4024 176.046C69.8591 175.983 68.2843 176.046 67.1819 176.172C68.0008 176.644 69.3236 177.18 71.0874 177.526C72.8512 177.873 74.2686 177.904 75.2135 177.778C74.2371 177.243 72.8197 176.581 71.3709 176.046H71.4024ZM71.0874 128.392C69.6701 129.148 68.4417 130.124 67.7488 131.132C67.2449 131.825 67.1504 132.329 67.1819 132.549C68.0638 133.116 72.2213 132.99 75.182 131.447C76.6938 130.66 76.8513 129.053 76.7883 128.077C75.4969 127.762 73.0087 127.384 71.0874 128.392ZM112.033 71.7612C109.923 71.5408 107.938 71.0368 106.426 70.2494C104.915 69.462 104.159 68.6116 103.749 67.8242C103.749 70.3124 103.749 72.7691 103.749 75.0369C103.907 74.9424 104.064 74.8479 104.222 74.7534C107.182 73.2101 110.584 73.714 111.844 73.9975L112.033 71.7612ZM97.2295 33.934C97.0405 33.7765 96.8515 33.6191 96.6311 33.4616C95.2767 32.4852 92.2845 33.2726 90.4578 33.997C90.3003 35.9183 90.4263 39.005 91.7806 39.9813C93.0405 40.8947 94.4893 41.2097 95.7492 40.9892C95.7492 40.9892 95.7491 40.9892 95.7176 40.9892C95.6232 40.9262 95.5287 40.8632 95.4342 40.8003C95.3082 40.7373 95.1822 40.6428 95.0562 40.5798C95.0247 40.5798 94.9932 40.5483 94.9617 40.5168C94.4578 40.1703 94.1113 39.8868 94.0168 39.7924C93.4814 39.3199 93.3239 38.5325 93.6389 37.8711C93.6389 37.8396 93.7019 37.7136 93.7964 37.6191C93.7964 37.6191 93.8279 37.5561 93.8594 37.5246C93.9224 37.4301 93.9853 37.3041 94.0798 37.1467C94.1113 37.0837 94.1428 37.0522 94.1743 36.9892C94.2688 36.8317 94.3948 36.6742 94.5208 36.4852C94.5523 36.4222 94.5838 36.3907 94.6153 36.3278C94.7728 36.1073 94.9932 35.8553 95.2137 35.6348C95.2452 35.5718 95.3082 35.5403 95.3712 35.4774C95.5602 35.2884 95.7176 35.0994 95.9381 34.9419C96.0326 34.8474 96.1271 34.7844 96.2216 34.7214C96.4106 34.564 96.5996 34.4065 96.82 34.2805C96.9145 34.2175 97.009 34.1545 97.135 34.06C97.198 34.06 97.2295 33.997 97.261 33.9655L97.2295 33.934ZM101.261 36.1388C100.883 36.1388 100.505 36.1703 100.064 36.2648C100.064 36.2648 100.064 36.2648 100.033 36.2648C100.001 36.2648 99.9697 36.2648 99.9382 36.2648C99.1508 36.4222 98.3949 36.9577 97.8279 37.5561C97.6389 37.7451 97.4815 37.9341 97.324 38.1231C97.9854 38.501 98.8043 38.879 99.6232 38.942C99.9067 38.9735 100.19 38.9735 100.442 38.942C102.017 38.627 103.119 37.9026 103.529 37.3041C103.655 37.1152 103.686 36.9892 103.655 36.9262C103.592 36.6112 102.678 36.1073 101.261 36.1073V36.1388ZM105.765 77.6196C103.434 78.8479 102.363 80.2338 102.174 80.8007C102.741 80.9582 104.537 80.8637 106.867 79.6668C108.096 79.0054 109.009 77.903 109.576 76.9582C108.442 76.8952 107.025 76.9582 105.765 77.6511V77.6196ZM100.474 77.6196C100.663 65.8399 100.253 47.5405 100.096 42.1861C100.064 42.1861 100.033 42.1861 100.001 42.1861C98.6468 43.5089 96.883 44.2334 94.9617 44.2334C93.2294 44.2334 91.4341 43.6664 89.8593 42.5326C87.9695 41.1467 87.3396 38.69 87.2136 36.5482C87.1821 36.9262 87.0876 37.3356 86.9616 37.7136C86.3632 39.3829 85.0404 40.6743 83.1821 41.3357C82.3317 41.6192 81.4498 41.7766 80.5364 41.7766C79.56 41.7766 78.5521 41.6192 77.6072 41.2727C75.8434 40.6743 74.6465 39.1939 73.8591 37.7136L74.1426 41.1782C76.1269 41.6507 80.8828 43.0995 81.9537 46.5956C82.2372 47.5405 82.3317 48.5169 82.2687 49.4933C84.9459 51.1941 86.2687 53.8713 85.2293 55.9185C84.8199 56.7689 84.064 57.4304 83.0246 57.7768C82.4262 57.9973 81.7647 58.0918 81.0718 58.0918C79.812 58.0918 78.3946 57.7453 77.0088 57.1154C76.6938 56.9579 76.5048 56.7374 76.2529 56.58C75.9064 56.643 75.5599 56.7374 75.245 56.7374C74.93 56.7374 74.552 56.7059 74.2371 56.643C75.8119 57.3359 79.056 59.0682 79.056 61.7139C79.056 63.9816 77.5127 65.9344 75.308 66.7218L75.9694 74.9109C85.0719 76.0133 85.2608 78.3755 85.3238 79.1629C85.5443 82.3125 81.2293 84.2968 76.6938 84.7693L76.8828 87.0055C78.1426 86.722 81.5128 86.2181 84.5049 87.7614C87.1821 89.1788 89.1034 91.0686 89.6703 92.8638C90.0168 93.9662 89.7648 94.8166 89.4814 95.3206C89.1349 95.982 88.19 97.0529 85.9223 97.0529C85.7333 97.0529 85.5443 97.0529 85.3553 97.0529C83.812 96.9269 82.0482 96.3914 80.3474 95.5096C79.0875 94.8481 78.1112 93.9032 77.3552 92.9583L77.8277 98.5332C83.6545 99.2891 83.8435 100.895 83.875 101.431C83.938 102.061 83.7175 103.289 81.7962 104.266C80.9143 104.707 79.812 104.99 78.6151 105.179L78.9615 108.99C82.9301 108.77 87.0561 108.045 89.1979 105.903C92.442 102.659 98.5838 91.226 100.001 87.7614C100.033 87.6354 100.253 86.8795 100.411 83.5409C99.9697 83.2574 99.5602 82.911 99.3082 82.4385C98.5208 80.9582 99.1823 79.2574 100.537 77.7456L100.474 77.6196ZM83.4655 34.249C82.8671 33.3356 81.8907 32.6112 80.6938 32.2017C80.4734 32.1072 80.2214 32.0757 79.9379 32.0757C78.5206 32.0757 76.7883 33.0836 75.7174 33.871C76.1584 35.3829 77.1033 37.7136 78.5836 38.2175C79.7805 38.627 81.0088 38.627 82.0482 38.2805C82.9616 37.9656 83.5915 37.3986 83.8435 36.6427C84.0955 35.8868 83.9695 35.0679 83.4341 34.249H83.4655ZM87.1506 34.9734C87.1506 34.6899 87.1506 34.375 87.1506 34.123C87.0561 34.0915 86.9616 34.06 86.8672 33.997C86.9616 34.312 87.0561 34.6269 87.1191 34.9419L87.1506 34.9734ZM67.0244 27.8552C67.0244 29.0521 67.7173 29.934 68.3158 29.934C68.9142 29.934 69.6071 29.0521 69.6071 27.8552C69.6071 26.6584 68.9142 25.7765 68.3158 25.7765C67.7173 25.7765 67.0244 26.6584 67.0244 27.8552ZM62.9929 35.1309C62.2369 36.0443 61.922 37.2097 62.111 38.375C62.2684 39.2884 62.7724 40.0758 63.3708 40.4223C64.1897 40.8947 65.1661 40.5798 65.6701 40.3593C66.7094 39.9183 67.6858 39.005 68.3473 37.8396C69.2922 36.2018 69.5441 34.6269 69.5756 33.745C68.2843 33.1151 65.4181 32.2017 62.9614 35.0994L62.9929 35.1309ZM77.4497 102.817C79.497 102.659 80.7568 102.061 81.1978 101.683C80.4734 101.368 78.8671 100.99 77.2922 100.769C75.7804 101.179 74.2686 101.777 73.5757 102.218C74.1111 102.533 75.434 102.974 77.4497 102.817ZM75.8119 81.5566C79.371 81.3047 81.3868 80.1393 81.9222 79.5094C80.9458 78.9739 78.2371 78.3125 75.5599 77.966C72.9457 78.6905 70.3945 79.7298 69.4811 80.3913C70.1111 80.9267 72.2528 81.7771 75.8119 81.5251V81.5566ZM73.0717 63.7926C74.5521 63.7926 75.7489 62.8163 75.7489 61.5879C75.7174 61.1784 74.5206 60.2335 73.0717 59.5406C71.6229 60.2335 70.426 61.1784 70.3945 61.5879C70.3945 62.8163 71.5914 63.7926 73.0717 63.7926ZM77.7962 53.6823C77.9852 53.8713 78.2371 54.0602 78.4576 54.1547C79.9064 54.8477 81.2293 54.9107 81.9222 54.6587C82.1427 54.5957 82.2372 54.5012 82.2687 54.4382C82.4262 54.1232 81.8277 52.7059 79.8435 51.7295C79.8435 51.7295 79.812 51.7295 79.7805 51.7295C79.7805 51.7295 79.7175 51.7295 79.7175 51.698C78.993 51.3516 78.1111 51.3516 77.2607 51.4775C76.9773 51.509 76.7253 51.572 76.4733 51.635C76.7568 52.3279 77.1977 53.1154 77.8277 53.6508L77.7962 53.6823ZM73.4812 52.9579C73.4812 52.9579 73.4812 52.9264 73.4812 52.8949C73.4812 52.8949 73.4812 52.8949 73.4812 52.8634C73.0717 51.887 72.9142 51.1311 72.8827 50.9736C72.7253 50.2492 73.1032 49.5563 73.7646 49.2413C73.8276 49.2413 73.9851 49.1468 74.1741 49.0523C74.2371 49.0523 74.3001 48.9893 74.3631 48.9578C74.5521 48.8633 74.804 48.8003 75.0875 48.7058C75.182 48.7058 75.245 48.6429 75.308 48.6429C75.6859 48.5169 76.0954 48.4224 76.5363 48.3594C76.6308 48.3594 76.7253 48.3594 76.7883 48.3279C77.1663 48.2649 77.5442 48.2334 77.9537 48.2334C78.0482 48.2334 78.1112 48.2334 78.2056 48.2334C78.3001 48.2334 78.4261 48.2334 78.5206 48.2334C78.6151 48.2334 78.6781 48.2334 78.7726 48.2334C78.8356 48.2334 78.8986 48.2334 78.9615 48.2334C78.9301 48.0129 78.8671 47.761 78.7726 47.509C78.3001 45.9342 75.4025 44.7688 73.5127 44.2964C72.1898 45.7452 70.4575 48.2649 70.93 49.8397C71.3709 51.2886 72.3473 52.3909 73.4812 52.9894V52.9579ZM79.119 89.8087C79.686 90.7536 80.5679 91.8875 81.8277 92.5174C84.1585 93.7457 85.9223 93.8402 86.4892 93.6513C86.3002 93.0843 85.2293 91.6985 82.8986 90.4701C81.6702 89.8087 80.2214 89.7142 79.0875 89.7772L79.119 89.8087ZM35.4965 40.5483C34.961 57.7453 34.4571 84.9897 35.402 87.6039C36.8823 91.3205 42.9296 102.943 46.0163 106.344C47.7486 108.234 59.9062 109.116 70.1426 108.833C70.7095 108.833 71.3709 108.833 72.1583 108.864C73.3552 108.896 74.8355 108.927 76.3788 108.927L76.0324 105.21C73.3552 105.084 70.993 104.14 70.8355 102.25C70.804 101.746 70.741 100.329 75.2765 98.8482L74.5835 90.5646C73.4182 91.6985 71.4969 93.2733 69.0087 94.4072C66.9929 95.3206 64.0322 96.423 61.8275 96.423C60.5991 96.423 59.5912 96.0765 59.1503 95.1001C57.9219 92.4229 63.0559 89.6827 66.2055 88.2654C69.7016 86.722 73.1347 86.5961 74.2686 86.5961L74.1111 84.7693C72.4418 84.7378 70.867 84.5173 69.5756 84.0763C66.615 83.0685 66.048 81.3677 65.985 80.4543C65.922 79.6983 65.7645 77.5251 73.4497 75.2258L72.7568 66.9738C69.6071 66.8478 67.0559 64.4856 67.0559 61.5879C67.0559 58.6902 71.1189 56.8004 72.3788 56.2965C72.5363 56.2335 72.6938 56.2335 72.8512 56.202C70.5205 55.4146 68.5677 53.4303 67.7488 50.7216C66.5205 46.7531 70.6465 42.4381 71.5914 41.4932L71.3709 38.879C71.2764 39.0679 71.1819 39.2569 71.0874 39.4459C70.0796 41.1782 68.5992 42.5326 66.9299 43.2885C66.048 43.6664 65.1661 43.8554 64.3157 43.8554C63.3708 43.8554 62.4889 43.6349 61.7015 43.194C60.5676 42.5326 59.6857 41.4617 59.2133 40.1388H56.0006C47.0557 40.0443 37.9217 40.0128 35.4335 40.5483H35.4965ZM69.6386 90.4386C68.9772 90.6276 68.2843 90.8481 67.6228 91.163C66.552 91.6355 65.6071 92.1394 64.8512 92.5804C65.7016 92.2969 66.6779 91.9504 67.7488 91.4465C68.4417 91.1315 69.0717 90.7851 69.6386 90.4071V90.4386ZM56.5046 36.8947H58.8668C59.0243 35.5089 59.5598 34.1545 60.4732 33.0521C61.67 31.6033 62.9929 30.8159 64.3157 30.3434C63.9693 29.5875 63.7173 28.7371 63.7173 27.7922C63.7173 25.2095 65.3236 23.0678 67.4024 22.6268C67.0874 22.1859 66.7409 21.6819 66.3945 21.0835C62.5204 23.9812 56.3156 30.6899 56.4731 36.8632L56.5046 36.8947ZM71.2134 15.7921C70.363 12.5165 68.8197 10.6267 68.0953 10.2487C67.7488 11.2881 67.5598 14.0283 67.7173 16.7055C68.9142 19.0992 70.3945 21.3984 71.2449 22.1544C71.6859 21.4614 72.1268 19.1937 71.2449 15.7921H71.2134ZM90.3318 8.83137C89.9223 9.4928 89.3869 11.0361 89.0089 12.5794C89.2609 14.1228 89.7018 15.6661 90.0483 16.3905C90.4263 15.9181 90.9932 14.6267 91.0562 12.6739C91.1192 10.6582 90.6467 9.33532 90.3318 8.86287V8.83137ZM100.064 7.6975C99.7807 8.10696 99.6232 8.5794 99.4972 9.05185C99.9067 8.79988 100.285 8.45342 100.568 8.04396C101.104 7.28805 101.387 6.62662 101.513 6.12268C101.104 6.43764 100.568 6.94159 100.064 7.6975ZM106.678 12.2015C106.584 12.548 106.458 12.8944 106.363 13.2409C106.426 13.5873 106.489 13.9653 106.584 14.3118C106.647 13.9968 106.678 13.6503 106.71 13.2409C106.71 12.8314 106.71 12.485 106.678 12.17V12.2015ZM116.852 19.5402C115.686 18.3433 112.568 18.6583 110.678 19.0992C110.175 20.989 109.797 24.0127 110.993 25.2095C112.064 26.2804 113.419 26.8158 114.71 26.8158C114.584 26.7213 114.49 26.6269 114.395 26.5324C114.301 26.4694 114.238 26.3749 114.143 26.3119C114.017 26.1859 113.923 26.0914 113.797 25.9654C113.797 25.9654 113.734 25.9024 113.702 25.8709C113.45 25.619 113.293 25.43 113.23 25.367C112.757 24.8001 112.757 24.0127 113.198 23.4142C113.23 23.3512 113.356 23.1937 113.545 23.0048C113.576 22.9418 113.608 22.9103 113.671 22.8473C113.891 22.6268 114.143 22.3433 114.458 22.0284C114.49 22.0284 114.521 21.9654 114.553 21.9339C114.836 21.6504 115.182 21.3984 115.56 21.115C115.655 21.052 115.749 20.989 115.844 20.926C116.285 20.6425 116.757 20.3906 117.261 20.1701C117.293 20.1701 117.324 20.1386 117.356 20.1071C117.198 19.9181 117.041 19.7291 116.852 19.5402ZM123.183 24.1386C123.183 23.7292 121.923 22.8473 119.907 22.8473C119.844 22.8473 119.812 22.8473 119.749 22.8473C119.749 22.8473 119.718 22.8473 119.686 22.8473C119.686 22.8473 119.623 22.8473 119.592 22.8473C118.521 22.8473 117.45 23.6032 116.694 24.2961C117.261 24.7686 118.017 25.2725 118.836 25.493C119.12 25.5875 119.403 25.619 119.655 25.619C121.261 25.556 122.458 25.0205 122.962 24.4851C123.12 24.3276 123.151 24.2016 123.151 24.1386H123.183ZM120.757 33.4301C120.568 33.1151 119.245 32.8317 117.797 32.8317C117.671 32.8317 117.545 32.8317 117.419 32.8317C116.442 34.123 115.844 35.4774 116.001 35.8868C116.253 36.3908 116.726 36.7372 117.356 36.8947C118.017 37.0522 118.742 36.9577 119.403 36.6427C120.064 36.2963 120.568 35.7608 120.82 35.1309C121.041 34.564 121.009 33.9655 120.757 33.4616V33.4301ZM129.135 41.5562C128.505 42.2176 127.876 42.942 127.592 43.4774C128.064 43.5404 128.915 43.4145 129.891 42.8475C130.868 42.3121 131.403 41.6507 131.624 41.2412C131.025 41.2412 130.08 41.3672 129.167 41.5877L129.135 41.5562ZM127.12 49.3673C127.561 49.1468 127.97 48.8633 128.285 48.5484C127.813 48.6114 127.34 48.7059 126.899 48.9263C126.112 49.3043 125.513 49.6822 125.104 50.0287C125.639 49.9342 126.301 49.7452 127.12 49.3673ZM121.891 44.3593C122.773 45.3672 122.868 46.6901 122.458 48.1074C123.214 47.3515 124.285 46.5956 125.482 46.0287C125.041 45.7452 124.694 45.4302 124.442 44.9893C123.781 43.8239 124.316 42.4381 125.261 41.1152L122.49 38.2805C122.049 38.7215 121.513 39.1309 120.946 39.4459C120.033 39.9184 119.025 40.1703 118.049 40.1703C117.545 40.1703 117.072 40.1073 116.568 39.9813C115.056 39.6034 113.86 38.6585 113.167 37.3671C111.781 34.7529 114.521 31.2568 115.403 30.2489C115.497 30.123 115.655 30.0285 115.781 29.9655C115.434 30.0285 115.056 30.06 114.71 30.06C112.6 30.06 110.395 29.1781 108.694 27.4458C106.363 25.115 106.93 20.989 107.466 18.7527C107.056 18.9417 106.678 19.0047 106.426 19.0047H106.363C105.702 19.0047 104.253 18.8787 103.34 14.3747H100.631C101.072 15.0677 101.513 15.9496 101.828 16.926C102.269 18.3118 103.245 21.6504 102.426 23.2567C102.237 23.6347 101.67 24.1386 101.261 24.2646C101.135 24.2961 100.946 24.3276 100.757 24.3276C100.379 24.3276 99.9697 24.2646 99.7177 24.1386C98.0799 23.3197 96.8515 20.0441 96.4106 18.6898C95.8436 17.0204 95.7492 15.4141 95.7492 14.2803H93.3554C92.946 16.8 91.7491 19.0047 89.8908 19.0047C89.8593 19.0047 89.7963 19.0047 89.7963 19.0047C89.2924 19.0047 87.812 18.8787 86.8042 13.9968L80.6624 15.4456C81.9852 16.3905 83.7805 17.9023 85.2608 19.9811C86.4892 21.7449 87.4971 23.5087 88.0955 24.989C88.4105 25.8079 89.4184 28.2962 87.7491 29.43C87.3711 29.682 86.9616 29.808 86.5522 29.808C85.2293 29.808 83.938 28.6426 83.4341 28.2017C82.2372 27.1308 80.9143 25.5875 79.686 23.8237C77.5442 20.8 76.8198 17.5874 76.5993 16.3905L74.741 16.8315C74.993 18.4378 75.119 19.9811 74.8985 21.304C74.4891 23.9812 73.2292 24.9575 72.3158 25.3355C72.6623 26.0914 72.8827 26.9103 72.8827 27.8237C72.8827 29.1466 72.4418 30.3434 71.7489 31.2883C71.9063 31.3828 72.0638 31.4773 72.1898 31.5403C72.4418 31.7293 72.5993 31.9812 72.7253 32.2332C72.7883 32.1702 72.8197 32.0757 72.8827 32.0127C73.3867 31.5718 77.8592 27.7607 81.7962 29.1466C83.0246 29.556 84.0955 30.2174 84.9774 31.0679C85.6388 31.1623 86.7412 31.3513 87.8435 31.7608C87.9695 31.6348 88.0955 31.5088 88.253 31.4143C88.9459 31.0679 94.9932 28.2017 98.5523 30.7844C99.3397 31.3513 100.001 32.1072 100.568 32.8946C103.749 32.6742 106.426 34.0285 106.836 36.2648C107.025 37.2097 106.836 38.1545 106.206 39.0364C105.891 39.5089 105.45 39.8869 104.978 40.2963L111.056 47.068C111.056 47.068 111.056 47.0365 111.119 47.005C111.245 46.8476 111.403 46.7216 111.592 46.5956C119.812 41.9026 121.419 43.7294 121.923 44.3278L121.891 44.3593ZM81.1978 20.1386C81.5128 20.737 81.8592 21.367 82.3002 21.9654C82.9931 22.9418 83.623 23.7292 84.2215 24.3906C83.812 23.6032 83.2451 22.7213 82.5836 21.7764C82.1427 21.178 81.7017 20.611 81.2293 20.1071L81.1978 20.1386ZM119.466 46.7216C118.364 46.8791 115.781 47.9499 113.419 49.2728C111.781 51.383 110.332 53.7453 110.049 54.8162C110.867 54.9107 113.135 54.2807 115.812 51.9815C118.49 49.6822 119.434 47.5405 119.466 46.7531V46.7216ZM112.442 57.6193C111.56 57.9028 110.836 57.9973 110.206 57.9973C108.663 57.9973 107.781 57.3359 107.34 56.8319C106.867 56.2965 105.576 54.7217 109.608 48.9893C109.45 48.9263 109.324 48.8318 109.198 48.6744L103.308 42.0916C103.403 45.7767 103.623 55.4461 103.718 64.9895C104.411 63.9501 106.489 62.5328 113.041 61.7769L112.789 57.4304C112.789 57.4304 112.537 57.5249 112.442 57.5564V57.6193ZM119.182 67.4777C118.301 66.8163 115.718 65.7769 113.104 65.0525C110.426 65.399 107.718 66.0604 106.741 66.5958C107.277 67.2258 109.293 68.3911 112.852 68.6431C116.411 68.8951 118.553 68.0447 119.182 67.5092V67.4777ZM115.088 89.2733C114.395 88.8638 112.883 88.2654 111.371 87.8244C109.797 88.0134 108.222 88.3914 107.497 88.7063C107.97 89.1158 109.23 89.7142 111.245 89.8402C113.261 89.9662 114.584 89.5567 115.119 89.2418L115.088 89.2733ZM110.143 104.958C109.765 105.021 109.419 105.084 109.041 105.147C109.356 105.21 109.702 105.273 110.112 105.305C110.521 105.305 110.867 105.305 111.182 105.305C110.836 105.179 110.489 105.084 110.143 104.958ZM112.694 136.801C114.553 137.746 117.198 137.967 118.112 137.715C117.954 137.211 117.135 136.077 115.403 135.195C115.182 135.069 114.962 135.006 114.773 134.943C114.584 135.006 114.364 135.038 114.175 135.069C113.545 135.29 112.883 135.447 112.159 135.542C112.033 135.542 111.907 135.605 111.781 135.636C111.907 136.077 112.159 136.518 112.694 136.801ZM113.702 151.038C114.804 151.353 116.096 151.416 117.041 151.353C116.631 151.101 116.033 150.817 115.245 150.597C114.458 150.376 113.608 150.439 112.946 150.597C113.104 150.786 113.356 150.943 113.702 151.069V151.038ZM110.112 146.156C111.214 145.935 111.938 145.494 112.253 145.148C111.686 144.959 110.741 144.77 109.797 144.707C108.978 145.116 108.159 145.652 107.718 146.03C108.159 146.219 108.978 146.376 110.08 146.156H110.112ZM109.198 132.486C109.45 132.486 109.765 132.486 110.017 132.486C110.458 132.486 110.867 132.423 111.277 132.392C111.56 132.392 111.875 132.392 112.159 132.297C112.789 132.171 113.387 131.982 113.923 131.762C113.986 131.762 114.017 131.73 114.08 131.699C115.025 131.258 115.655 130.66 115.749 130.093C115.371 129.305 112.537 127.762 109.608 126.723C106.521 127.321 103.371 128.518 103.025 129.116C102.962 130.313 105.293 132.203 109.198 132.486ZM103.088 115.226C103.781 114.88 104.379 114.407 104.883 113.935C104.19 114.092 103.497 114.313 102.804 114.691C101.67 115.289 100.789 115.888 100.159 116.423C100.946 116.203 101.954 115.825 103.088 115.226ZM101.293 111.856C104.474 110.187 107.907 110.47 108.474 110.502L108.631 108.297C105.954 107.793 104.222 106.407 104.348 104.675C104.411 104.014 104.568 102.565 109.198 101.872L109.419 99.5096C108.852 100.266 108.064 100.99 107.056 101.525C105.576 102.281 104.19 102.659 102.993 102.659C101.639 102.659 100.6 102.155 100.064 101.21C99.0878 99.3836 100.6 96.9584 103.718 95.3206C106.363 93.9347 109.387 94.7536 109.734 94.8481C109.765 94.8481 109.797 94.8166 109.828 94.7851L110.08 92.1394C107.245 91.73 104.663 90.3756 104.82 88.3599C104.852 87.8244 105.009 86.2496 110.867 85.4622L111.34 79.8873C110.584 80.8322 109.608 81.7771 108.348 82.4385C106.773 83.2574 105.072 83.7929 103.529 83.9504C103.371 87.2575 103.119 88.2969 102.93 88.8008C101.576 92.1394 95.2452 104.203 91.4341 108.014C90.9932 108.455 90.5207 108.833 90.0168 109.179H97.0405V114.943C98.0799 113.809 99.6547 112.707 101.293 111.856ZM106.647 97.7458C106.174 97.7773 105.671 97.9033 105.23 98.1553C104.411 98.5962 103.844 99.0372 103.497 99.4151C104.001 99.3206 104.694 99.1316 105.513 98.6907C105.954 98.4702 106.332 98.1237 106.647 97.7458ZM71.5599 164.235C72.5048 164.298 73.7961 164.235 74.8985 163.92C75.245 163.825 75.4969 163.636 75.6544 163.447C74.9615 163.29 74.1426 163.227 73.3552 163.447C72.5678 163.668 72.0008 163.951 71.5599 164.203V164.235ZM78.4891 159.038C79.623 159.258 80.4734 159.101 80.8828 158.943C80.4419 158.565 79.623 158.03 78.7726 157.589C77.8592 157.652 76.9143 157.841 76.3158 158.03C76.6623 158.376 77.3552 158.817 78.4576 159.038H78.4891ZM75.9064 149.683C76.4418 149.4 76.7253 148.959 76.8198 148.487C76.6938 148.487 76.5678 148.424 76.4103 148.392C75.7174 148.298 75.0875 148.14 74.4576 147.92C74.2686 147.857 74.0166 147.857 73.8276 147.762C73.5757 147.825 73.3867 147.92 73.1662 148.014C71.4339 148.896 70.615 150.03 70.4575 150.534C71.4024 150.786 74.0166 150.565 75.8434 149.652L75.9064 149.683ZM72.8512 142.975C72.9457 143.542 73.5757 144.14 74.4891 144.581C74.5521 144.581 74.615 144.612 74.678 144.644C75.7489 145.116 77.0718 145.368 78.4576 145.368C78.7411 145.368 79.119 145.368 79.434 145.368C83.3081 145.085 85.6703 143.195 85.6073 142.124C85.2293 141.4 82.0797 140.203 78.993 139.605C76.0324 140.644 73.1977 142.187 72.8512 142.975ZM78.4891 118.155C78.8986 118.155 79.245 118.061 79.56 117.998C79.2135 117.935 78.8356 117.872 78.4576 117.809C78.1111 117.904 77.7332 118.029 77.4182 118.155C77.7332 118.155 78.1112 118.155 78.4891 118.155Z" fill="#D7BB90"/>
</svg>
